<mxfile host="Electron" modified="2024-06-04T14:03:49.873Z" agent="Mozilla/5.0 (Windows NT 10.0; Win64; x64) AppleWebKit/537.36 (KHTML, like Gecko) draw.io/24.4.8 Chrome/124.0.6367.207 Electron/30.0.6 Safari/537.36" etag="PsDOl39wymSnvTqc-L8J" version="24.4.8" type="device">
  <diagram name="Page-1" id="tHCEnAuapFhDYKuq5LXg">
    <mxGraphModel dx="1083" dy="660" grid="1" gridSize="10" guides="1" tooltips="1" connect="1" arrows="1" fold="1" page="1" pageScale="1" pageWidth="827" pageHeight="1169" math="1" shadow="1">
      <root>
        <mxCell id="0" />
        <mxCell id="1" parent="0" />
        <mxCell id="lIgfKyH6TXQouxF_7BQu-59" value="Big `O(n^2)`" style="rounded=1;whiteSpace=wrap;html=1;strokeWidth=2;fillColor=#ffcccc;strokeColor=#36393d;arcSize=0;fontFamily=Mina;fontStyle=1;fontSize=22;align=center;spacingLeft=0;" vertex="1" parent="1">
          <mxGeometry x="204.29" y="2450" width="140" height="50" as="geometry" />
        </mxCell>
        <mxCell id="lIgfKyH6TXQouxF_7BQu-13" value="Big `O(n)`" style="rounded=1;whiteSpace=wrap;html=1;strokeWidth=2;fillColor=#ffcccc;strokeColor=#36393d;arcSize=0;fontFamily=Mina;fontStyle=1;fontSize=22;align=center;spacingLeft=0;" vertex="1" parent="1">
          <mxGeometry x="208.57" y="240" width="131.43" height="50" as="geometry" />
        </mxCell>
        <mxCell id="Nn6koLzLslnJojYE7e_Y-1" value="Algorithm &amp;amp; Pseudocode" style="rounded=1;whiteSpace=wrap;html=1;hachureGap=4;fontFamily=Dune Rise;strokeWidth=2;fillColor=#cce5ff;strokeColor=default;fontSize=30;fontStyle=1;labelBorderColor=none;textShadow=0;labelBackgroundColor=none;verticalAlign=middle;spacingBottom=0;fillStyle=solid;arcSize=50;" parent="1" vertex="1">
          <mxGeometry x="221" y="30" width="386" height="90" as="geometry" />
        </mxCell>
        <mxCell id="Nn6koLzLslnJojYE7e_Y-3" value="Search Algorithms" style="shape=hexagon;perimeter=hexagonPerimeter2;whiteSpace=wrap;fixedSize=1;size=16;fillColor=#eeeeee;strokeColor=#36393d;fontFamily=Mina;fontSize=25;strokeWidth=2;align=center;spacingLeft=0;spacingBottom=0;fillStyle=hachure;fontStyle=1;hachureGap=4;verticalAlign=middle;" parent="1" vertex="1">
          <mxGeometry x="271" y="160" width="285.26" height="50" as="geometry" />
        </mxCell>
        <mxCell id="Nn6koLzLslnJojYE7e_Y-8" value="" style="group" parent="1" vertex="1" connectable="0">
          <mxGeometry x="20" y="240" width="188.57" height="50" as="geometry" />
        </mxCell>
        <mxCell id="Nn6koLzLslnJojYE7e_Y-2" value="Linear Search" style="rounded=1;whiteSpace=wrap;html=1;fontSize=22;fillColor=#cce5ff;strokeColor=#36393d;strokeWidth=2;fontFamily=Mina;arcSize=0;hachureGap=4;align=right;spacingRight=7;fontStyle=1" parent="Nn6koLzLslnJojYE7e_Y-8" vertex="1">
          <mxGeometry x="20" width="168.57" height="50" as="geometry" />
        </mxCell>
        <mxCell id="Nn6koLzLslnJojYE7e_Y-9" value="1" style="ellipse;whiteSpace=wrap;html=1;aspect=fixed;strokeWidth=2;fillColor=#0050ef;strokeColor=#001DBC;fontFamily=Mina;fontStyle=1;fontSize=22;spacingTop=3;fontColor=#ffffff;" parent="Nn6koLzLslnJojYE7e_Y-8" vertex="1">
          <mxGeometry x="-10" width="50" height="50" as="geometry" />
        </mxCell>
        <mxCell id="Nn6koLzLslnJojYE7e_Y-49" value="" style="group" parent="1" vertex="1" connectable="0">
          <mxGeometry x="70" y="330" width="153" height="40" as="geometry" />
        </mxCell>
        <mxCell id="Nn6koLzLslnJojYE7e_Y-47" value="Algorithm" style="rounded=1;whiteSpace=wrap;html=1;fontSize=20;fillColor=#cdeb8b;strokeColor=#36393d;strokeWidth=2;fontFamily=Mina;arcSize=50;hachureGap=4;align=right;spacingRight=5;fontStyle=1" parent="Nn6koLzLslnJojYE7e_Y-49" vertex="1">
          <mxGeometry x="10" width="133" height="40" as="geometry" />
        </mxCell>
        <mxCell id="Nn6koLzLslnJojYE7e_Y-48" value="1.1" style="ellipse;whiteSpace=wrap;html=1;aspect=fixed;strokeWidth=2;fillColor=#008a00;strokeColor=#005700;fontFamily=Mina;fontStyle=1;fontSize=20;spacingTop=3;fontColor=#ffffff;" parent="Nn6koLzLslnJojYE7e_Y-49" vertex="1">
          <mxGeometry width="40" height="40" as="geometry" />
        </mxCell>
        <mxCell id="Nn6koLzLslnJojYE7e_Y-51" value="" style="group" parent="1" vertex="1" connectable="0">
          <mxGeometry x="70" y="750" width="170" height="40" as="geometry" />
        </mxCell>
        <mxCell id="Nn6koLzLslnJojYE7e_Y-52" value="Pseudocode" style="rounded=1;whiteSpace=wrap;html=1;fontSize=20;fillColor=#ffcccc;strokeColor=#36393d;strokeWidth=2;fontFamily=Mina;arcSize=50;hachureGap=4;align=right;spacingRight=5;fontStyle=1" parent="Nn6koLzLslnJojYE7e_Y-51" vertex="1">
          <mxGeometry x="10" width="150" height="40" as="geometry" />
        </mxCell>
        <mxCell id="Nn6koLzLslnJojYE7e_Y-53" value="1.2" style="ellipse;whiteSpace=wrap;html=1;aspect=fixed;strokeWidth=2;fillColor=#e51400;strokeColor=#36393d;fontFamily=Mina;fontStyle=1;fontSize=20;spacingTop=3;fontColor=#ffffff;" parent="Nn6koLzLslnJojYE7e_Y-51" vertex="1">
          <mxGeometry width="40" height="40" as="geometry" />
        </mxCell>
        <mxCell id="Nn6koLzLslnJojYE7e_Y-58" value="" style="group" parent="1" vertex="1" connectable="0">
          <mxGeometry x="70" y="1290" width="153" height="40" as="geometry" />
        </mxCell>
        <mxCell id="Nn6koLzLslnJojYE7e_Y-59" value="Algorithm" style="rounded=1;whiteSpace=wrap;html=1;fontSize=20;fillColor=#cdeb8b;strokeColor=#36393d;strokeWidth=2;fontFamily=Mina;arcSize=50;hachureGap=4;align=right;spacingRight=5;fontStyle=1" parent="Nn6koLzLslnJojYE7e_Y-58" vertex="1">
          <mxGeometry x="10" width="133" height="40" as="geometry" />
        </mxCell>
        <mxCell id="Nn6koLzLslnJojYE7e_Y-60" value="2.1" style="ellipse;whiteSpace=wrap;html=1;aspect=fixed;strokeWidth=2;fillColor=#008a00;strokeColor=#005700;fontFamily=Mina;fontStyle=1;fontSize=20;spacingTop=3;fontColor=#ffffff;" parent="Nn6koLzLslnJojYE7e_Y-58" vertex="1">
          <mxGeometry width="40" height="40" as="geometry" />
        </mxCell>
        <mxCell id="Nn6koLzLslnJojYE7e_Y-62" value="" style="group" parent="1" vertex="1" connectable="0">
          <mxGeometry x="70" y="1660" width="170" height="40" as="geometry" />
        </mxCell>
        <mxCell id="Nn6koLzLslnJojYE7e_Y-63" value="Pseudocode" style="rounded=1;whiteSpace=wrap;html=1;fontSize=20;fillColor=#ffcccc;strokeColor=#36393d;strokeWidth=2;fontFamily=Mina;arcSize=50;hachureGap=4;align=right;spacingRight=5;fontStyle=1" parent="Nn6koLzLslnJojYE7e_Y-62" vertex="1">
          <mxGeometry x="10" width="150" height="40" as="geometry" />
        </mxCell>
        <mxCell id="Nn6koLzLslnJojYE7e_Y-64" value="2.2" style="ellipse;whiteSpace=wrap;html=1;aspect=fixed;strokeWidth=2;fillColor=#e51400;strokeColor=#36393d;fontFamily=Mina;fontStyle=1;fontSize=20;spacingTop=3;fontColor=#ffffff;" parent="Nn6koLzLslnJojYE7e_Y-62" vertex="1">
          <mxGeometry width="40" height="40" as="geometry" />
        </mxCell>
        <mxCell id="Nn6koLzLslnJojYE7e_Y-66" value="Sort Algorithms" style="shape=hexagon;perimeter=hexagonPerimeter2;whiteSpace=wrap;fixedSize=1;size=16;fillColor=#ffcc99;strokeColor=#36393d;fontFamily=Mina;fontSize=25;strokeWidth=2;align=center;spacingLeft=0;spacingBottom=0;fillStyle=hachure;fontStyle=1;hachureGap=4;verticalAlign=middle;shadow=0;" parent="1" vertex="1">
          <mxGeometry x="299" y="2370" width="229" height="50" as="geometry" />
        </mxCell>
        <mxCell id="Nn6koLzLslnJojYE7e_Y-67" value="" style="group" parent="1" vertex="1" connectable="0">
          <mxGeometry x="20" y="2450" width="220" height="50" as="geometry" />
        </mxCell>
        <mxCell id="Nn6koLzLslnJojYE7e_Y-68" value="Bubble Sort" style="rounded=1;whiteSpace=wrap;html=1;fontSize=22;fillColor=#cce5ff;strokeColor=#36393d;strokeWidth=2;fontFamily=Mina;arcSize=0;hachureGap=4;align=right;spacingRight=7;fontStyle=1" parent="Nn6koLzLslnJojYE7e_Y-67" vertex="1">
          <mxGeometry x="20" width="164" height="50" as="geometry" />
        </mxCell>
        <mxCell id="Nn6koLzLslnJojYE7e_Y-69" value="1" style="ellipse;whiteSpace=wrap;html=1;aspect=fixed;strokeWidth=2;fillColor=#0050ef;strokeColor=#001DBC;fontFamily=Mina;fontStyle=1;fontSize=22;spacingTop=3;fontColor=#ffffff;" parent="Nn6koLzLslnJojYE7e_Y-67" vertex="1">
          <mxGeometry width="50" height="50" as="geometry" />
        </mxCell>
        <mxCell id="Nn6koLzLslnJojYE7e_Y-70" value="" style="group" parent="1" vertex="1" connectable="0">
          <mxGeometry x="70" y="2540" width="153" height="40" as="geometry" />
        </mxCell>
        <mxCell id="Nn6koLzLslnJojYE7e_Y-71" value="Algorithm" style="rounded=1;whiteSpace=wrap;html=1;fontSize=20;fillColor=#cdeb8b;strokeColor=#36393d;strokeWidth=2;fontFamily=Mina;arcSize=50;hachureGap=4;align=right;spacingRight=5;fontStyle=1" parent="Nn6koLzLslnJojYE7e_Y-70" vertex="1">
          <mxGeometry x="10" width="133" height="40" as="geometry" />
        </mxCell>
        <mxCell id="Nn6koLzLslnJojYE7e_Y-72" value="1.1" style="ellipse;whiteSpace=wrap;html=1;aspect=fixed;strokeWidth=2;fillColor=#008a00;strokeColor=#005700;fontFamily=Mina;fontStyle=1;fontSize=20;spacingTop=3;fontColor=#ffffff;" parent="Nn6koLzLslnJojYE7e_Y-70" vertex="1">
          <mxGeometry width="40" height="40" as="geometry" />
        </mxCell>
        <mxCell id="Nn6koLzLslnJojYE7e_Y-74" value="" style="group" parent="1" vertex="1" connectable="0">
          <mxGeometry x="70" y="3000" width="170" height="40" as="geometry" />
        </mxCell>
        <mxCell id="Nn6koLzLslnJojYE7e_Y-75" value="Pseudocode" style="rounded=1;whiteSpace=wrap;html=1;fontSize=20;fillColor=#ffcccc;strokeColor=#36393d;strokeWidth=2;fontFamily=Mina;arcSize=50;hachureGap=4;align=right;spacingRight=5;fontStyle=1" parent="Nn6koLzLslnJojYE7e_Y-74" vertex="1">
          <mxGeometry x="10" width="150" height="40" as="geometry" />
        </mxCell>
        <mxCell id="Nn6koLzLslnJojYE7e_Y-76" value="1.2" style="ellipse;whiteSpace=wrap;html=1;aspect=fixed;strokeWidth=2;fillColor=#e51400;strokeColor=#36393d;fontFamily=Mina;fontStyle=1;fontSize=20;spacingTop=3;fontColor=#ffffff;" parent="Nn6koLzLslnJojYE7e_Y-74" vertex="1">
          <mxGeometry width="40" height="40" as="geometry" />
        </mxCell>
        <mxCell id="lIgfKyH6TXQouxF_7BQu-14" value="Big `O(log(n))`" style="rounded=1;whiteSpace=wrap;html=1;strokeWidth=2;fillColor=#ffff88;strokeColor=#36393d;arcSize=0;fontFamily=Mina;fontStyle=1;fontSize=22;align=center;spacingLeft=0;" vertex="1" parent="1">
          <mxGeometry x="244" y="1200" width="176" height="50" as="geometry" />
        </mxCell>
        <mxCell id="lIgfKyH6TXQouxF_7BQu-15" value="" style="group" vertex="1" connectable="0" parent="1">
          <mxGeometry x="30" y="1200" width="217.5" height="50" as="geometry" />
        </mxCell>
        <mxCell id="Nn6koLzLslnJojYE7e_Y-56" value="Binary Search" style="rounded=1;whiteSpace=wrap;html=1;fontSize=22;fillColor=#cce5ff;strokeColor=#36393d;strokeWidth=2;fontFamily=Mina;arcSize=0;hachureGap=4;align=right;spacingRight=7;fontStyle=1" parent="lIgfKyH6TXQouxF_7BQu-15" vertex="1">
          <mxGeometry x="40" width="177.5" height="50" as="geometry" />
        </mxCell>
        <mxCell id="Nn6koLzLslnJojYE7e_Y-57" value="2" style="ellipse;whiteSpace=wrap;html=1;aspect=fixed;strokeWidth=2;fillColor=#0050ef;strokeColor=#001DBC;fontFamily=Mina;fontStyle=1;fontSize=22;spacingTop=3;fontColor=#ffffff;" parent="lIgfKyH6TXQouxF_7BQu-15" vertex="1">
          <mxGeometry x="15" width="50" height="50" as="geometry" />
        </mxCell>
        <mxCell id="lIgfKyH6TXQouxF_7BQu-18" value="" style="group" vertex="1" connectable="0" parent="1">
          <mxGeometry x="149" y="390" width="530" height="270" as="geometry" />
        </mxCell>
        <mxCell id="lIgfKyH6TXQouxF_7BQu-2" value="&lt;div style=&quot;color: rgb(255, 255, 255); white-space: pre; font-size: 19px;&quot;&gt;&lt;span style=&quot;color: rgb(225, 239, 255); font-size: 19px;&quot;&gt;Linear Search ( &lt;/span&gt;&lt;span style=&quot;color: rgb(250, 239, 165); font-size: 19px;&quot;&gt;Array&lt;/span&gt;&lt;span style=&quot;color: rgb(225, 239, 255); font-size: 19px;&quot;&gt; A, &lt;/span&gt;&lt;span style=&quot;color: rgb(250, 239, 165); font-size: 19px;&quot;&gt;Value&lt;/span&gt;&lt;span style=&quot;color: rgb(225, 239, 255); font-size: 19px;&quot;&gt; x)&lt;/span&gt;&lt;/div&gt;&lt;div style=&quot;color: rgb(255, 255, 255); white-space: pre; font-size: 19px;&quot;&gt;&lt;span style=&quot;color: rgb(225, 239, 255); font-size: 19px;&quot;&gt;Step &lt;/span&gt;&lt;span style=&quot;color: rgb(255, 98, 140); font-size: 19px;&quot;&gt;1&lt;/span&gt;&lt;span style=&quot;color: rgb(225, 239, 255); font-size: 19px;&quot;&gt;: &lt;/span&gt;&lt;span style=&quot;color: rgb(255, 157, 0); font-size: 19px;&quot;&gt;Set&lt;/span&gt;&lt;span style=&quot;color: rgb(225, 239, 255); font-size: 19px;&quot;&gt; i &lt;/span&gt;&lt;span style=&quot;color: rgb(250, 239, 165); font-size: 19px;&quot;&gt;to&lt;/span&gt;&lt;span style=&quot;color: rgb(225, 239, 255); font-size: 19px;&quot;&gt; &lt;/span&gt;&lt;span style=&quot;color: rgb(255, 98, 140); font-size: 19px;&quot;&gt;1&lt;/span&gt;&lt;/div&gt;&lt;div style=&quot;color: rgb(255, 255, 255); white-space: pre; font-size: 19px;&quot;&gt;&lt;span style=&quot;color: rgb(225, 239, 255); font-size: 19px;&quot;&gt;Step &lt;/span&gt;&lt;span style=&quot;color: rgb(255, 98, 140); font-size: 19px;&quot;&gt;2&lt;/span&gt;&lt;span style=&quot;color: rgb(225, 239, 255); font-size: 19px;&quot;&gt;: &lt;/span&gt;&lt;span style=&quot;color: rgb(250, 239, 165); font-size: 19px;&quot;&gt;if&lt;/span&gt;&lt;span style=&quot;color: rgb(225, 239, 255); font-size: 19px;&quot;&gt; i &lt;/span&gt;&lt;span style=&quot;color: rgb(255, 157, 0); font-size: 19px;&quot;&gt;&amp;gt;&lt;/span&gt;&lt;span style=&quot;color: rgb(225, 239, 255); font-size: 19px;&quot;&gt; n &lt;/span&gt;&lt;span style=&quot;color: rgb(250, 239, 165); font-size: 19px;&quot;&gt;then&lt;/span&gt;&lt;span style=&quot;color: rgb(225, 239, 255); font-size: 19px;&quot;&gt; &lt;/span&gt;&lt;span style=&quot;color: rgb(250, 239, 165); font-size: 19px;&quot;&gt;go&lt;/span&gt;&lt;span style=&quot;color: rgb(225, 239, 255); font-size: 19px;&quot;&gt; &lt;/span&gt;&lt;span style=&quot;color: rgb(250, 239, 165); font-size: 19px;&quot;&gt;to&lt;/span&gt;&lt;span style=&quot;color: rgb(225, 239, 255); font-size: 19px;&quot;&gt; step &lt;/span&gt;&lt;span style=&quot;color: rgb(255, 98, 140); font-size: 19px;&quot;&gt;7&lt;/span&gt;&lt;/div&gt;&lt;div style=&quot;color: rgb(255, 255, 255); white-space: pre; font-size: 19px;&quot;&gt;&lt;span style=&quot;color: rgb(225, 239, 255); font-size: 19px;&quot;&gt;Step &lt;/span&gt;&lt;span style=&quot;color: rgb(255, 98, 140); font-size: 19px;&quot;&gt;3&lt;/span&gt;&lt;span style=&quot;color: rgb(225, 239, 255); font-size: 19px;&quot;&gt;: &lt;/span&gt;&lt;span style=&quot;color: rgb(250, 239, 165); font-size: 19px;&quot;&gt;if&lt;/span&gt;&lt;span style=&quot;color: rgb(225, 239, 255); font-size: 19px;&quot;&gt; A[ i ] &lt;/span&gt;&lt;span style=&quot;color: rgb(255, 157, 0); font-size: 19px;&quot;&gt;=&lt;/span&gt;&lt;span style=&quot;color: rgb(225, 239, 255); font-size: 19px;&quot;&gt; x &lt;/span&gt;&lt;span style=&quot;color: rgb(250, 239, 165); font-size: 19px;&quot;&gt;then&lt;/span&gt;&lt;span style=&quot;color: rgb(225, 239, 255); font-size: 19px;&quot;&gt; &lt;/span&gt;&lt;span style=&quot;color: rgb(250, 239, 165); font-size: 19px;&quot;&gt;go&lt;/span&gt;&lt;span style=&quot;color: rgb(225, 239, 255); font-size: 19px;&quot;&gt; &lt;/span&gt;&lt;span style=&quot;color: rgb(250, 239, 165); font-size: 19px;&quot;&gt;to&lt;/span&gt;&lt;span style=&quot;color: rgb(225, 239, 255); font-size: 19px;&quot;&gt; step &lt;/span&gt;&lt;span style=&quot;color: rgb(255, 98, 140); font-size: 19px;&quot;&gt;6&lt;/span&gt;&lt;/div&gt;&lt;div style=&quot;color: rgb(255, 255, 255); white-space: pre; font-size: 19px;&quot;&gt;&lt;span style=&quot;color: rgb(225, 239, 255); font-size: 19px;&quot;&gt;Step &lt;/span&gt;&lt;span style=&quot;color: rgb(255, 98, 140); font-size: 19px;&quot;&gt;4&lt;/span&gt;&lt;span style=&quot;color: rgb(225, 239, 255); font-size: 19px;&quot;&gt;: &lt;/span&gt;&lt;span style=&quot;color: rgb(255, 157, 0); font-size: 19px;&quot;&gt;Set&lt;/span&gt;&lt;span style=&quot;color: rgb(225, 239, 255); font-size: 19px;&quot;&gt; i &lt;/span&gt;&lt;span style=&quot;color: rgb(250, 239, 165); font-size: 19px;&quot;&gt;to&lt;/span&gt;&lt;span style=&quot;color: rgb(225, 239, 255); font-size: 19px;&quot;&gt; i &lt;/span&gt;&lt;span style=&quot;color: rgb(255, 157, 0); font-size: 19px;&quot;&gt;+&lt;/span&gt;&lt;span style=&quot;color: rgb(225, 239, 255); font-size: 19px;&quot;&gt; &lt;/span&gt;&lt;span style=&quot;color: rgb(255, 98, 140); font-size: 19px;&quot;&gt;1&lt;/span&gt;&lt;/div&gt;&lt;div style=&quot;color: rgb(255, 255, 255); white-space: pre; font-size: 19px;&quot;&gt;&lt;span style=&quot;color: rgb(225, 239, 255); font-size: 19px;&quot;&gt;Step &lt;/span&gt;&lt;span style=&quot;color: rgb(255, 98, 140); font-size: 19px;&quot;&gt;5&lt;/span&gt;&lt;span style=&quot;color: rgb(225, 239, 255); font-size: 19px;&quot;&gt;: &lt;/span&gt;&lt;span style=&quot;color: rgb(250, 239, 165); font-size: 19px;&quot;&gt;Go&lt;/span&gt;&lt;span style=&quot;color: rgb(225, 239, 255); font-size: 19px;&quot;&gt; &lt;/span&gt;&lt;span style=&quot;color: rgb(250, 239, 165); font-size: 19px;&quot;&gt;to&lt;/span&gt;&lt;span style=&quot;color: rgb(225, 239, 255); font-size: 19px;&quot;&gt; Step &lt;/span&gt;&lt;span style=&quot;color: rgb(255, 98, 140); font-size: 19px;&quot;&gt;2&lt;/span&gt;&lt;/div&gt;&lt;div style=&quot;color: rgb(255, 255, 255); white-space: pre; font-size: 19px;&quot;&gt;&lt;span style=&quot;color: rgb(225, 239, 255); font-size: 19px;&quot;&gt;Step &lt;/span&gt;&lt;span style=&quot;color: rgb(255, 98, 140); font-size: 19px;&quot;&gt;6&lt;/span&gt;&lt;span style=&quot;color: rgb(225, 239, 255); font-size: 19px;&quot;&gt;: &lt;/span&gt;&lt;span style=&quot;color: rgb(250, 239, 165); font-size: 19px;&quot;&gt;Print&lt;/span&gt;&lt;span style=&quot;color: rgb(225, 239, 255); font-size: 19px;&quot;&gt; Element x Found &lt;/span&gt;&lt;span style=&quot;color: rgb(250, 239, 165); font-size: 19px;&quot;&gt;at&lt;/span&gt;&lt;span style=&quot;color: rgb(225, 239, 255); font-size: 19px;&quot;&gt; &lt;/span&gt;&lt;span style=&quot;color: rgb(250, 239, 165); font-size: 19px;&quot;&gt;index&lt;/span&gt;&lt;span style=&quot;color: rgb(225, 239, 255); font-size: 19px;&quot;&gt; i &lt;/span&gt;&lt;span style=&quot;color: rgb(255, 157, 0); font-size: 19px;&quot;&gt;and&lt;/span&gt;&lt;span style=&quot;color: rgb(225, 239, 255); font-size: 19px;&quot;&gt; &lt;/span&gt;&lt;span style=&quot;color: rgb(250, 239, 165); font-size: 19px;&quot;&gt;go&lt;/span&gt;&lt;span style=&quot;color: rgb(225, 239, 255); font-size: 19px;&quot;&gt; &lt;/span&gt;&lt;span style=&quot;color: rgb(250, 239, 165); font-size: 19px;&quot;&gt;to&lt;/span&gt;&lt;span style=&quot;color: rgb(225, 239, 255); font-size: 19px;&quot;&gt; step &lt;/span&gt;&lt;span style=&quot;color: rgb(255, 98, 140); font-size: 19px;&quot;&gt;8&lt;/span&gt;&lt;/div&gt;&lt;div style=&quot;color: rgb(255, 255, 255); white-space: pre; font-size: 19px;&quot;&gt;&lt;span style=&quot;color: rgb(225, 239, 255); font-size: 19px;&quot;&gt;Step &lt;/span&gt;&lt;span style=&quot;color: rgb(255, 98, 140); font-size: 19px;&quot;&gt;7&lt;/span&gt;&lt;span style=&quot;color: rgb(225, 239, 255); font-size: 19px;&quot;&gt;: &lt;/span&gt;&lt;span style=&quot;color: rgb(250, 239, 165); font-size: 19px;&quot;&gt;Print&lt;/span&gt;&lt;span style=&quot;color: rgb(225, 239, 255); font-size: 19px;&quot;&gt; element &lt;/span&gt;&lt;span style=&quot;color: rgb(250, 239, 165); font-size: 19px;&quot;&gt;not&lt;/span&gt;&lt;span style=&quot;color: rgb(225, 239, 255); font-size: 19px;&quot;&gt; found&lt;/span&gt;&lt;/div&gt;&lt;div style=&quot;color: rgb(255, 255, 255); white-space: pre; font-size: 19px;&quot;&gt;&lt;span style=&quot;color: rgb(225, 239, 255); font-size: 19px;&quot;&gt;Step &lt;/span&gt;&lt;span style=&quot;color: rgb(255, 98, 140); font-size: 19px;&quot;&gt;8&lt;/span&gt;&lt;span style=&quot;color: rgb(225, 239, 255); font-size: 19px;&quot;&gt;: Exit&lt;/span&gt;&lt;/div&gt;" style="rounded=1;whiteSpace=wrap;html=1;arcSize=13;strokeWidth=2;fillColor=#333333;strokeColor=none;align=left;verticalAlign=top;spacing=15;spacingTop=31;fontSize=19;fontFamily=Mina;fontStyle=0;" vertex="1" parent="lIgfKyH6TXQouxF_7BQu-18">
          <mxGeometry width="530" height="270" as="geometry" />
        </mxCell>
        <mxCell id="lIgfKyH6TXQouxF_7BQu-4" value="" style="group" vertex="1" connectable="0" parent="lIgfKyH6TXQouxF_7BQu-18">
          <mxGeometry x="13" y="20.80000000000001" width="72" height="22.88" as="geometry" />
        </mxCell>
        <mxCell id="lIgfKyH6TXQouxF_7BQu-5" value="&amp;nbsp; &amp;nbsp; &amp;nbsp; &amp;nbsp; &amp;nbsp; &amp;nbsp; &amp;nbsp; " style="strokeWidth=2;html=1;shape=mxgraph.flowchart.start_2;whiteSpace=wrap;fillColor=#ff5f56;strokeColor=none;" vertex="1" parent="lIgfKyH6TXQouxF_7BQu-4">
          <mxGeometry x="2" y="2.0799999999999996" width="16" height="16.639999999999997" as="geometry" />
        </mxCell>
        <mxCell id="lIgfKyH6TXQouxF_7BQu-6" value="&amp;nbsp; &amp;nbsp; &amp;nbsp; &amp;nbsp; &amp;nbsp; &amp;nbsp; &amp;nbsp; " style="strokeWidth=2;html=1;shape=mxgraph.flowchart.start_2;whiteSpace=wrap;fillColor=#ffbd2e;strokeColor=none;" vertex="1" parent="lIgfKyH6TXQouxF_7BQu-4">
          <mxGeometry x="27" y="2.0799999999999996" width="16" height="16.639999999999997" as="geometry" />
        </mxCell>
        <mxCell id="lIgfKyH6TXQouxF_7BQu-7" value="&amp;nbsp; &amp;nbsp; &amp;nbsp; &amp;nbsp; &amp;nbsp; &amp;nbsp; &amp;nbsp; " style="strokeWidth=2;html=1;shape=mxgraph.flowchart.start_2;whiteSpace=wrap;fillColor=#1fa831;strokeColor=none;" vertex="1" parent="lIgfKyH6TXQouxF_7BQu-4">
          <mxGeometry x="52" y="2.0799999999999996" width="16" height="16.639999999999997" as="geometry" />
        </mxCell>
        <mxCell id="lIgfKyH6TXQouxF_7BQu-33" value="" style="group" vertex="1" connectable="0" parent="1">
          <mxGeometry x="154" y="830" width="520" height="230" as="geometry" />
        </mxCell>
        <mxCell id="lIgfKyH6TXQouxF_7BQu-20" value="&lt;div style=&quot;color: rgb(255, 255, 255); white-space: pre; font-size: 19px;&quot;&gt;&lt;div style=&quot;font-size: 19px; line-height: 120%;&quot;&gt;&lt;div style=&quot;font-size: 19px; line-height: 120%;&quot;&gt;Procedure &lt;span style=&quot;color: rgb(250, 208, 0); font-size: 19px;&quot;&gt;linear_search &lt;/span&gt;&lt;span style=&quot;color: rgb(225, 239, 255); font-size: 19px;&quot;&gt;(&lt;/span&gt;&lt;span style=&quot;color: rgb(128, 255, 187); font-size: 19px;&quot;&gt;list&lt;/span&gt;&lt;span style=&quot;color: rgb(225, 239, 255); font-size: 19px;&quot;&gt;,&lt;/span&gt;&lt;span style=&quot;color: rgb(158, 255, 255); font-size: 19px;&quot;&gt; value&lt;/span&gt;&lt;span style=&quot;color: rgb(225, 239, 255); font-size: 19px;&quot;&gt;)&lt;/span&gt;&lt;/div&gt;&lt;div style=&quot;font-size: 19px; line-height: 120%;&quot;&gt;&amp;nbsp; &amp;nbsp; &lt;span style=&quot;color: rgb(255, 157, 0); font-size: 19px;&quot;&gt;for &lt;/span&gt;each item &lt;span style=&quot;color: rgb(255, 157, 0); font-size: 19px;&quot;&gt;in&lt;/span&gt; the &lt;span style=&quot;color: rgb(128, 255, 187); font-size: 19px;&quot;&gt;list&lt;/span&gt;&lt;/div&gt;&lt;div style=&quot;font-size: 19px; line-height: 120%;&quot;&gt;&amp;nbsp; &amp;nbsp; &amp;nbsp; &amp;nbsp; &lt;span style=&quot;color: rgb(255, 157, 0); font-size: 19px;&quot;&gt;if&lt;/span&gt; match item &lt;span style=&quot;color: rgb(255, 157, 0); font-size: 19px;&quot;&gt;==&lt;/span&gt; value&lt;/div&gt;&lt;div style=&quot;font-size: 19px; line-height: 120%;&quot;&gt;&amp;nbsp; &amp;nbsp; &amp;nbsp; &amp;nbsp; &amp;nbsp; &amp;nbsp; &lt;span style=&quot;color: rgb(255, 157, 0); font-size: 19px;&quot;&gt;return&lt;/span&gt; the item &#39;s location&lt;/div&gt;&lt;div style=&quot;font-size: 19px; line-height: 120%;&quot;&gt;&amp;nbsp; &amp;nbsp; &lt;span style=&quot;white-space: pre; font-size: 19px;&quot;&gt;&#x9;&lt;/span&gt;end &lt;span style=&quot;color: rgb(255, 157, 0); font-size: 19px;&quot;&gt;if&lt;/span&gt;&lt;/div&gt;&lt;div style=&quot;font-size: 19px; line-height: 120%;&quot;&gt;&amp;nbsp; &amp;nbsp; end &lt;span style=&quot;color: rgb(255, 157, 0); font-size: 19px;&quot;&gt;for&lt;/span&gt;&lt;/div&gt;&lt;div style=&quot;font-size: 19px; line-height: 120%;&quot;&gt;end Procedure&lt;/div&gt;&lt;/div&gt;&lt;/div&gt;" style="rounded=1;whiteSpace=wrap;html=1;arcSize=13;strokeWidth=2;fillColor=#191830;strokeColor=none;align=left;verticalAlign=top;spacing=15;spacingTop=31;fontSize=19;fontFamily=Mina;fontStyle=0;labelBackgroundColor=none;" vertex="1" parent="lIgfKyH6TXQouxF_7BQu-33">
          <mxGeometry width="520" height="230" as="geometry" />
        </mxCell>
        <mxCell id="lIgfKyH6TXQouxF_7BQu-21" value="" style="group" vertex="1" connectable="0" parent="lIgfKyH6TXQouxF_7BQu-33">
          <mxGeometry x="13" y="20.799999999999955" width="72" height="22.88" as="geometry" />
        </mxCell>
        <mxCell id="lIgfKyH6TXQouxF_7BQu-22" value="&amp;nbsp; &amp;nbsp; &amp;nbsp; &amp;nbsp; &amp;nbsp; &amp;nbsp; &amp;nbsp; " style="strokeWidth=2;html=1;shape=mxgraph.flowchart.start_2;whiteSpace=wrap;fillColor=#ff5f56;strokeColor=none;" vertex="1" parent="lIgfKyH6TXQouxF_7BQu-21">
          <mxGeometry x="2" y="2.0799999999999996" width="16" height="16.639999999999997" as="geometry" />
        </mxCell>
        <mxCell id="lIgfKyH6TXQouxF_7BQu-23" value="&amp;nbsp; &amp;nbsp; &amp;nbsp; &amp;nbsp; &amp;nbsp; &amp;nbsp; &amp;nbsp; " style="strokeWidth=2;html=1;shape=mxgraph.flowchart.start_2;whiteSpace=wrap;fillColor=#ffbd2e;strokeColor=none;" vertex="1" parent="lIgfKyH6TXQouxF_7BQu-21">
          <mxGeometry x="27" y="2.0799999999999996" width="16" height="16.639999999999997" as="geometry" />
        </mxCell>
        <mxCell id="lIgfKyH6TXQouxF_7BQu-24" value="&amp;nbsp; &amp;nbsp; &amp;nbsp; &amp;nbsp; &amp;nbsp; &amp;nbsp; &amp;nbsp; " style="strokeWidth=2;html=1;shape=mxgraph.flowchart.start_2;whiteSpace=wrap;fillColor=#1fa831;strokeColor=none;" vertex="1" parent="lIgfKyH6TXQouxF_7BQu-21">
          <mxGeometry x="52" y="2.0799999999999996" width="16" height="16.639999999999997" as="geometry" />
        </mxCell>
        <mxCell id="lIgfKyH6TXQouxF_7BQu-34" value="" style="group" vertex="1" connectable="0" parent="1">
          <mxGeometry x="18" y="1370" width="791" height="180" as="geometry" />
        </mxCell>
        <mxCell id="lIgfKyH6TXQouxF_7BQu-27" value="&lt;div style=&quot;color: rgb(255, 255, 255); white-space: pre; font-size: 19px;&quot;&gt;&lt;div style=&quot;font-size: 19px; line-height: 120%;&quot;&gt;&lt;div style=&quot;font-size: 19px; line-height: 120%;&quot;&gt;&lt;span style=&quot;color: rgb(225, 239, 255); font-size: 19px;&quot;&gt;Step &lt;/span&gt;&lt;span style=&quot;color: rgb(255, 98, 140); font-size: 19px;&quot;&gt;1&lt;/span&gt;&lt;span style=&quot;color: rgb(225, 239, 255); font-size: 19px;&quot;&gt; : Find the middle element of &lt;/span&gt;&lt;span style=&quot;color: rgb(250, 239, 165); font-size: 19px;&quot;&gt;array&lt;/span&gt;&lt;span style=&quot;color: rgb(225, 239, 255); font-size: 19px;&quot;&gt;. &lt;/span&gt;&lt;span style=&quot;color: rgb(250, 239, 165); font-size: 19px;&quot;&gt;using&lt;/span&gt;&lt;span style=&quot;color: rgb(225, 239, 255); font-size: 19px;&quot;&gt; ,middle &lt;/span&gt;&lt;span style=&quot;color: rgb(255, 157, 0); font-size: 19px;&quot;&gt;=&lt;/span&gt;&lt;span style=&quot;color: rgb(225, 239, 255); font-size: 19px;&quot;&gt; initial_value &lt;/span&gt;&lt;span style=&quot;color: rgb(255, 157, 0); font-size: 19px;&quot;&gt;+&lt;/span&gt;&lt;span style=&quot;color: rgb(225, 239, 255); font-size: 19px;&quot;&gt;end_value &lt;/span&gt;&lt;span style=&quot;color: rgb(255, 157, 0); font-size: 19px;&quot;&gt;/&lt;/span&gt;&lt;span style=&quot;color: rgb(225, 239, 255); font-size: 19px;&quot;&gt; &lt;/span&gt;&lt;span style=&quot;color: rgb(255, 98, 140); font-size: 19px;&quot;&gt;2&lt;/span&gt;&lt;span style=&quot;color: rgb(225, 239, 255); font-size: 19px;&quot;&gt; .&lt;/span&gt;&lt;/div&gt;&lt;div style=&quot;font-size: 19px; line-height: 120%;&quot;&gt;&lt;span style=&quot;color: rgb(225, 239, 255); font-size: 19px;&quot;&gt;Step &lt;/span&gt;&lt;span style=&quot;color: rgb(255, 98, 140); font-size: 19px;&quot;&gt;2&lt;/span&gt;&lt;span style=&quot;color: rgb(225, 239, 255); font-size: 19px;&quot;&gt; : &lt;/span&gt;&lt;span style=&quot;color: rgb(250, 239, 165); font-size: 19px;&quot;&gt;If&lt;/span&gt;&lt;span style=&quot;color: rgb(225, 239, 255); font-size: 19px;&quot;&gt; middle &lt;/span&gt;&lt;span style=&quot;color: rgb(255, 157, 0); font-size: 19px;&quot;&gt;=&lt;/span&gt;&lt;span style=&quot;color: rgb(225, 239, 255); font-size: 19px;&quot;&gt; element, &lt;/span&gt;&lt;span style=&quot;color: rgb(250, 239, 165); font-size: 19px;&quot;&gt;return&lt;/span&gt;&lt;span style=&quot;color: rgb(225, 239, 255); font-size: 19px;&quot;&gt; &lt;/span&gt;&lt;span style=&quot;color: rgb(146, 252, 121); font-size: 19px;&quot;&gt;&quot;&lt;/span&gt;&lt;span style=&quot;color: rgb(165, 255, 144); font-size: 19px;&quot;&gt;element found&lt;/span&gt;&lt;span style=&quot;color: rgb(146, 252, 121); font-size: 19px;&quot;&gt;&quot;&lt;/span&gt;&lt;span style=&quot;color: rgb(225, 239, 255); font-size: 19px;&quot;&gt; &lt;/span&gt;&lt;span style=&quot;color: rgb(255, 157, 0); font-size: 19px;&quot;&gt;and&lt;/span&gt;&lt;span style=&quot;color: rgb(225, 239, 255); font-size: 19px;&quot;&gt; &lt;/span&gt;&lt;span style=&quot;color: rgb(250, 239, 165); font-size: 19px;&quot;&gt;index&lt;/span&gt;&lt;span style=&quot;color: rgb(225, 239, 255); font-size: 19px;&quot;&gt;.&lt;/span&gt;&lt;/div&gt;&lt;div style=&quot;font-size: 19px; line-height: 120%;&quot;&gt;&lt;span style=&quot;color: rgb(225, 239, 255); font-size: 19px;&quot;&gt;Step &lt;/span&gt;&lt;span style=&quot;color: rgb(255, 98, 140); font-size: 19px;&quot;&gt;3&lt;/span&gt;&lt;span style=&quot;color: rgb(225, 239, 255); font-size: 19px;&quot;&gt; : &lt;/span&gt;&lt;span style=&quot;color: rgb(250, 239, 165); font-size: 19px;&quot;&gt;if&lt;/span&gt;&lt;span style=&quot;color: rgb(225, 239, 255); font-size: 19px;&quot;&gt; middle &lt;/span&gt;&lt;span style=&quot;color: rgb(255, 157, 0); font-size: 19px;&quot;&gt;&amp;gt;&lt;/span&gt;&lt;span style=&quot;color: rgb(225, 239, 255); font-size: 19px;&quot;&gt; element, &lt;/span&gt;&lt;span style=&quot;color: rgb(250, 239, 165); font-size: 19px;&quot;&gt;call&lt;/span&gt;&lt;span style=&quot;color: rgb(225, 239, 255); font-size: 19px;&quot;&gt; the &lt;/span&gt;&lt;span style=&quot;color: rgb(250, 239, 165); font-size: 19px;&quot;&gt;function&lt;/span&gt;&lt;span style=&quot;color: rgb(225, 239, 255); font-size: 19px;&quot;&gt; &lt;/span&gt;&lt;span style=&quot;color: rgb(250, 239, 165); font-size: 19px;&quot;&gt;with&lt;/span&gt;&lt;span style=&quot;color: rgb(225, 239, 255); font-size: 19px;&quot;&gt; end_value &lt;/span&gt;&lt;span style=&quot;color: rgb(255, 157, 0); font-size: 19px;&quot;&gt;=&lt;/span&gt;&lt;span style=&quot;color: rgb(225, 239, 255); font-size: 19px;&quot;&gt; middle &lt;/span&gt;&lt;span style=&quot;color: rgb(255, 157, 0); font-size: 19px;&quot;&gt;-&lt;/span&gt;&lt;span style=&quot;color: rgb(225, 239, 255); font-size: 19px;&quot;&gt; &lt;/span&gt;&lt;span style=&quot;color: rgb(255, 98, 140); font-size: 19px;&quot;&gt;1&lt;/span&gt;&lt;span style=&quot;color: rgb(225, 239, 255); font-size: 19px;&quot;&gt; .&lt;/span&gt;&lt;/div&gt;&lt;div style=&quot;font-size: 19px; line-height: 120%;&quot;&gt;&lt;span style=&quot;color: rgb(225, 239, 255); font-size: 19px;&quot;&gt;Step &lt;/span&gt;&lt;span style=&quot;color: rgb(255, 98, 140); font-size: 19px;&quot;&gt;4&lt;/span&gt;&lt;span style=&quot;color: rgb(225, 239, 255); font-size: 19px;&quot;&gt; : &lt;/span&gt;&lt;span style=&quot;color: rgb(250, 239, 165); font-size: 19px;&quot;&gt;if&lt;/span&gt;&lt;span style=&quot;color: rgb(225, 239, 255); font-size: 19px;&quot;&gt; middle &lt;/span&gt;&lt;span style=&quot;color: rgb(255, 157, 0); font-size: 19px;&quot;&gt;&amp;lt;&lt;/span&gt;&lt;span style=&quot;color: rgb(225, 239, 255); font-size: 19px;&quot;&gt; element, &lt;/span&gt;&lt;span style=&quot;color: rgb(250, 239, 165); font-size: 19px;&quot;&gt;call&lt;/span&gt;&lt;span style=&quot;color: rgb(225, 239, 255); font-size: 19px;&quot;&gt; the &lt;/span&gt;&lt;span style=&quot;color: rgb(250, 239, 165); font-size: 19px;&quot;&gt;function&lt;/span&gt;&lt;span style=&quot;color: rgb(225, 239, 255); font-size: 19px;&quot;&gt; &lt;/span&gt;&lt;span style=&quot;color: rgb(250, 239, 165); font-size: 19px;&quot;&gt;with&lt;/span&gt;&lt;span style=&quot;color: rgb(225, 239, 255); font-size: 19px;&quot;&gt; start_value &lt;/span&gt;&lt;span style=&quot;color: rgb(255, 157, 0); font-size: 19px;&quot;&gt;=&lt;/span&gt;&lt;span style=&quot;color: rgb(225, 239, 255); font-size: 19px;&quot;&gt; middle &lt;/span&gt;&lt;span style=&quot;color: rgb(255, 157, 0); font-size: 19px;&quot;&gt;+&lt;/span&gt;&lt;span style=&quot;color: rgb(225, 239, 255); font-size: 19px;&quot;&gt; &lt;/span&gt;&lt;span style=&quot;color: rgb(255, 98, 140); font-size: 19px;&quot;&gt;1&lt;/span&gt;&lt;span style=&quot;color: rgb(225, 239, 255); font-size: 19px;&quot;&gt; .&lt;/span&gt;&lt;/div&gt;&lt;div style=&quot;font-size: 19px; line-height: 120%;&quot;&gt;&lt;span style=&quot;color: rgb(225, 239, 255); font-size: 19px;&quot;&gt;Step &lt;/span&gt;&lt;span style=&quot;color: rgb(255, 98, 140); font-size: 19px;&quot;&gt;5&lt;/span&gt;&lt;span style=&quot;color: rgb(225, 239, 255); font-size: 19px;&quot;&gt; : exit.&lt;/span&gt;&lt;/div&gt;&lt;/div&gt;&lt;/div&gt;" style="rounded=1;whiteSpace=wrap;html=1;arcSize=13;strokeWidth=2;fillColor=#333333;strokeColor=none;align=left;verticalAlign=top;spacing=15;spacingTop=31;fontSize=19;fontFamily=Mina;fontStyle=0;labelBackgroundColor=none;" vertex="1" parent="lIgfKyH6TXQouxF_7BQu-34">
          <mxGeometry x="1" width="790" height="180" as="geometry" />
        </mxCell>
        <mxCell id="lIgfKyH6TXQouxF_7BQu-28" value="" style="group" vertex="1" connectable="0" parent="lIgfKyH6TXQouxF_7BQu-34">
          <mxGeometry x="13" y="20.799999999999955" width="72" height="22.88" as="geometry" />
        </mxCell>
        <mxCell id="lIgfKyH6TXQouxF_7BQu-29" value="&amp;nbsp; &amp;nbsp; &amp;nbsp; &amp;nbsp; &amp;nbsp; &amp;nbsp; &amp;nbsp; " style="strokeWidth=2;html=1;shape=mxgraph.flowchart.start_2;whiteSpace=wrap;fillColor=#ff5f56;strokeColor=none;" vertex="1" parent="lIgfKyH6TXQouxF_7BQu-28">
          <mxGeometry x="2" y="2.0799999999999996" width="16" height="16.639999999999997" as="geometry" />
        </mxCell>
        <mxCell id="lIgfKyH6TXQouxF_7BQu-30" value="&amp;nbsp; &amp;nbsp; &amp;nbsp; &amp;nbsp; &amp;nbsp; &amp;nbsp; &amp;nbsp; " style="strokeWidth=2;html=1;shape=mxgraph.flowchart.start_2;whiteSpace=wrap;fillColor=#ffbd2e;strokeColor=none;" vertex="1" parent="lIgfKyH6TXQouxF_7BQu-28">
          <mxGeometry x="27" y="2.0799999999999996" width="16" height="16.639999999999997" as="geometry" />
        </mxCell>
        <mxCell id="lIgfKyH6TXQouxF_7BQu-31" value="&amp;nbsp; &amp;nbsp; &amp;nbsp; &amp;nbsp; &amp;nbsp; &amp;nbsp; &amp;nbsp; " style="strokeWidth=2;html=1;shape=mxgraph.flowchart.start_2;whiteSpace=wrap;fillColor=#1fa831;strokeColor=none;" vertex="1" parent="lIgfKyH6TXQouxF_7BQu-28">
          <mxGeometry x="52" y="2.0799999999999996" width="16" height="16.639999999999997" as="geometry" />
        </mxCell>
        <mxCell id="lIgfKyH6TXQouxF_7BQu-35" value="" style="group;labelBackgroundColor=none;" vertex="1" connectable="0" parent="1">
          <mxGeometry x="79" y="1754" width="670" height="440" as="geometry" />
        </mxCell>
        <mxCell id="lIgfKyH6TXQouxF_7BQu-36" value="&lt;div style=&quot;color: rgb(255, 255, 255); white-space: pre; font-size: 19px;&quot;&gt;&lt;div style=&quot;font-size: 19px; line-height: 19px;&quot;&gt;&lt;div style=&quot;font-size: 19px;&quot;&gt;&lt;div style=&quot;font-size: 19px; line-height: 120%;&quot;&gt;&lt;div style=&quot;font-size: 19px; line-height: 120%;&quot;&gt;Procedure binary_search&lt;/div&gt;&lt;div style=&quot;font-size: 19px; line-height: 120%;&quot;&gt;&amp;nbsp; &amp;nbsp; A ← &lt;span style=&quot;color: rgb(250, 208, 0); font-size: 19px;&quot;&gt;sorted&lt;/span&gt; array&lt;/div&gt;&lt;div style=&quot;font-size: 19px; line-height: 120%;&quot;&gt;&amp;nbsp; &amp;nbsp; n ← size of array&lt;/div&gt;&lt;div style=&quot;font-size: 19px; line-height: 120%;&quot;&gt;&amp;nbsp; &amp;nbsp; x ← value to be searched&lt;/div&gt;&lt;div style=&quot;font-size: 19px; line-height: 120%;&quot;&gt;&amp;nbsp; &amp;nbsp; lowerBound ← &lt;span style=&quot;color: rgb(255, 98, 140); font-size: 19px;&quot;&gt;0&lt;/span&gt;&lt;/div&gt;&lt;div style=&quot;font-size: 19px; line-height: 120%;&quot;&gt;&amp;nbsp; &amp;nbsp; upperBound ← n &lt;span style=&quot;color: rgb(255, 157, 0); font-size: 19px;&quot;&gt;-&lt;/span&gt; &lt;span style=&quot;color: rgb(255, 98, 140); font-size: 19px;&quot;&gt;1&lt;/span&gt;&lt;/div&gt;&lt;div style=&quot;font-size: 19px; line-height: 120%;&quot;&gt;&amp;nbsp; &amp;nbsp; &lt;span style=&quot;color: rgb(255, 157, 0); font-size: 19px;&quot;&gt;while&lt;/span&gt; lowerBound &lt;span style=&quot;color: rgb(255, 157, 0); font-size: 19px;&quot;&gt;&amp;lt;=&lt;/span&gt; upperBound&lt;/div&gt;&lt;div style=&quot;font-size: 19px; line-height: 120%;&quot;&gt;&amp;nbsp; &amp;nbsp; &amp;nbsp; &amp;nbsp; midPoint ← lowerBound &lt;span style=&quot;color: rgb(255, 157, 0); font-size: 19px;&quot;&gt;+&lt;/span&gt; &lt;span style=&quot;color: rgb(225, 239, 255); font-size: 19px;&quot;&gt;(&lt;/span&gt;upperBound &lt;span style=&quot;color: rgb(255, 157, 0); font-size: 19px;&quot;&gt;-&lt;/span&gt; lowerBound&lt;span style=&quot;color: rgb(225, 239, 255); font-size: 19px;&quot;&gt;)&lt;/span&gt; &lt;span style=&quot;color: rgb(255, 157, 0); font-size: 19px;&quot;&gt;/&lt;/span&gt; &lt;span style=&quot;color: rgb(255, 98, 140); font-size: 19px;&quot;&gt;2&lt;/span&gt;&lt;/div&gt;&lt;div style=&quot;font-size: 19px; line-height: 120%;&quot;&gt;&amp;nbsp; &amp;nbsp; &amp;nbsp; &amp;nbsp; &lt;span style=&quot;color: rgb(255, 157, 0); font-size: 19px;&quot;&gt;if&lt;/span&gt; &lt;span style=&quot;color: rgb(158, 255, 255); font-size: 19px;&quot;&gt;A&lt;/span&gt;&lt;span style=&quot;color: rgb(225, 239, 255); font-size: 19px;&quot;&gt;[&lt;/span&gt;&lt;span style=&quot;color: rgb(158, 255, 255); font-size: 19px;&quot;&gt;midPoint&lt;/span&gt;&lt;span style=&quot;color: rgb(225, 239, 255); font-size: 19px;&quot;&gt;]&lt;/span&gt; &lt;span style=&quot;color: rgb(255, 157, 0); font-size: 19px;&quot;&gt;&amp;lt;&lt;/span&gt; x&lt;/div&gt;&lt;div style=&quot;font-size: 19px; line-height: 120%;&quot;&gt;&amp;nbsp; &amp;nbsp; &amp;nbsp; &amp;nbsp; &amp;nbsp; &amp;nbsp; lowerBound ← midPoint &lt;span style=&quot;color: rgb(255, 157, 0); font-size: 19px;&quot;&gt;+&lt;/span&gt; &lt;span style=&quot;color: rgb(255, 98, 140); font-size: 19px;&quot;&gt;1&lt;/span&gt;&lt;/div&gt;&lt;div style=&quot;font-size: 19px; line-height: 120%;&quot;&gt;&amp;nbsp; &amp;nbsp; &amp;nbsp; &amp;nbsp; &lt;span style=&quot;color: rgb(255, 157, 0); font-size: 19px;&quot;&gt;else&lt;/span&gt; &lt;span style=&quot;color: rgb(255, 157, 0); font-size: 19px;&quot;&gt;if&lt;/span&gt; &lt;span style=&quot;color: rgb(158, 255, 255); font-size: 19px;&quot;&gt;A&lt;/span&gt;&lt;span style=&quot;color: rgb(225, 239, 255); font-size: 19px;&quot;&gt;[&lt;/span&gt;&lt;span style=&quot;color: rgb(158, 255, 255); font-size: 19px;&quot;&gt;midPoint&lt;/span&gt;&lt;span style=&quot;color: rgb(225, 239, 255); font-size: 19px;&quot;&gt;]&lt;/span&gt; &lt;span style=&quot;color: rgb(255, 157, 0); font-size: 19px;&quot;&gt;&amp;gt;&lt;/span&gt; x&lt;/div&gt;&lt;div style=&quot;font-size: 19px; line-height: 120%;&quot;&gt;&amp;nbsp; &amp;nbsp; &amp;nbsp; &amp;nbsp; &amp;nbsp; &amp;nbsp; upperBound ← midPoint &lt;span style=&quot;color: rgb(255, 157, 0); font-size: 19px;&quot;&gt;-&lt;/span&gt; &lt;span style=&quot;color: rgb(255, 98, 140); font-size: 19px;&quot;&gt;1&lt;/span&gt;&lt;/div&gt;&lt;div style=&quot;font-size: 19px; line-height: 120%;&quot;&gt;&amp;nbsp; &amp;nbsp; &amp;nbsp; &amp;nbsp; &lt;span style=&quot;color: rgb(255, 157, 0); font-size: 19px;&quot;&gt;else&lt;/span&gt;&lt;/div&gt;&lt;div style=&quot;font-size: 19px; line-height: 120%;&quot;&gt;&amp;nbsp; &amp;nbsp; &amp;nbsp; &amp;nbsp; &amp;nbsp; &amp;nbsp; &lt;span style=&quot;color: rgb(255, 98, 140); font-size: 19px;&quot;&gt;EXIT&lt;/span&gt;&lt;span style=&quot;color: rgb(225, 239, 255); font-size: 19px;&quot;&gt;:&lt;/span&gt; x found at location midPoint&lt;/div&gt;&lt;div style=&quot;font-size: 19px; line-height: 120%;&quot;&gt;&amp;nbsp; &amp;nbsp; &lt;span style=&quot;color: rgb(255, 98, 140); font-size: 19px;&quot;&gt;EXIT&lt;/span&gt;&lt;span style=&quot;color: rgb(225, 239, 255); font-size: 19px;&quot;&gt;:&lt;/span&gt; x does &lt;span style=&quot;color: rgb(255, 157, 0); font-size: 19px;&quot;&gt;not&lt;/span&gt; exist&lt;/div&gt;&lt;div style=&quot;font-size: 19px; line-height: 120%;&quot;&gt;end Procedure&lt;/div&gt;&lt;/div&gt;&lt;/div&gt;&lt;/div&gt;&lt;/div&gt;" style="rounded=1;whiteSpace=wrap;html=1;arcSize=9;strokeWidth=2;fillColor=#191830;strokeColor=none;align=left;verticalAlign=top;spacing=15;spacingTop=32;fontSize=19;fontFamily=Mina;fontStyle=0;labelBackgroundColor=none;" vertex="1" parent="lIgfKyH6TXQouxF_7BQu-35">
          <mxGeometry width="670" height="440" as="geometry" />
        </mxCell>
        <mxCell id="lIgfKyH6TXQouxF_7BQu-37" value="" style="group" vertex="1" connectable="0" parent="lIgfKyH6TXQouxF_7BQu-35">
          <mxGeometry x="13" y="20.799999999999955" width="72" height="22.88" as="geometry" />
        </mxCell>
        <mxCell id="lIgfKyH6TXQouxF_7BQu-38" value="&amp;nbsp; &amp;nbsp; &amp;nbsp; &amp;nbsp; &amp;nbsp; &amp;nbsp; &amp;nbsp; " style="strokeWidth=2;html=1;shape=mxgraph.flowchart.start_2;whiteSpace=wrap;fillColor=#ff5f56;strokeColor=none;" vertex="1" parent="lIgfKyH6TXQouxF_7BQu-37">
          <mxGeometry x="2" y="2.0799999999999996" width="16" height="16.639999999999997" as="geometry" />
        </mxCell>
        <mxCell id="lIgfKyH6TXQouxF_7BQu-39" value="&amp;nbsp; &amp;nbsp; &amp;nbsp; &amp;nbsp; &amp;nbsp; &amp;nbsp; &amp;nbsp; " style="strokeWidth=2;html=1;shape=mxgraph.flowchart.start_2;whiteSpace=wrap;fillColor=#ffbd2e;strokeColor=none;" vertex="1" parent="lIgfKyH6TXQouxF_7BQu-37">
          <mxGeometry x="27" y="2.0799999999999996" width="16" height="16.639999999999997" as="geometry" />
        </mxCell>
        <mxCell id="lIgfKyH6TXQouxF_7BQu-40" value="&amp;nbsp; &amp;nbsp; &amp;nbsp; &amp;nbsp; &amp;nbsp; &amp;nbsp; &amp;nbsp; " style="strokeWidth=2;html=1;shape=mxgraph.flowchart.start_2;whiteSpace=wrap;fillColor=#1fa831;strokeColor=none;" vertex="1" parent="lIgfKyH6TXQouxF_7BQu-37">
          <mxGeometry x="52" y="2.0799999999999996" width="16" height="16.639999999999997" as="geometry" />
        </mxCell>
        <mxCell id="lIgfKyH6TXQouxF_7BQu-50" value="" style="group;shadow=0;" vertex="1" connectable="0" parent="1">
          <mxGeometry x="64" y="2610" width="699" height="260" as="geometry" />
        </mxCell>
        <mxCell id="lIgfKyH6TXQouxF_7BQu-42" value="&lt;div style=&quot;white-space: pre; font-size: 19px;&quot;&gt;&lt;div style=&quot;font-size: 19px; line-height: 19px;&quot;&gt;&lt;div style=&quot;font-size: 19px;&quot;&gt;&lt;div style=&quot;font-size: 19px; line-height: 19px;&quot;&gt;&lt;div style=&quot;font-size: 19px;&quot;&gt;&lt;div style=&quot;line-height: 120%; font-size: 19px;&quot;&gt;&lt;div style=&quot;color: rgb(255, 255, 255); line-height: 120%; font-size: 19px;&quot;&gt;&lt;font style=&quot;font-size: 19px;&quot;&gt;begin Bubble&lt;span style=&quot;color: rgb(255, 157, 0); font-size: 19px;&quot;&gt;-&lt;/span&gt;Sort&lt;span style=&quot;color: rgb(225, 239, 255); font-size: 19px;&quot;&gt;(&lt;/span&gt;&lt;span style=&quot;color: rgb(158, 255, 255); font-size: 19px;&quot;&gt;List&lt;/span&gt;&lt;span style=&quot;color: rgb(225, 239, 255); font-size: 19px;&quot;&gt;)&lt;/span&gt;&lt;/font&gt;&lt;/div&gt;&lt;div style=&quot;color: rgb(255, 255, 255); line-height: 120%; font-size: 19px;&quot;&gt;&lt;font style=&quot;font-size: 19px;&quot;&gt;&amp;nbsp; &amp;nbsp; &lt;span style=&quot;color: rgb(255, 157, 0); font-size: 19px;&quot;&gt;for&lt;/span&gt; &lt;span style=&quot;color: rgb(250, 208, 0); font-size: 19px;&quot;&gt;all&lt;/span&gt; elements of &lt;/font&gt;&lt;span style=&quot;color: rgb(158, 255, 255); background-color: initial; font-size: 19px;&quot;&gt;List&lt;/span&gt;&lt;/div&gt;&lt;div style=&quot;line-height: 120%; font-size: 19px;&quot;&gt;&lt;font style=&quot;font-size: 19px;&quot;&gt;&lt;font style=&quot;font-size: 19px;&quot; color=&quot;#ffffff&quot;&gt;&amp;nbsp; &amp;nbsp; &amp;nbsp; &amp;nbsp; &lt;/font&gt;&lt;span style=&quot;color: rgb(255, 157, 0); font-size: 19px;&quot;&gt;if&lt;/span&gt;&lt;font style=&quot;font-size: 19px;&quot; color=&quot;#ffffff&quot;&gt; &lt;/font&gt;&lt;span style=&quot;color: rgb(158, 255, 255); font-size: 19px;&quot;&gt;List&lt;/span&gt;&lt;span style=&quot;color: rgb(225, 239, 255); font-size: 19px;&quot;&gt;[ &lt;/span&gt;&lt;span style=&quot;font-size: 19px;&quot;&gt;&lt;font style=&quot;font-size: 19px;&quot; color=&quot;#ff628c&quot;&gt;i &lt;/font&gt;&lt;/span&gt;&lt;span style=&quot;color: rgb(225, 239, 255); font-size: 19px;&quot;&gt;]&lt;/span&gt;&lt;font style=&quot;font-size: 19px;&quot; color=&quot;#ffffff&quot;&gt; &amp;gt; &lt;/font&gt;&lt;span style=&quot;color: rgb(158, 255, 255); font-size: 19px;&quot;&gt;List&lt;/span&gt;&lt;span style=&quot;color: rgb(225, 239, 255); font-size: 19px;&quot;&gt;[ &lt;/span&gt;&lt;font style=&quot;font-size: 19px;&quot; color=&quot;#ff628c&quot;&gt;i &lt;/font&gt;&lt;span style=&quot;color: rgb(255, 157, 0); font-size: 19px;&quot;&gt;+ &lt;/span&gt;&lt;span style=&quot;color: rgb(255, 98, 140); font-size: 19px;&quot;&gt;1 &lt;/span&gt;&lt;span style=&quot;color: rgb(225, 239, 255); font-size: 19px;&quot;&gt;]&lt;/span&gt;&lt;font style=&quot;font-size: 19px;&quot; color=&quot;#ffffff&quot;&gt; &lt;/font&gt;&lt;/font&gt;&lt;/div&gt;&lt;div style=&quot;line-height: 120%; font-size: 19px;&quot;&gt;&lt;font style=&quot;font-size: 19px;&quot;&gt;&lt;font style=&quot;font-size: 19px;&quot; color=&quot;#ffffff&quot;&gt;&amp;nbsp; &amp;nbsp; &amp;nbsp; &amp;nbsp; &amp;nbsp; &amp;nbsp; &lt;/font&gt;&lt;span style=&quot;color: rgb(250, 208, 0); font-size: 19px;&quot;&gt;Swap &lt;/span&gt;&lt;span style=&quot;color: rgb(225, 239, 255); font-size: 19px;&quot;&gt;(&lt;/span&gt;&lt;span style=&quot;color: rgb(158, 255, 255); font-size: 19px;&quot;&gt;List &lt;/span&gt;&lt;span style=&quot;color: rgb(225, 239, 255); font-size: 19px;&quot;&gt;[ &lt;/span&gt;&lt;span style=&quot;font-size: 19px;&quot;&gt;&lt;font style=&quot;font-size: 19px;&quot; color=&quot;#ff628c&quot;&gt;i &lt;/font&gt;&lt;/span&gt;&lt;span style=&quot;color: rgb(225, 239, 255); font-size: 19px;&quot;&gt;],&lt;/span&gt;&lt;span style=&quot;color: rgb(158, 255, 255); font-size: 19px;&quot;&gt; List&lt;/span&gt;&lt;span style=&quot;color: rgb(225, 239, 255); font-size: 19px;&quot;&gt;[ &lt;/span&gt;&lt;span style=&quot;color: rgb(255, 98, 140); font-size: 19px;&quot;&gt;i &lt;/span&gt;&lt;span style=&quot;color: rgb(255, 157, 0); font-size: 19px;&quot;&gt;+ &lt;/span&gt;&lt;span style=&quot;color: rgb(255, 98, 140); font-size: 19px;&quot;&gt;1 &lt;/span&gt;&lt;span style=&quot;color: rgb(225, 239, 255); font-size: 19px;&quot;&gt;])&lt;/span&gt;&lt;/font&gt;&lt;/div&gt;&lt;div style=&quot;color: rgb(255, 255, 255); line-height: 120%; font-size: 19px;&quot;&gt;&lt;font style=&quot;font-size: 19px;&quot;&gt;&amp;nbsp; &amp;nbsp; &amp;nbsp; &amp;nbsp; end &lt;span style=&quot;color: rgb(255, 157, 0); font-size: 19px;&quot;&gt;if&lt;/span&gt;&lt;/font&gt;&lt;/div&gt;&lt;div style=&quot;color: rgb(255, 255, 255); line-height: 120%; font-size: 19px;&quot;&gt;&lt;span style=&quot;background-color: initial; font-size: 19px;&quot;&gt;    end &lt;/span&gt;&lt;span style=&quot;background-color: initial; color: rgb(255, 157, 0); font-size: 19px;&quot;&gt;for&lt;/span&gt;&lt;/div&gt;&lt;div style=&quot;color: rgb(255, 255, 255); line-height: 120%; font-size: 19px;&quot;&gt;&lt;span style=&quot;background-color: initial; color: rgb(255, 157, 0); font-size: 19px;&quot;&gt;    return&lt;/span&gt;&lt;span style=&quot;background-color: initial; font-size: 19px;&quot;&gt; &lt;/span&gt;&lt;span style=&quot;color: rgb(158, 255, 255); background-color: initial; font-size: 19px;&quot;&gt;List&lt;/span&gt;&lt;/div&gt;&lt;div style=&quot;color: rgb(255, 255, 255); line-height: 120%; font-size: 19px;&quot;&gt;&lt;span style=&quot;background-color: initial; font-size: 19px;&quot;&gt;end Bubble&lt;/span&gt;&lt;span style=&quot;background-color: initial; color: rgb(255, 157, 0); font-size: 19px;&quot;&gt;-&lt;/span&gt;&lt;span style=&quot;background-color: initial; font-size: 19px;&quot;&gt;Sort&lt;/span&gt;&lt;/div&gt;&lt;/div&gt;&lt;/div&gt;&lt;/div&gt;&lt;/div&gt;&lt;/div&gt;&lt;/div&gt;" style="rounded=1;whiteSpace=wrap;html=1;arcSize=13;strokeWidth=2;fillColor=#333333;strokeColor=none;align=left;verticalAlign=top;spacing=15;spacingTop=31;fontSize=19;fontFamily=Mina;fontStyle=0;labelBackgroundColor=none;" vertex="1" parent="lIgfKyH6TXQouxF_7BQu-50">
          <mxGeometry width="699" height="260" as="geometry" />
        </mxCell>
        <mxCell id="lIgfKyH6TXQouxF_7BQu-43" value="" style="group" vertex="1" connectable="0" parent="lIgfKyH6TXQouxF_7BQu-50">
          <mxGeometry x="12" y="20.800000000000182" width="72" height="22.88" as="geometry" />
        </mxCell>
        <mxCell id="lIgfKyH6TXQouxF_7BQu-44" value="&amp;nbsp; &amp;nbsp; &amp;nbsp; &amp;nbsp; &amp;nbsp; &amp;nbsp; &amp;nbsp; " style="strokeWidth=2;html=1;shape=mxgraph.flowchart.start_2;whiteSpace=wrap;fillColor=#ff5f56;strokeColor=none;" vertex="1" parent="lIgfKyH6TXQouxF_7BQu-43">
          <mxGeometry x="2" y="2.0799999999999996" width="16" height="16.639999999999997" as="geometry" />
        </mxCell>
        <mxCell id="lIgfKyH6TXQouxF_7BQu-45" value="&amp;nbsp; &amp;nbsp; &amp;nbsp; &amp;nbsp; &amp;nbsp; &amp;nbsp; &amp;nbsp; " style="strokeWidth=2;html=1;shape=mxgraph.flowchart.start_2;whiteSpace=wrap;fillColor=#ffbd2e;strokeColor=none;" vertex="1" parent="lIgfKyH6TXQouxF_7BQu-43">
          <mxGeometry x="27" y="2.0799999999999996" width="16" height="16.639999999999997" as="geometry" />
        </mxCell>
        <mxCell id="lIgfKyH6TXQouxF_7BQu-46" value="&amp;nbsp; &amp;nbsp; &amp;nbsp; &amp;nbsp; &amp;nbsp; &amp;nbsp; &amp;nbsp; " style="strokeWidth=2;html=1;shape=mxgraph.flowchart.start_2;whiteSpace=wrap;fillColor=#1fa831;strokeColor=none;" vertex="1" parent="lIgfKyH6TXQouxF_7BQu-43">
          <mxGeometry x="52" y="2.0799999999999996" width="16" height="16.639999999999997" as="geometry" />
        </mxCell>
        <mxCell id="lIgfKyH6TXQouxF_7BQu-58" value="" style="group;fontFamily=Mina;" vertex="1" connectable="0" parent="1">
          <mxGeometry x="154" y="3090" width="520" height="320" as="geometry" />
        </mxCell>
        <mxCell id="lIgfKyH6TXQouxF_7BQu-52" value="&lt;div style=&quot;white-space: pre; font-size: 19px;&quot;&gt;&lt;div style=&quot;font-size: 19px; line-height: 19px;&quot;&gt;&lt;div style=&quot;font-size: 19px;&quot;&gt;&lt;div style=&quot;font-size: 19px; line-height: 19px;&quot;&gt;&lt;div style=&quot;font-size: 19px;&quot;&gt;&lt;div style=&quot;line-height: 120%; font-size: 19px;&quot;&gt;&lt;div style=&quot;color: rgb(255, 255, 255); line-height: 120%; font-size: 19px;&quot;&gt;&lt;div style=&quot;font-size: 19px; line-height: 120%;&quot;&gt;&lt;div style=&quot;font-size: 19px; line-height: 120%;&quot;&gt;&lt;font&gt;function &lt;span style=&quot;color: rgb(250, 208, 0); font-size: 19px;&quot;&gt;bubble_sort&lt;/span&gt;&lt;span style=&quot;color: rgb(225, 239, 255); font-size: 19px;&quot;&gt;(&lt;/span&gt;&lt;span style=&quot;color: rgb(158, 255, 255); font-size: 19px;&quot;&gt;array A&lt;/span&gt;&lt;span style=&quot;color: rgb(225, 239, 255); font-size: 19px;&quot;&gt;)&lt;/span&gt;&lt;/font&gt;&lt;/div&gt;&lt;div style=&quot;font-size: 19px; line-height: 120%;&quot;&gt;&lt;font&gt;&amp;nbsp; &amp;nbsp; n=&lt;span style=&quot;color: rgb(158, 255, 255); background-color: initial; font-size: 19px;&quot;&gt;A&lt;/span&gt;&lt;span style=&quot;background-color: initial; color: rgb(225, 239, 255); font-size: 19px;&quot;&gt;.&lt;/span&gt;&lt;span style=&quot;background-color: initial; color: rgb(158, 255, 255); font-size: 19px;&quot;&gt;Length&lt;/span&gt;&lt;/font&gt;&lt;/div&gt;&lt;div style=&quot;font-size: 19px; line-height: 120%;&quot;&gt;&lt;font&gt;&amp;nbsp; &amp;nbsp; &lt;span style=&quot;color: rgb(255, 157, 0); font-size: 19px;&quot;&gt;for&lt;/span&gt; i = &lt;span style=&quot;color: rgb(255, 98, 140); font-size: 19px;&quot;&gt;0&lt;/span&gt; to n&lt;span style=&quot;color: rgb(255, 157, 0); font-size: 19px;&quot;&gt;-&lt;/span&gt;&lt;span style=&quot;color: rgb(255, 98, 140); font-size: 19px;&quot;&gt;1&lt;/span&gt;&lt;/font&gt;&lt;/div&gt;&lt;div style=&quot;font-size: 19px; line-height: 120%;&quot;&gt;&lt;font&gt;&amp;nbsp; &amp;nbsp; &amp;nbsp; &amp;nbsp; &lt;span style=&quot;color: rgb(255, 157, 0); font-size: 19px;&quot;&gt;for&lt;/span&gt; &lt;span style=&quot;color: rgb(158, 255, 255); font-family: &amp;quot;JetBrains Mono&amp;quot;;&quot;&gt;j&lt;/span&gt; = &lt;span style=&quot;color: rgb(255, 98, 140); font-size: 19px;&quot;&gt;0&lt;/span&gt; to i&lt;/font&gt;&lt;/div&gt;&lt;div style=&quot;font-size: 19px; line-height: 120%;&quot;&gt;&lt;font&gt;&amp;nbsp; &amp;nbsp; &amp;nbsp; &amp;nbsp; &amp;nbsp; &amp;nbsp; &lt;span style=&quot;color: rgb(255, 157, 0); font-size: 19px;&quot;&gt;if&lt;/span&gt; &lt;span style=&quot;color: rgb(158, 255, 255); font-size: 19px;&quot;&gt;A&lt;/span&gt;&lt;span style=&quot;color: rgb(225, 239, 255); font-size: 19px;&quot;&gt;[&lt;/span&gt;&lt;span style=&quot;color: rgb(158, 255, 255); font-size: 19px;&quot;&gt; &lt;/span&gt;&lt;span style=&quot;color: rgb(158, 255, 255); font-family: &amp;quot;JetBrains Mono&amp;quot;;&quot;&gt;j&lt;/span&gt;&lt;span style=&quot;color: rgb(158, 255, 255); font-size: 19px;&quot;&gt; &lt;/span&gt;&lt;span style=&quot;color: rgb(225, 239, 255); font-size: 19px;&quot;&gt;]&lt;/span&gt; &lt;span style=&quot;color: rgb(255, 157, 0); font-size: 19px;&quot;&gt;&amp;gt;&lt;/span&gt; &lt;span style=&quot;color: rgb(158, 255, 255); font-size: 19px;&quot;&gt;A&lt;/span&gt;&lt;span style=&quot;color: rgb(225, 239, 255); font-size: 19px;&quot;&gt;[&lt;/span&gt;&lt;span style=&quot;color: rgb(158, 255, 255); font-size: 19px;&quot;&gt; &lt;/span&gt;&lt;span style=&quot;color: rgb(158, 255, 255); font-family: &amp;quot;JetBrains Mono&amp;quot;;&quot;&gt;j&lt;/span&gt;&lt;span style=&quot;color: rgb(158, 255, 255); font-size: 19px;&quot;&gt; &lt;/span&gt;&lt;span style=&quot;color: rgb(255, 157, 0); font-size: 19px;&quot;&gt;+&lt;/span&gt;&lt;span style=&quot;color: rgb(158, 255, 255); font-size: 19px;&quot;&gt; &lt;/span&gt;&lt;span style=&quot;color: rgb(255, 98, 140); font-size: 19px;&quot;&gt;1&lt;/span&gt;&lt;span style=&quot;color: rgb(158, 255, 255); font-size: 19px;&quot;&gt; &lt;/span&gt;&lt;span style=&quot;color: rgb(225, 239, 255); font-size: 19px;&quot;&gt;]&lt;/span&gt;&lt;/font&gt;&lt;/div&gt;&lt;div style=&quot;font-size: 19px; line-height: 120%;&quot;&gt;&lt;font&gt;&amp;nbsp; &amp;nbsp; &amp;nbsp; &amp;nbsp; &amp;nbsp; &amp;nbsp; &amp;nbsp; &amp;nbsp; &lt;span style=&quot;color: rgb(250, 208, 0); font-size: 19px;&quot;&gt;Swap &lt;/span&gt;&lt;span style=&quot;color: rgb(225, 239, 255); font-size: 19px;&quot;&gt;(&lt;/span&gt;&lt;span style=&quot;color: rgb(158, 255, 255); font-size: 19px;&quot;&gt;A&lt;/span&gt;&lt;span style=&quot;color: rgb(225, 239, 255); font-size: 19px;&quot;&gt;[&lt;/span&gt;&lt;span style=&quot;color: rgb(158, 255, 255); font-size: 19px;&quot;&gt; &lt;/span&gt;&lt;span style=&quot;color: rgb(158, 255, 255); font-family: &amp;quot;JetBrains Mono&amp;quot;;&quot;&gt;j&lt;/span&gt;&lt;span style=&quot;color: rgb(158, 255, 255); font-size: 19px;&quot;&gt; &lt;/span&gt;&lt;span style=&quot;color: rgb(225, 239, 255); font-size: 19px;&quot;&gt;]&lt;/span&gt;&lt;span style=&quot;color: rgb(158, 255, 255); font-size: 19px;&quot;&gt; &lt;/span&gt;&lt;span style=&quot;color: rgb(225, 239, 255); font-size: 19px;&quot;&gt;,&lt;/span&gt;&lt;span style=&quot;color: rgb(158, 255, 255); font-size: 19px;&quot;&gt; A&lt;/span&gt;&lt;span style=&quot;color: rgb(225, 239, 255); font-size: 19px;&quot;&gt;[&lt;/span&gt;&lt;span style=&quot;color: rgb(158, 255, 255); font-size: 19px;&quot;&gt; &lt;font data-font-src=&quot;https://fonts.googleapis.com/css?family=JetBrains+Mono&quot; face=&quot;JetBrains Mono&quot;&gt;j&lt;/font&gt; &lt;/span&gt;&lt;span style=&quot;color: rgb(255, 157, 0); font-size: 19px;&quot;&gt;+&lt;/span&gt;&lt;span style=&quot;color: rgb(158, 255, 255); font-size: 19px;&quot;&gt; &lt;/span&gt;&lt;span style=&quot;color: rgb(255, 98, 140); font-size: 19px;&quot;&gt;1&lt;/span&gt;&lt;span style=&quot;color: rgb(158, 255, 255); font-size: 19px;&quot;&gt; &lt;/span&gt;&lt;span style=&quot;color: rgb(225, 239, 255); font-size: 19px;&quot;&gt;])&lt;/span&gt;&lt;/font&gt;&lt;/div&gt;&lt;div style=&quot;font-size: 19px; line-height: 120%;&quot;&gt;&lt;font&gt;&amp;nbsp; &amp;nbsp; &amp;nbsp; &amp;nbsp; &amp;nbsp; &amp;nbsp; end &lt;span style=&quot;color: rgb(255, 157, 0); font-size: 19px;&quot;&gt;if&lt;/span&gt;&lt;/font&gt;&lt;/div&gt;&lt;div style=&quot;font-size: 19px; line-height: 120%;&quot;&gt;&lt;font&gt;&amp;nbsp; &amp;nbsp; &amp;nbsp; &amp;nbsp; end &lt;span style=&quot;color: rgb(255, 157, 0); font-size: 19px;&quot;&gt;for&lt;/span&gt;&lt;/font&gt;&lt;/div&gt;&lt;div style=&quot;font-size: 19px; line-height: 120%;&quot;&gt;&lt;font&gt;&amp;nbsp; &amp;nbsp; end &lt;span style=&quot;color: rgb(255, 157, 0); font-size: 19px;&quot;&gt;for&lt;/span&gt; &lt;/font&gt;&lt;/div&gt;&lt;div style=&quot;font-size: 19px; line-height: 120%;&quot;&gt;&lt;font&gt;&amp;nbsp; &amp;nbsp; &lt;span style=&quot;color: rgb(255, 157, 0); font-size: 19px;&quot;&gt;return&lt;/span&gt; A&lt;/font&gt;&lt;/div&gt;&lt;div style=&quot;font-size: 19px; line-height: 120%;&quot;&gt;&lt;font&gt;end function&lt;/font&gt;&lt;/div&gt;&lt;/div&gt;&lt;/div&gt;&lt;/div&gt;&lt;/div&gt;&lt;/div&gt;&lt;/div&gt;&lt;/div&gt;&lt;/div&gt;" style="rounded=1;whiteSpace=wrap;html=1;arcSize=11;strokeWidth=2;fillColor=#191830;strokeColor=none;align=left;verticalAlign=top;spacing=15;spacingTop=31;fontSize=19;fontFamily=Mina;fontStyle=0;labelBackgroundColor=none;" vertex="1" parent="lIgfKyH6TXQouxF_7BQu-58">
          <mxGeometry width="520" height="320" as="geometry" />
        </mxCell>
        <mxCell id="lIgfKyH6TXQouxF_7BQu-53" value="" style="group" vertex="1" connectable="0" parent="lIgfKyH6TXQouxF_7BQu-58">
          <mxGeometry x="12" y="20.800000000000182" width="72" height="22.88" as="geometry" />
        </mxCell>
        <mxCell id="lIgfKyH6TXQouxF_7BQu-54" value="&amp;nbsp; &amp;nbsp; &amp;nbsp; &amp;nbsp; &amp;nbsp; &amp;nbsp; &amp;nbsp; " style="strokeWidth=2;html=1;shape=mxgraph.flowchart.start_2;whiteSpace=wrap;fillColor=#ff5f56;strokeColor=none;" vertex="1" parent="lIgfKyH6TXQouxF_7BQu-53">
          <mxGeometry x="2" y="2.0799999999999996" width="16" height="16.639999999999997" as="geometry" />
        </mxCell>
        <mxCell id="lIgfKyH6TXQouxF_7BQu-55" value="&amp;nbsp; &amp;nbsp; &amp;nbsp; &amp;nbsp; &amp;nbsp; &amp;nbsp; &amp;nbsp; " style="strokeWidth=2;html=1;shape=mxgraph.flowchart.start_2;whiteSpace=wrap;fillColor=#ffbd2e;strokeColor=none;" vertex="1" parent="lIgfKyH6TXQouxF_7BQu-53">
          <mxGeometry x="27" y="2.0799999999999996" width="16" height="16.639999999999997" as="geometry" />
        </mxCell>
        <mxCell id="lIgfKyH6TXQouxF_7BQu-56" value="&amp;nbsp; &amp;nbsp; &amp;nbsp; &amp;nbsp; &amp;nbsp; &amp;nbsp; &amp;nbsp; " style="strokeWidth=2;html=1;shape=mxgraph.flowchart.start_2;whiteSpace=wrap;fillColor=#1fa831;strokeColor=none;" vertex="1" parent="lIgfKyH6TXQouxF_7BQu-53">
          <mxGeometry x="52" y="2.0799999999999996" width="16" height="16.639999999999997" as="geometry" />
        </mxCell>
        <mxCell id="lIgfKyH6TXQouxF_7BQu-60" value="Big `O(n^2)`" style="rounded=1;whiteSpace=wrap;html=1;strokeWidth=2;fillColor=#ffcccc;strokeColor=#36393d;arcSize=0;fontFamily=Mina;fontStyle=1;fontSize=22;align=center;spacingLeft=0;" vertex="1" parent="1">
          <mxGeometry x="247.5" y="3550" width="140" height="50" as="geometry" />
        </mxCell>
        <mxCell id="lIgfKyH6TXQouxF_7BQu-62" value="" style="group" vertex="1" connectable="0" parent="1">
          <mxGeometry x="42" y="3550" width="220" height="50" as="geometry" />
        </mxCell>
        <mxCell id="lIgfKyH6TXQouxF_7BQu-63" value="Insertion Sort" style="rounded=1;whiteSpace=wrap;html=1;fontSize=22;fillColor=#cce5ff;strokeColor=#36393d;strokeWidth=2;fontFamily=Mina;arcSize=0;hachureGap=4;align=right;spacingRight=7;fontStyle=1" vertex="1" parent="lIgfKyH6TXQouxF_7BQu-62">
          <mxGeometry x="20" width="185" height="50" as="geometry" />
        </mxCell>
        <mxCell id="lIgfKyH6TXQouxF_7BQu-64" value="2" style="ellipse;whiteSpace=wrap;html=1;aspect=fixed;strokeWidth=2;fillColor=#0050ef;strokeColor=#001DBC;fontFamily=Mina;fontStyle=1;fontSize=22;spacingTop=3;fontColor=#ffffff;" vertex="1" parent="lIgfKyH6TXQouxF_7BQu-62">
          <mxGeometry width="50" height="50" as="geometry" />
        </mxCell>
        <mxCell id="lIgfKyH6TXQouxF_7BQu-65" value="" style="group" vertex="1" connectable="0" parent="1">
          <mxGeometry x="92" y="3640" width="153" height="40" as="geometry" />
        </mxCell>
        <mxCell id="lIgfKyH6TXQouxF_7BQu-66" value="Algorithm" style="rounded=1;whiteSpace=wrap;html=1;fontSize=20;fillColor=#cdeb8b;strokeColor=#36393d;strokeWidth=2;fontFamily=Mina;arcSize=50;hachureGap=4;align=right;spacingRight=5;fontStyle=1" vertex="1" parent="lIgfKyH6TXQouxF_7BQu-65">
          <mxGeometry x="10" width="133" height="40" as="geometry" />
        </mxCell>
        <mxCell id="lIgfKyH6TXQouxF_7BQu-67" value="2.1" style="ellipse;whiteSpace=wrap;html=1;aspect=fixed;strokeWidth=2;fillColor=#008a00;strokeColor=#005700;fontFamily=Mina;fontStyle=1;fontSize=20;spacingTop=3;fontColor=#ffffff;" vertex="1" parent="lIgfKyH6TXQouxF_7BQu-65">
          <mxGeometry width="40" height="40" as="geometry" />
        </mxCell>
        <mxCell id="lIgfKyH6TXQouxF_7BQu-68" value="" style="group" vertex="1" connectable="0" parent="1">
          <mxGeometry x="92" y="4100" width="170" height="40" as="geometry" />
        </mxCell>
        <mxCell id="lIgfKyH6TXQouxF_7BQu-69" value="Pseudocode" style="rounded=1;whiteSpace=wrap;html=1;fontSize=20;fillColor=#ffcccc;strokeColor=#36393d;strokeWidth=2;fontFamily=Mina;arcSize=50;hachureGap=4;align=right;spacingRight=5;fontStyle=1" vertex="1" parent="lIgfKyH6TXQouxF_7BQu-68">
          <mxGeometry x="10" width="150" height="40" as="geometry" />
        </mxCell>
        <mxCell id="lIgfKyH6TXQouxF_7BQu-70" value="2.2" style="ellipse;whiteSpace=wrap;html=1;aspect=fixed;strokeWidth=2;fillColor=#e51400;strokeColor=#36393d;fontFamily=Mina;fontStyle=1;fontSize=20;spacingTop=3;fontColor=#ffffff;" vertex="1" parent="lIgfKyH6TXQouxF_7BQu-68">
          <mxGeometry width="40" height="40" as="geometry" />
        </mxCell>
        <mxCell id="lIgfKyH6TXQouxF_7BQu-77" value="" style="group;fontFamily=Mina;" vertex="1" connectable="0" parent="1">
          <mxGeometry x="176" y="4190" width="520" height="350" as="geometry" />
        </mxCell>
        <mxCell id="lIgfKyH6TXQouxF_7BQu-78" value="&lt;div style=&quot;white-space: pre; font-size: 19px;&quot;&gt;&lt;div style=&quot;font-size: 19px; line-height: 19px;&quot;&gt;&lt;div style=&quot;font-size: 19px;&quot;&gt;&lt;div style=&quot;font-size: 19px; line-height: 19px;&quot;&gt;&lt;div style=&quot;font-size: 19px;&quot;&gt;&lt;div style=&quot;line-height: 120%; font-size: 19px;&quot;&gt;&lt;div style=&quot;color: rgb(255, 255, 255); line-height: 120%; font-size: 19px;&quot;&gt;&lt;div style=&quot;font-size: 19px; line-height: 120%;&quot;&gt;&lt;div style=&quot;font-size: 19px; line-height: 120%;&quot;&gt;&lt;div style=&quot;font-size: 19px; line-height: 120%;&quot;&gt;&lt;div style=&quot;font-size: 19px; line-height: 120%;&quot;&gt;&lt;font&gt;function &lt;span style=&quot;color: rgb(250, 208, 0); font-size: 19px;&quot;&gt;Insertion_Sort&lt;/span&gt;&lt;span style=&quot;color: rgb(225, 239, 255); font-size: 19px;&quot;&gt;(&lt;/span&gt;&lt;span style=&quot;color: rgb(158, 255, 255); font-size: 19px;&quot;&gt;array A&lt;/span&gt;&lt;span style=&quot;color: rgb(225, 239, 255); font-size: 19px;&quot;&gt;)&lt;/span&gt;&lt;/font&gt;&lt;/div&gt;&lt;div style=&quot;font-size: 19px; line-height: 120%;&quot;&gt;&lt;font&gt;&amp;nbsp; &amp;nbsp; &lt;span style=&quot;color: rgb(255, 157, 0); font-size: 19px;&quot;&gt;for&lt;/span&gt; &lt;span style=&quot;color: rgb(158, 255, 255);&quot;&gt;i&lt;/span&gt; From &lt;span style=&quot;color: rgb(255, 98, 140); font-size: 19px;&quot;&gt;1&lt;/span&gt; to &lt;span style=&quot;color: rgb(158, 255, 255);&quot;&gt;A&lt;/span&gt;&lt;span style=&quot;color: rgb(225, 239, 255); font-size: 19px;&quot;&gt;.&lt;/span&gt;&lt;span style=&quot;color: rgb(158, 255, 255); font-size: 19px;&quot;&gt;Length &lt;/span&gt;&lt;span style=&quot;color: rgb(255, 157, 0); font-size: 19px;&quot;&gt;- &lt;/span&gt;&lt;span style=&quot;color: rgb(255, 98, 140); font-size: 19px;&quot;&gt;1&lt;/span&gt; &lt;/font&gt;&lt;/div&gt;&lt;div style=&quot;font-size: 19px; line-height: 120%;&quot;&gt;&lt;font&gt;&amp;nbsp; &amp;nbsp; &amp;nbsp; &amp;nbsp; &lt;span style=&quot;color: rgb(158, 255, 255);&quot;&gt;key&lt;/span&gt; = &lt;span style=&quot;color: rgb(158, 255, 255); font-size: 19px;&quot;&gt;A&lt;/span&gt;&lt;span style=&quot;color: rgb(225, 239, 255); font-size: 19px;&quot;&gt;[&lt;/span&gt;&lt;span style=&quot;color: rgb(158, 255, 255); font-size: 19px;&quot;&gt; i &lt;/span&gt;&lt;span style=&quot;color: rgb(225, 239, 255); font-size: 19px;&quot;&gt;]&lt;/span&gt;&lt;/font&gt;&lt;/div&gt;&lt;div style=&quot;font-size: 19px; line-height: 120%;&quot;&gt;&lt;font&gt;&amp;nbsp; &amp;nbsp; &amp;nbsp; &amp;nbsp; &lt;span style=&quot;color: rgb(158, 255, 255); font-family: &amp;quot;JetBrains Mono&amp;quot;;&quot;&gt;j&lt;/span&gt; = &lt;span style=&quot;color: rgb(158, 255, 255);&quot;&gt;i&lt;/span&gt; &lt;span style=&quot;color: rgb(255, 157, 0); font-size: 19px;&quot;&gt;-&lt;/span&gt; &lt;span style=&quot;color: rgb(255, 98, 140); font-size: 19px;&quot;&gt;1&lt;/span&gt;&lt;/font&gt;&lt;/div&gt;&lt;div style=&quot;font-size: 19px; line-height: 120%;&quot;&gt;&lt;font&gt;&amp;nbsp; &amp;nbsp; &amp;nbsp; &amp;nbsp; &lt;span style=&quot;color: rgb(255, 157, 0); font-size: 19px;&quot;&gt;while&lt;/span&gt; &lt;span style=&quot;color: rgb(158, 255, 255); font-family: &amp;quot;JetBrains Mono&amp;quot;;&quot;&gt;j&lt;/span&gt; &lt;span style=&quot;color: rgb(255, 157, 0); font-size: 19px;&quot;&gt;&amp;gt;=&lt;/span&gt; &lt;span style=&quot;color: rgb(255, 98, 140); font-size: 19px;&quot;&gt;0&lt;/span&gt; &lt;span style=&quot;color: rgb(255, 157, 0); font-size: 19px;&quot;&gt;and&lt;/span&gt; &lt;span style=&quot;color: rgb(158, 255, 255); font-size: 19px;&quot;&gt;A&lt;/span&gt;&lt;span style=&quot;color: rgb(225, 239, 255); font-size: 19px;&quot;&gt;[&lt;/span&gt;&lt;span style=&quot;color: rgb(158, 255, 255); font-size: 19px;&quot;&gt; &lt;font data-font-src=&quot;https://fonts.googleapis.com/css?family=JetBrains+Mono&quot; face=&quot;JetBrains Mono&quot;&gt;j&lt;/font&gt; &lt;/span&gt;&lt;span style=&quot;color: rgb(225, 239, 255); font-size: 19px;&quot;&gt;]&lt;/span&gt; &lt;span style=&quot;color: rgb(255, 157, 0); font-size: 19px;&quot;&gt;&amp;gt;&lt;/span&gt; &lt;/font&gt;&lt;span style=&quot;color: rgb(158, 255, 255); background-color: initial;&quot;&gt;key&lt;/span&gt;&lt;/div&gt;&lt;div style=&quot;font-size: 19px; line-height: 120%;&quot;&gt;&lt;font&gt;&amp;nbsp; &amp;nbsp; &amp;nbsp; &amp;nbsp; &amp;nbsp; &amp;nbsp; &lt;span style=&quot;color: rgb(158, 255, 255); font-size: 19px;&quot;&gt;A&lt;/span&gt;&lt;span style=&quot;color: rgb(225, 239, 255); font-size: 19px;&quot;&gt;[&lt;/span&gt;&lt;span style=&quot;color: rgb(158, 255, 255); font-size: 19px;&quot;&gt; &lt;/span&gt;&lt;span style=&quot;color: rgb(158, 255, 255); font-family: &amp;quot;JetBrains Mono&amp;quot;;&quot;&gt;j&lt;/span&gt;&lt;span style=&quot;color: rgb(158, 255, 255); font-size: 19px;&quot;&gt; &lt;/span&gt;&lt;span style=&quot;color: rgb(255, 157, 0); font-size: 19px;&quot;&gt;+&lt;/span&gt;&lt;span style=&quot;color: rgb(158, 255, 255); font-size: 19px;&quot;&gt; &lt;/span&gt;&lt;span style=&quot;color: rgb(255, 98, 140); font-size: 19px;&quot;&gt;2&lt;/span&gt;&lt;span style=&quot;color: rgb(158, 255, 255); font-size: 19px;&quot;&gt; &lt;/span&gt;&lt;span style=&quot;color: rgb(225, 239, 255); font-size: 19px;&quot;&gt;]&lt;/span&gt; = &lt;span style=&quot;color: rgb(158, 255, 255); font-size: 19px;&quot;&gt;A&lt;/span&gt;&lt;span style=&quot;color: rgb(225, 239, 255); font-size: 19px;&quot;&gt;[&lt;/span&gt;&lt;span style=&quot;color: rgb(158, 255, 255); font-size: 19px;&quot;&gt; &lt;/span&gt;&lt;span style=&quot;color: rgb(158, 255, 255); font-family: &amp;quot;JetBrains Mono&amp;quot;;&quot;&gt;j&lt;/span&gt;&lt;span style=&quot;color: rgb(158, 255, 255); font-size: 19px;&quot;&gt; &lt;/span&gt;&lt;span style=&quot;color: rgb(225, 239, 255); font-size: 19px;&quot;&gt;]&lt;/span&gt;&lt;/font&gt;&lt;/div&gt;&lt;div style=&quot;font-size: 19px; line-height: 120%;&quot;&gt;&lt;font&gt;&amp;nbsp; &amp;nbsp; &amp;nbsp; &amp;nbsp; &amp;nbsp; &amp;nbsp; &lt;span style=&quot;color: rgb(158, 255, 255); font-family: &amp;quot;JetBrains Mono&amp;quot;;&quot;&gt;j&lt;/span&gt; = &lt;span style=&quot;color: rgb(158, 255, 255); font-family: &amp;quot;JetBrains Mono&amp;quot;;&quot;&gt;j&lt;/span&gt; &lt;span style=&quot;color: rgb(255, 157, 0); font-size: 19px;&quot;&gt;-&lt;/span&gt; &lt;span style=&quot;color: rgb(255, 98, 140); font-size: 19px;&quot;&gt;1&lt;/span&gt;&lt;/font&gt;&lt;/div&gt;&lt;div style=&quot;font-size: 19px; line-height: 120%;&quot;&gt;&lt;font&gt;&amp;nbsp; &amp;nbsp; &amp;nbsp; &amp;nbsp; end &lt;span style=&quot;color: rgb(255, 157, 0); font-size: 19px;&quot;&gt;while&lt;/span&gt;&lt;/font&gt;&lt;/div&gt;&lt;div style=&quot;font-size: 19px; line-height: 120%;&quot;&gt;&lt;font&gt;&amp;nbsp; &amp;nbsp; &amp;nbsp; &amp;nbsp; &lt;span style=&quot;color: rgb(158, 255, 255); font-size: 19px;&quot;&gt;A&lt;/span&gt;&lt;span style=&quot;color: rgb(225, 239, 255); font-size: 19px;&quot;&gt;[&lt;/span&gt;&lt;span style=&quot;color: rgb(158, 255, 255); font-size: 19px;&quot;&gt; &lt;/span&gt;&lt;span style=&quot;color: rgb(158, 255, 255); font-family: &amp;quot;JetBrains Mono&amp;quot;;&quot;&gt;j&lt;/span&gt;&lt;span style=&quot;color: rgb(158, 255, 255); font-size: 19px;&quot;&gt; &lt;/span&gt;&lt;span style=&quot;color: rgb(255, 157, 0); font-size: 19px;&quot;&gt;+&lt;/span&gt;&lt;span style=&quot;color: rgb(158, 255, 255); font-size: 19px;&quot;&gt; &lt;/span&gt;&lt;span style=&quot;color: rgb(255, 98, 140); font-size: 19px;&quot;&gt;1&lt;/span&gt;&lt;span style=&quot;color: rgb(158, 255, 255); font-size: 19px;&quot;&gt; &lt;/span&gt;&lt;span style=&quot;color: rgb(225, 239, 255); font-size: 19px;&quot;&gt;]&lt;/span&gt; = &lt;/font&gt;&lt;span style=&quot;color: rgb(158, 255, 255); background-color: initial;&quot;&gt;key&lt;/span&gt;&lt;/div&gt;&lt;div style=&quot;font-size: 19px; line-height: 120%;&quot;&gt;&lt;font&gt;&amp;nbsp; &amp;nbsp; end &lt;span style=&quot;color: rgb(255, 157, 0); font-size: 19px;&quot;&gt;for&lt;/span&gt;&lt;/font&gt;&lt;/div&gt;&lt;div style=&quot;font-size: 19px; line-height: 120%;&quot;&gt;&lt;font&gt;&lt;span style=&quot;color: rgb(255, 157, 0); font-size: 19px;&quot;&gt;    return &lt;/span&gt;&lt;/font&gt;&lt;span style=&quot;color: rgb(158, 255, 255); background-color: initial;&quot;&gt;A&lt;/span&gt;&lt;/div&gt;&lt;div style=&quot;font-size: 19px; line-height: 120%;&quot;&gt;&lt;font&gt;end function&lt;/font&gt;&lt;/div&gt;&lt;/div&gt;&lt;/div&gt;&lt;/div&gt;&lt;/div&gt;&lt;/div&gt;&lt;/div&gt;&lt;/div&gt;&lt;/div&gt;&lt;/div&gt;&lt;/div&gt;" style="rounded=1;whiteSpace=wrap;html=1;arcSize=11;strokeWidth=2;fillColor=#191830;strokeColor=none;align=left;verticalAlign=top;spacing=15;spacingTop=31;fontSize=19;fontFamily=Mina;fontStyle=0;labelBackgroundColor=none;" vertex="1" parent="lIgfKyH6TXQouxF_7BQu-77">
          <mxGeometry width="520" height="350" as="geometry" />
        </mxCell>
        <mxCell id="lIgfKyH6TXQouxF_7BQu-79" value="" style="group" vertex="1" connectable="0" parent="lIgfKyH6TXQouxF_7BQu-77">
          <mxGeometry x="12" y="20.800000000000182" width="72" height="22.88" as="geometry" />
        </mxCell>
        <mxCell id="lIgfKyH6TXQouxF_7BQu-80" value="&amp;nbsp; &amp;nbsp; &amp;nbsp; &amp;nbsp; &amp;nbsp; &amp;nbsp; &amp;nbsp; " style="strokeWidth=2;html=1;shape=mxgraph.flowchart.start_2;whiteSpace=wrap;fillColor=#ff5f56;strokeColor=none;" vertex="1" parent="lIgfKyH6TXQouxF_7BQu-79">
          <mxGeometry x="2" y="2.0799999999999996" width="16" height="16.639999999999997" as="geometry" />
        </mxCell>
        <mxCell id="lIgfKyH6TXQouxF_7BQu-81" value="&amp;nbsp; &amp;nbsp; &amp;nbsp; &amp;nbsp; &amp;nbsp; &amp;nbsp; &amp;nbsp; " style="strokeWidth=2;html=1;shape=mxgraph.flowchart.start_2;whiteSpace=wrap;fillColor=#ffbd2e;strokeColor=none;" vertex="1" parent="lIgfKyH6TXQouxF_7BQu-79">
          <mxGeometry x="27" y="2.0799999999999996" width="16" height="16.639999999999997" as="geometry" />
        </mxCell>
        <mxCell id="lIgfKyH6TXQouxF_7BQu-82" value="&amp;nbsp; &amp;nbsp; &amp;nbsp; &amp;nbsp; &amp;nbsp; &amp;nbsp; &amp;nbsp; " style="strokeWidth=2;html=1;shape=mxgraph.flowchart.start_2;whiteSpace=wrap;fillColor=#1fa831;strokeColor=none;" vertex="1" parent="lIgfKyH6TXQouxF_7BQu-79">
          <mxGeometry x="52" y="2.0799999999999996" width="16" height="16.639999999999997" as="geometry" />
        </mxCell>
        <mxCell id="lIgfKyH6TXQouxF_7BQu-83" value="" style="group" vertex="1" connectable="0" parent="1">
          <mxGeometry x="86" y="3710" width="699" height="210" as="geometry" />
        </mxCell>
        <mxCell id="lIgfKyH6TXQouxF_7BQu-72" value="&lt;div style=&quot;white-space: pre; font-size: 19px;&quot;&gt;&lt;div style=&quot;font-size: 19px; line-height: 19px;&quot;&gt;&lt;div style=&quot;font-size: 19px;&quot;&gt;&lt;div style=&quot;font-size: 19px; line-height: 19px;&quot;&gt;&lt;div style=&quot;font-size: 19px;&quot;&gt;&lt;div style=&quot;line-height: 120%; font-size: 19px;&quot;&gt;&lt;div style=&quot;color: rgb(255, 255, 255); line-height: 120%; font-size: 19px;&quot;&gt;&lt;div style=&quot;font-size: 19px; line-height: 120%;&quot;&gt;&lt;div style=&quot;font-size: 19px; line-height: 120%;&quot;&gt;&lt;span style=&quot;color: rgb(225, 239, 255); font-size: 19px;&quot;&gt;Step &lt;/span&gt;&lt;span style=&quot;color: rgb(255, 98, 140); font-size: 19px;&quot;&gt;1&lt;/span&gt;&lt;span style=&quot;color: rgb(225, 239, 255); font-size: 19px;&quot;&gt;: &lt;/span&gt;&lt;span style=&quot;color: rgb(250, 239, 165); font-size: 19px;&quot;&gt;If&lt;/span&gt;&lt;span style=&quot;color: rgb(225, 239, 255); font-size: 19px;&quot;&gt; it &lt;/span&gt;&lt;span style=&quot;color: rgb(250, 239, 165); font-size: 19px;&quot;&gt;is&lt;/span&gt;&lt;span style=&quot;color: rgb(225, 239, 255); font-size: 19px;&quot;&gt; the &lt;/span&gt;&lt;span style=&quot;color: rgb(250, 239, 165); font-size: 19px;&quot;&gt;First&lt;/span&gt;&lt;span style=&quot;color: rgb(225, 239, 255); font-size: 19px;&quot;&gt; element &lt;/span&gt;&lt;span style=&quot;color: rgb(250, 239, 165); font-size: 19px;&quot;&gt;return&lt;/span&gt;&lt;span style=&quot;color: rgb(225, 239, 255); font-size: 19px;&quot;&gt; &lt;/span&gt;&lt;span style=&quot;color: rgb(255, 98, 140); font-size: 19px;&quot;&gt;1&lt;/span&gt;&lt;/div&gt;&lt;div style=&quot;font-size: 19px; line-height: 120%;&quot;&gt;&lt;span style=&quot;color: rgb(225, 239, 255); font-size: 19px;&quot;&gt;Step &lt;/span&gt;&lt;span style=&quot;color: rgb(255, 98, 140); font-size: 19px;&quot;&gt;2&lt;/span&gt;&lt;span style=&quot;color: rgb(225, 239, 255); font-size: 19px;&quot;&gt;: Pick &lt;/span&gt;&lt;span style=&quot;color: rgb(250, 239, 165); font-size: 19px;&quot;&gt;next&lt;/span&gt;&lt;span style=&quot;color: rgb(225, 239, 255); font-size: 19px;&quot;&gt; element&lt;/span&gt;&lt;/div&gt;&lt;div style=&quot;font-size: 19px; line-height: 120%;&quot;&gt;&lt;span style=&quot;color: rgb(225, 239, 255); font-size: 19px;&quot;&gt;Step &lt;/span&gt;&lt;span style=&quot;color: rgb(255, 98, 140); font-size: 19px;&quot;&gt;3&lt;/span&gt;&lt;span style=&quot;color: rgb(225, 239, 255); font-size: 19px;&quot;&gt;: Compare &lt;/span&gt;&lt;span style=&quot;color: rgb(250, 239, 165); font-size: 19px;&quot;&gt;with&lt;/span&gt;&lt;span style=&quot;color: rgb(225, 239, 255); font-size: 19px;&quot;&gt; all &lt;/span&gt;&lt;span style=&quot;color: rgb(250, 239, 165); font-size: 19px;&quot;&gt;elements&lt;/span&gt;&lt;span style=&quot;color: rgb(225, 239, 255); font-size: 19px;&quot;&gt; &lt;/span&gt;&lt;span style=&quot;color: rgb(250, 239, 165); font-size: 19px;&quot;&gt;in&lt;/span&gt;&lt;span style=&quot;color: rgb(225, 239, 255); font-size: 19px;&quot;&gt; the sorted sub &lt;/span&gt;&lt;span style=&quot;color: rgb(250, 239, 165); font-size: 19px;&quot;&gt;array&lt;/span&gt;&lt;/div&gt;&lt;div style=&quot;font-size: 19px; line-height: 120%;&quot;&gt;&lt;span style=&quot;color: rgb(225, 239, 255); font-size: 19px;&quot;&gt;Step &lt;/span&gt;&lt;span style=&quot;color: rgb(255, 98, 140); font-size: 19px;&quot;&gt;4&lt;/span&gt;&lt;span style=&quot;color: rgb(225, 239, 255); font-size: 19px;&quot;&gt;: Find the correct Position&lt;/span&gt;&lt;/div&gt;&lt;div style=&quot;font-size: 19px; line-height: 120%;&quot;&gt;&lt;span style=&quot;color: rgb(225, 239, 255); font-size: 19px;&quot;&gt;Step &lt;/span&gt;&lt;span style=&quot;color: rgb(255, 98, 140); font-size: 19px;&quot;&gt;5&lt;/span&gt;&lt;span style=&quot;color: rgb(225, 239, 255); font-size: 19px;&quot;&gt;: &lt;/span&gt;&lt;span style=&quot;color: rgb(250, 239, 165); font-size: 19px;&quot;&gt;Insert&lt;/span&gt;&lt;span style=&quot;color: rgb(225, 239, 255); font-size: 19px;&quot;&gt; the &lt;/span&gt;&lt;span style=&quot;color: rgb(250, 239, 165); font-size: 19px;&quot;&gt;Value&lt;/span&gt;&lt;/div&gt;&lt;div style=&quot;font-size: 19px; line-height: 120%;&quot;&gt;&lt;span style=&quot;color: rgb(225, 239, 255); font-size: 19px;&quot;&gt;Step &lt;/span&gt;&lt;span style=&quot;color: rgb(255, 98, 140); font-size: 19px;&quot;&gt;6&lt;/span&gt;&lt;span style=&quot;color: rgb(225, 239, 255); font-size: 19px;&quot;&gt;: &lt;/span&gt;&lt;span style=&quot;color: rgb(250, 239, 165); font-size: 19px;&quot;&gt;Repeat&lt;/span&gt;&lt;span style=&quot;color: rgb(225, 239, 255); font-size: 19px;&quot;&gt; until list &lt;/span&gt;&lt;span style=&quot;color: rgb(250, 239, 165); font-size: 19px;&quot;&gt;is&lt;/span&gt;&lt;span style=&quot;color: rgb(225, 239, 255); font-size: 19px;&quot;&gt; sorted&lt;/span&gt;&lt;/div&gt;&lt;/div&gt;&lt;/div&gt;&lt;/div&gt;&lt;/div&gt;&lt;/div&gt;&lt;/div&gt;&lt;/div&gt;&lt;/div&gt;" style="rounded=1;whiteSpace=wrap;html=1;arcSize=13;strokeWidth=2;fillColor=#333333;strokeColor=none;align=left;verticalAlign=top;spacing=15;spacingTop=31;fontSize=19;fontFamily=Mina;fontStyle=0;labelBackgroundColor=none;" vertex="1" parent="lIgfKyH6TXQouxF_7BQu-83">
          <mxGeometry width="699" height="210" as="geometry" />
        </mxCell>
        <mxCell id="lIgfKyH6TXQouxF_7BQu-73" value="" style="group" vertex="1" connectable="0" parent="lIgfKyH6TXQouxF_7BQu-83">
          <mxGeometry x="12" y="20.800000000000182" width="72" height="22.88" as="geometry" />
        </mxCell>
        <mxCell id="lIgfKyH6TXQouxF_7BQu-74" value="&amp;nbsp; &amp;nbsp; &amp;nbsp; &amp;nbsp; &amp;nbsp; &amp;nbsp; &amp;nbsp; " style="strokeWidth=2;html=1;shape=mxgraph.flowchart.start_2;whiteSpace=wrap;fillColor=#ff5f56;strokeColor=none;" vertex="1" parent="lIgfKyH6TXQouxF_7BQu-73">
          <mxGeometry x="2" y="2.0799999999999996" width="16" height="16.639999999999997" as="geometry" />
        </mxCell>
        <mxCell id="lIgfKyH6TXQouxF_7BQu-75" value="&amp;nbsp; &amp;nbsp; &amp;nbsp; &amp;nbsp; &amp;nbsp; &amp;nbsp; &amp;nbsp; " style="strokeWidth=2;html=1;shape=mxgraph.flowchart.start_2;whiteSpace=wrap;fillColor=#ffbd2e;strokeColor=none;" vertex="1" parent="lIgfKyH6TXQouxF_7BQu-73">
          <mxGeometry x="27" y="2.0799999999999996" width="16" height="16.639999999999997" as="geometry" />
        </mxCell>
        <mxCell id="lIgfKyH6TXQouxF_7BQu-76" value="&amp;nbsp; &amp;nbsp; &amp;nbsp; &amp;nbsp; &amp;nbsp; &amp;nbsp; &amp;nbsp; " style="strokeWidth=2;html=1;shape=mxgraph.flowchart.start_2;whiteSpace=wrap;fillColor=#1fa831;strokeColor=none;" vertex="1" parent="lIgfKyH6TXQouxF_7BQu-73">
          <mxGeometry x="52" y="2.0799999999999996" width="16" height="16.639999999999997" as="geometry" />
        </mxCell>
        <mxCell id="lIgfKyH6TXQouxF_7BQu-84" value="Big `O(n^2)`" style="rounded=1;whiteSpace=wrap;html=1;strokeWidth=2;fillColor=#ffcccc;strokeColor=#36393d;arcSize=0;fontFamily=Mina;fontStyle=1;fontSize=22;align=center;spacingLeft=0;" vertex="1" parent="1">
          <mxGeometry x="252" y="4720" width="132.5" height="50" as="geometry" />
        </mxCell>
        <mxCell id="lIgfKyH6TXQouxF_7BQu-85" value="" style="group" vertex="1" connectable="0" parent="1">
          <mxGeometry x="42" y="4720" width="220" height="50" as="geometry" />
        </mxCell>
        <mxCell id="lIgfKyH6TXQouxF_7BQu-86" value="Selection Sort" style="rounded=1;whiteSpace=wrap;html=1;fontSize=22;fillColor=#cce5ff;strokeColor=#36393d;strokeWidth=2;fontFamily=Mina;arcSize=0;hachureGap=4;align=right;spacingRight=7;fontStyle=1" vertex="1" parent="lIgfKyH6TXQouxF_7BQu-85">
          <mxGeometry x="20" width="190" height="50" as="geometry" />
        </mxCell>
        <mxCell id="lIgfKyH6TXQouxF_7BQu-87" value="3" style="ellipse;whiteSpace=wrap;html=1;aspect=fixed;strokeWidth=2;fillColor=#0050ef;strokeColor=#001DBC;fontFamily=Mina;fontStyle=1;fontSize=22;spacingTop=3;fontColor=#ffffff;" vertex="1" parent="lIgfKyH6TXQouxF_7BQu-85">
          <mxGeometry width="50" height="50" as="geometry" />
        </mxCell>
        <mxCell id="lIgfKyH6TXQouxF_7BQu-88" value="" style="group" vertex="1" connectable="0" parent="1">
          <mxGeometry x="92" y="4810" width="153" height="40" as="geometry" />
        </mxCell>
        <mxCell id="lIgfKyH6TXQouxF_7BQu-89" value="Algorithm" style="rounded=1;whiteSpace=wrap;html=1;fontSize=20;fillColor=#cdeb8b;strokeColor=#36393d;strokeWidth=2;fontFamily=Mina;arcSize=50;hachureGap=4;align=right;spacingRight=5;fontStyle=1" vertex="1" parent="lIgfKyH6TXQouxF_7BQu-88">
          <mxGeometry x="10" width="133" height="40" as="geometry" />
        </mxCell>
        <mxCell id="lIgfKyH6TXQouxF_7BQu-90" value="3.1" style="ellipse;whiteSpace=wrap;html=1;aspect=fixed;strokeWidth=2;fillColor=#008a00;strokeColor=#005700;fontFamily=Mina;fontStyle=1;fontSize=20;spacingTop=3;fontColor=#ffffff;" vertex="1" parent="lIgfKyH6TXQouxF_7BQu-88">
          <mxGeometry width="40" height="40" as="geometry" />
        </mxCell>
        <mxCell id="lIgfKyH6TXQouxF_7BQu-91" value="" style="group" vertex="1" connectable="0" parent="1">
          <mxGeometry x="92" y="5270" width="170" height="40" as="geometry" />
        </mxCell>
        <mxCell id="lIgfKyH6TXQouxF_7BQu-92" value="Pseudocode" style="rounded=1;whiteSpace=wrap;html=1;fontSize=20;fillColor=#ffcccc;strokeColor=#36393d;strokeWidth=2;fontFamily=Mina;arcSize=50;hachureGap=4;align=right;spacingRight=5;fontStyle=1" vertex="1" parent="lIgfKyH6TXQouxF_7BQu-91">
          <mxGeometry x="10" width="150" height="40" as="geometry" />
        </mxCell>
        <mxCell id="lIgfKyH6TXQouxF_7BQu-93" value="3.2" style="ellipse;whiteSpace=wrap;html=1;aspect=fixed;strokeWidth=2;fillColor=#e51400;strokeColor=#36393d;fontFamily=Mina;fontStyle=1;fontSize=20;spacingTop=3;fontColor=#ffffff;" vertex="1" parent="lIgfKyH6TXQouxF_7BQu-91">
          <mxGeometry width="40" height="40" as="geometry" />
        </mxCell>
        <mxCell id="lIgfKyH6TXQouxF_7BQu-100" value="" style="group" vertex="1" connectable="0" parent="1">
          <mxGeometry x="86" y="4880" width="699" height="210" as="geometry" />
        </mxCell>
        <mxCell id="lIgfKyH6TXQouxF_7BQu-101" value="&lt;div style=&quot;white-space: pre; font-size: 21px;&quot;&gt;&lt;div style=&quot;font-size: 21px; line-height: 19px;&quot;&gt;&lt;div style=&quot;font-size: 21px;&quot;&gt;&lt;div style=&quot;font-size: 21px; line-height: 19px;&quot;&gt;&lt;div style=&quot;font-size: 21px;&quot;&gt;&lt;div style=&quot;line-height: 120%; font-size: 21px;&quot;&gt;&lt;div style=&quot;color: rgb(255, 255, 255); line-height: 120%; font-size: 21px;&quot;&gt;&lt;div style=&quot;font-size: 21px; line-height: 120%;&quot;&gt;&lt;div style=&quot;font-size: 21px; line-height: 120%;&quot;&gt;&lt;div style=&quot;font-size: 21px; line-height: 120%;&quot;&gt;&lt;div style=&quot;font-size: 21px; line-height: 120%;&quot;&gt;&lt;font&gt;&lt;span style=&quot;color: rgb(225, 239, 255); font-size: 21px;&quot;&gt;Step &lt;/span&gt;&lt;span style=&quot;color: rgb(255, 98, 140); font-size: 21px;&quot;&gt;1&lt;/span&gt;&lt;span style=&quot;color: rgb(225, 239, 255); font-size: 21px;&quot;&gt;: &lt;/span&gt;&lt;span style=&quot;color: rgb(255, 157, 0); font-size: 21px;&quot;&gt;set&lt;/span&gt;&lt;span style=&quot;color: rgb(225, 239, 255); font-size: 21px;&quot;&gt; min &lt;/span&gt;&lt;span style=&quot;color: rgb(250, 239, 165); font-size: 21px;&quot;&gt;to&lt;/span&gt;&lt;span style=&quot;color: rgb(225, 239, 255); font-size: 21px;&quot;&gt; &lt;/span&gt;&lt;span style=&quot;color: rgb(250, 239, 165); font-size: 21px;&quot;&gt;index&lt;/span&gt;&lt;span style=&quot;color: rgb(225, 239, 255); font-size: 21px;&quot;&gt; &lt;/span&gt;&lt;span style=&quot;color: rgb(255, 98, 140); font-size: 21px;&quot;&gt;0&lt;/span&gt;&lt;/font&gt;&lt;/div&gt;&lt;div style=&quot;font-size: 21px; line-height: 120%;&quot;&gt;&lt;font&gt;&lt;span style=&quot;color: rgb(225, 239, 255); font-size: 21px;&quot;&gt;Step &lt;/span&gt;&lt;span style=&quot;color: rgb(255, 98, 140); font-size: 21px;&quot;&gt;2&lt;/span&gt;&lt;span style=&quot;color: rgb(225, 239, 255); font-size: 21px;&quot;&gt;: search the minimum element &lt;/span&gt;&lt;span style=&quot;color: rgb(250, 239, 165); font-size: 21px;&quot;&gt;in&lt;/span&gt;&lt;span style=&quot;color: rgb(225, 239, 255); font-size: 21px;&quot;&gt; the list&lt;/span&gt;&lt;/font&gt;&lt;/div&gt;&lt;div style=&quot;font-size: 21px; line-height: 120%;&quot;&gt;&lt;font&gt;&lt;span style=&quot;color: rgb(225, 239, 255); font-size: 21px;&quot;&gt;Step &lt;/span&gt;&lt;span style=&quot;color: rgb(255, 98, 140); font-size: 21px;&quot;&gt;3&lt;/span&gt;&lt;span style=&quot;color: rgb(225, 239, 255); font-size: 21px;&quot;&gt;: Swap &lt;/span&gt;&lt;span style=&quot;color: rgb(250, 239, 165); font-size: 21px;&quot;&gt;with&lt;/span&gt;&lt;span style=&quot;color: rgb(225, 239, 255); font-size: 21px;&quot;&gt; &lt;/span&gt;&lt;span style=&quot;color: rgb(250, 239, 165); font-size: 21px;&quot;&gt;value&lt;/span&gt;&lt;span style=&quot;color: rgb(225, 239, 255); font-size: 21px;&quot;&gt; &lt;/span&gt;&lt;span style=&quot;color: rgb(250, 239, 165); font-size: 21px;&quot;&gt;at&lt;/span&gt;&lt;span style=&quot;color: rgb(225, 239, 255); font-size: 21px;&quot;&gt; &lt;/span&gt;&lt;span style=&quot;color: rgb(250, 239, 165); font-size: 21px;&quot;&gt;index&lt;/span&gt;&lt;span style=&quot;color: rgb(225, 239, 255); font-size: 21px;&quot;&gt; min&lt;/span&gt;&lt;/font&gt;&lt;/div&gt;&lt;div style=&quot;font-size: 21px; line-height: 120%;&quot;&gt;&lt;font&gt;&lt;span style=&quot;color: rgb(225, 239, 255); font-size: 21px;&quot;&gt;Step &lt;/span&gt;&lt;span style=&quot;color: rgb(255, 98, 140); font-size: 21px;&quot;&gt;4&lt;/span&gt;&lt;span style=&quot;color: rgb(225, 239, 255); font-size: 21px;&quot;&gt;: increment min &lt;/span&gt;&lt;span style=&quot;color: rgb(250, 239, 165); font-size: 21px;&quot;&gt;to&lt;/span&gt;&lt;span style=&quot;color: rgb(225, 239, 255); font-size: 21px;&quot;&gt; &lt;/span&gt;&lt;span style=&quot;color: rgb(255, 157, 0); font-size: 21px;&quot;&gt;Point&lt;/span&gt;&lt;span style=&quot;color: rgb(225, 239, 255); font-size: 21px;&quot;&gt; &lt;/span&gt;&lt;span style=&quot;color: rgb(250, 239, 165); font-size: 21px;&quot;&gt;to&lt;/span&gt;&lt;span style=&quot;color: rgb(225, 239, 255); font-size: 21px;&quot;&gt; &lt;/span&gt;&lt;span style=&quot;color: rgb(250, 239, 165); font-size: 21px;&quot;&gt;next&lt;/span&gt;&lt;span style=&quot;color: rgb(225, 239, 255); font-size: 21px;&quot;&gt; element&lt;/span&gt;&lt;/font&gt;&lt;/div&gt;&lt;div style=&quot;font-size: 21px; line-height: 120%;&quot;&gt;&lt;font&gt;&lt;span style=&quot;color: rgb(225, 239, 255); font-size: 21px;&quot;&gt;Step &lt;/span&gt;&lt;span style=&quot;color: rgb(255, 98, 140); font-size: 21px;&quot;&gt;5&lt;/span&gt;&lt;span style=&quot;color: rgb(225, 239, 255); font-size: 21px;&quot;&gt;: &lt;/span&gt;&lt;span style=&quot;color: rgb(250, 239, 165); font-size: 21px;&quot;&gt;repeat&lt;/span&gt;&lt;span style=&quot;color: rgb(225, 239, 255); font-size: 21px;&quot;&gt; until list &lt;/span&gt;&lt;span style=&quot;color: rgb(250, 239, 165); font-size: 21px;&quot;&gt;is&lt;/span&gt;&lt;span style=&quot;color: rgb(225, 239, 255); font-size: 21px;&quot;&gt; sorted&lt;/span&gt;&lt;/font&gt;&lt;/div&gt;&lt;/div&gt;&lt;/div&gt;&lt;/div&gt;&lt;/div&gt;&lt;/div&gt;&lt;/div&gt;&lt;/div&gt;&lt;/div&gt;&lt;/div&gt;&lt;/div&gt;" style="rounded=1;whiteSpace=wrap;html=1;arcSize=13;strokeWidth=2;fillColor=#333333;strokeColor=none;align=left;verticalAlign=top;spacing=15;spacingTop=31;fontSize=21;fontFamily=Mina;fontStyle=0;labelBackgroundColor=none;" vertex="1" parent="lIgfKyH6TXQouxF_7BQu-100">
          <mxGeometry width="699" height="200" as="geometry" />
        </mxCell>
        <mxCell id="lIgfKyH6TXQouxF_7BQu-102" value="" style="group" vertex="1" connectable="0" parent="lIgfKyH6TXQouxF_7BQu-100">
          <mxGeometry x="12" y="20.800000000000182" width="72" height="22.88" as="geometry" />
        </mxCell>
        <mxCell id="lIgfKyH6TXQouxF_7BQu-103" value="&amp;nbsp; &amp;nbsp; &amp;nbsp; &amp;nbsp; &amp;nbsp; &amp;nbsp; &amp;nbsp; " style="strokeWidth=2;html=1;shape=mxgraph.flowchart.start_2;whiteSpace=wrap;fillColor=#ff5f56;strokeColor=none;" vertex="1" parent="lIgfKyH6TXQouxF_7BQu-102">
          <mxGeometry x="2" y="2.0799999999999996" width="16" height="16.639999999999997" as="geometry" />
        </mxCell>
        <mxCell id="lIgfKyH6TXQouxF_7BQu-104" value="&amp;nbsp; &amp;nbsp; &amp;nbsp; &amp;nbsp; &amp;nbsp; &amp;nbsp; &amp;nbsp; " style="strokeWidth=2;html=1;shape=mxgraph.flowchart.start_2;whiteSpace=wrap;fillColor=#ffbd2e;strokeColor=none;" vertex="1" parent="lIgfKyH6TXQouxF_7BQu-102">
          <mxGeometry x="27" y="2.0799999999999996" width="16" height="16.639999999999997" as="geometry" />
        </mxCell>
        <mxCell id="lIgfKyH6TXQouxF_7BQu-105" value="&amp;nbsp; &amp;nbsp; &amp;nbsp; &amp;nbsp; &amp;nbsp; &amp;nbsp; &amp;nbsp; " style="strokeWidth=2;html=1;shape=mxgraph.flowchart.start_2;whiteSpace=wrap;fillColor=#1fa831;strokeColor=none;" vertex="1" parent="lIgfKyH6TXQouxF_7BQu-102">
          <mxGeometry x="52" y="2.0799999999999996" width="16" height="16.639999999999997" as="geometry" />
        </mxCell>
        <mxCell id="lIgfKyH6TXQouxF_7BQu-106" value="" style="group" vertex="1" connectable="0" parent="1">
          <mxGeometry x="94" y="5360" width="640" height="350" as="geometry" />
        </mxCell>
        <mxCell id="lIgfKyH6TXQouxF_7BQu-95" value="&lt;div style=&quot;white-space: pre; font-size: 19px;&quot;&gt;&lt;div style=&quot;font-size: 19px; line-height: 19px;&quot;&gt;&lt;div style=&quot;font-size: 19px;&quot;&gt;&lt;div style=&quot;font-size: 19px; line-height: 19px;&quot;&gt;&lt;div style=&quot;font-size: 19px;&quot;&gt;&lt;div style=&quot;line-height: 120%; font-size: 19px;&quot;&gt;&lt;div style=&quot;color: rgb(255, 255, 255); line-height: 120%; font-size: 19px;&quot;&gt;&lt;div style=&quot;font-size: 19px; line-height: 120%;&quot;&gt;&lt;div style=&quot;font-size: 19px; line-height: 120%;&quot;&gt;&lt;div style=&quot;font-size: 19px; line-height: 120%;&quot;&gt;&lt;div style=&quot;font-size: 19px; line-height: 120%;&quot;&gt;&lt;div style=&quot;font-size: 19px; line-height: 120%;&quot;&gt;&lt;div style=&quot;font-size: 19px; line-height: 120%;&quot;&gt;function &lt;span style=&quot;color: rgb(250, 208, 0); font-size: 19px;&quot;&gt;selectionSort&lt;/span&gt;&lt;span style=&quot;color: rgb(225, 239, 255); font-size: 19px;&quot;&gt;(&lt;/span&gt;&lt;span style=&quot;color: rgb(158, 255, 255); font-size: 19px;&quot;&gt;array A&lt;/span&gt;&lt;span style=&quot;color: rgb(225, 239, 255); font-size: 19px;&quot;&gt;){&lt;/span&gt;&lt;/div&gt;&lt;div style=&quot;font-size: 19px; line-height: 120%;&quot;&gt;&amp;nbsp; &amp;nbsp; &lt;span style=&quot;color: rgb(255, 157, 0); font-size: 19px;&quot;&gt;for&lt;/span&gt; &lt;span style=&quot;color: rgb(158, 255, 255);&quot;&gt;i&lt;/span&gt; From &lt;span style=&quot;color: rgb(255, 98, 140); font-size: 19px;&quot;&gt;0&lt;/span&gt; to &lt;span style=&quot;color: rgb(158, 255, 255);&quot;&gt;A&lt;/span&gt;&lt;span style=&quot;color: rgb(225, 239, 255); font-size: 19px;&quot;&gt;.&lt;/span&gt;&lt;span style=&quot;color: rgb(158, 255, 255); font-size: 19px;&quot;&gt;length&lt;/span&gt; &lt;span style=&quot;color: rgb(255, 157, 0); font-size: 19px;&quot;&gt;-&lt;/span&gt; &lt;span style=&quot;color: rgb(255, 98, 140); font-size: 19px;&quot;&gt;1&lt;/span&gt;&lt;/div&gt;&lt;div style=&quot;font-size: 19px; line-height: 120%;&quot;&gt;&amp;nbsp; &amp;nbsp; &amp;nbsp; &amp;nbsp; minIndex = &lt;span style=&quot;color: rgb(158, 255, 255); background-color: initial;&quot;&gt;i&lt;/span&gt;&lt;/div&gt;&lt;div style=&quot;font-size: 19px; line-height: 120%;&quot;&gt;&amp;nbsp; &amp;nbsp; &amp;nbsp; &amp;nbsp; &lt;span style=&quot;color: rgb(255, 157, 0); font-size: 19px;&quot;&gt;for&lt;/span&gt; &lt;span style=&quot;color: rgb(158, 255, 255); font-family: &amp;quot;JetBrains Mono&amp;quot;;&quot;&gt;j&lt;/span&gt; From &lt;span style=&quot;color: rgb(158, 255, 255);&quot;&gt;i&lt;/span&gt; &lt;span style=&quot;color: rgb(255, 157, 0); font-size: 19px;&quot;&gt;+&lt;/span&gt; &lt;span style=&quot;color: rgb(255, 98, 140); font-size: 19px;&quot;&gt;1&lt;/span&gt; to n&lt;/div&gt;&lt;div style=&quot;font-size: 19px; line-height: 120%;&quot;&gt;&amp;nbsp; &amp;nbsp; &amp;nbsp; &amp;nbsp; &amp;nbsp; &amp;nbsp; &lt;span style=&quot;color: rgb(255, 157, 0); font-size: 19px;&quot;&gt;if&lt;/span&gt; &lt;span style=&quot;color: rgb(158, 255, 255); font-size: 19px;&quot;&gt;A&lt;/span&gt;&lt;span style=&quot;color: rgb(225, 239, 255); font-size: 19px;&quot;&gt;[&lt;/span&gt;&lt;span style=&quot;color: rgb(158, 255, 255); font-size: 19px;&quot;&gt; &lt;font data-font-src=&quot;https://fonts.googleapis.com/css?family=JetBrains+Mono&quot; face=&quot;JetBrains Mono&quot;&gt;j&lt;/font&gt; &lt;/span&gt;&lt;span style=&quot;color: rgb(225, 239, 255); font-size: 19px;&quot;&gt;]&lt;/span&gt; &lt;span style=&quot;color: rgb(255, 157, 0); font-size: 19px;&quot;&gt;&amp;lt;&lt;/span&gt; &lt;span style=&quot;color: rgb(158, 255, 255); font-size: 19px;&quot;&gt;A&lt;/span&gt;&lt;span style=&quot;color: rgb(225, 239, 255); font-size: 19px;&quot;&gt;[&lt;/span&gt;&lt;span style=&quot;color: rgb(158, 255, 255); font-size: 19px;&quot;&gt; minIndex &lt;/span&gt;&lt;span style=&quot;color: rgb(225, 239, 255); font-size: 19px;&quot;&gt;]&lt;/span&gt;&lt;/div&gt;&lt;div style=&quot;font-size: 19px; line-height: 120%;&quot;&gt;&amp;nbsp; &amp;nbsp; &amp;nbsp; &amp;nbsp; &amp;nbsp; &amp;nbsp; &amp;nbsp; &amp;nbsp; minIndex = &lt;span style=&quot;color: rgb(158, 255, 255); font-family: &amp;quot;JetBrains Mono&amp;quot;; background-color: initial;&quot;&gt;j&lt;/span&gt;&lt;/div&gt;&lt;div style=&quot;font-size: 19px; line-height: 120%;&quot;&gt;&amp;nbsp; &amp;nbsp; &amp;nbsp; &amp;nbsp; &amp;nbsp; &amp;nbsp; end &lt;span style=&quot;color: rgb(255, 157, 0); font-size: 19px;&quot;&gt;if&lt;/span&gt; &lt;/div&gt;&lt;div style=&quot;font-size: 19px; line-height: 120%;&quot;&gt;&amp;nbsp; &amp;nbsp; &amp;nbsp; &amp;nbsp; end &lt;span style=&quot;color: rgb(255, 157, 0); font-size: 19px;&quot;&gt;for&lt;/span&gt; &lt;/div&gt;&lt;div style=&quot;font-size: 19px; line-height: 120%;&quot;&gt;&amp;nbsp; &amp;nbsp; &amp;nbsp; &amp;nbsp; &lt;span style=&quot;color: rgb(250, 208, 0); font-size: 19px;&quot;&gt;Swap&lt;/span&gt;&lt;span style=&quot;color: rgb(225, 239, 255); font-size: 19px;&quot;&gt;(&lt;/span&gt;&lt;span style=&quot;color: rgb(158, 255, 255); font-size: 19px;&quot;&gt;A&lt;/span&gt;&lt;span style=&quot;color: rgb(225, 239, 255); font-size: 19px;&quot;&gt;[&lt;/span&gt;&lt;span style=&quot;color: rgb(158, 255, 255); font-size: 19px;&quot;&gt; i &lt;/span&gt;&lt;span style=&quot;color: rgb(225, 239, 255); font-size: 19px;&quot;&gt;],&lt;/span&gt;&lt;span style=&quot;color: rgb(158, 255, 255); font-size: 19px;&quot;&gt; A&lt;/span&gt;&lt;span style=&quot;color: rgb(225, 239, 255); font-size: 19px;&quot;&gt;[&lt;/span&gt;&lt;span style=&quot;color: rgb(158, 255, 255); font-size: 19px;&quot;&gt; minIndex &lt;/span&gt;&lt;span style=&quot;color: rgb(225, 239, 255); font-size: 19px;&quot;&gt;])&lt;/span&gt;&lt;/div&gt;&lt;div style=&quot;font-size: 19px; line-height: 120%;&quot;&gt;&amp;nbsp; &amp;nbsp; end &lt;span style=&quot;color: rgb(255, 157, 0); font-size: 19px;&quot;&gt;for&lt;/span&gt;&lt;/div&gt;&lt;div style=&quot;font-size: 19px; line-height: 120%;&quot;&gt;&lt;span style=&quot;color: rgb(255, 157, 0); font-size: 19px;&quot;&gt;    return &lt;/span&gt;&lt;span style=&quot;color: rgb(158, 255, 255); background-color: initial;&quot;&gt;A&lt;/span&gt;&lt;/div&gt;&lt;div style=&quot;font-size: 19px; line-height: 120%;&quot;&gt;end function&lt;/div&gt;&lt;/div&gt;&lt;/div&gt;&lt;/div&gt;&lt;/div&gt;&lt;/div&gt;&lt;/div&gt;&lt;/div&gt;&lt;/div&gt;&lt;/div&gt;&lt;/div&gt;&lt;/div&gt;&lt;/div&gt;" style="rounded=1;whiteSpace=wrap;html=1;arcSize=11;strokeWidth=2;fillColor=#191830;strokeColor=none;align=left;verticalAlign=top;spacing=15;spacingTop=31;fontSize=19;fontFamily=Mina;fontStyle=0;labelBackgroundColor=none;" vertex="1" parent="lIgfKyH6TXQouxF_7BQu-106">
          <mxGeometry width="640" height="350" as="geometry" />
        </mxCell>
        <mxCell id="lIgfKyH6TXQouxF_7BQu-96" value="" style="group" vertex="1" connectable="0" parent="lIgfKyH6TXQouxF_7BQu-106">
          <mxGeometry x="12" y="20.800000000000182" width="72" height="22.88" as="geometry" />
        </mxCell>
        <mxCell id="lIgfKyH6TXQouxF_7BQu-97" value="&amp;nbsp; &amp;nbsp; &amp;nbsp; &amp;nbsp; &amp;nbsp; &amp;nbsp; &amp;nbsp; " style="strokeWidth=2;html=1;shape=mxgraph.flowchart.start_2;whiteSpace=wrap;fillColor=#ff5f56;strokeColor=none;" vertex="1" parent="lIgfKyH6TXQouxF_7BQu-96">
          <mxGeometry x="2" y="2.0799999999999996" width="16" height="16.639999999999997" as="geometry" />
        </mxCell>
        <mxCell id="lIgfKyH6TXQouxF_7BQu-98" value="&amp;nbsp; &amp;nbsp; &amp;nbsp; &amp;nbsp; &amp;nbsp; &amp;nbsp; &amp;nbsp; " style="strokeWidth=2;html=1;shape=mxgraph.flowchart.start_2;whiteSpace=wrap;fillColor=#ffbd2e;strokeColor=none;" vertex="1" parent="lIgfKyH6TXQouxF_7BQu-96">
          <mxGeometry x="27" y="2.0799999999999996" width="16" height="16.639999999999997" as="geometry" />
        </mxCell>
        <mxCell id="lIgfKyH6TXQouxF_7BQu-99" value="&amp;nbsp; &amp;nbsp; &amp;nbsp; &amp;nbsp; &amp;nbsp; &amp;nbsp; &amp;nbsp; " style="strokeWidth=2;html=1;shape=mxgraph.flowchart.start_2;whiteSpace=wrap;fillColor=#1fa831;strokeColor=none;" vertex="1" parent="lIgfKyH6TXQouxF_7BQu-96">
          <mxGeometry x="52" y="2.0799999999999996" width="16" height="16.639999999999997" as="geometry" />
        </mxCell>
        <mxCell id="lIgfKyH6TXQouxF_7BQu-108" value="" style="group" vertex="1" connectable="0" parent="1">
          <mxGeometry x="42" y="5870" width="302.5" height="50" as="geometry" />
        </mxCell>
        <mxCell id="lIgfKyH6TXQouxF_7BQu-109" value="Quick Sort" style="rounded=1;whiteSpace=wrap;html=1;fontSize=22;fillColor=#cce5ff;strokeColor=#36393d;strokeWidth=2;fontFamily=Mina;arcSize=0;hachureGap=4;align=right;spacingRight=7;fontStyle=1" vertex="1" parent="lIgfKyH6TXQouxF_7BQu-108">
          <mxGeometry x="20" width="150" height="50" as="geometry" />
        </mxCell>
        <mxCell id="lIgfKyH6TXQouxF_7BQu-110" value="4" style="ellipse;whiteSpace=wrap;html=1;aspect=fixed;strokeWidth=2;fillColor=#0050ef;strokeColor=#001DBC;fontFamily=Mina;fontStyle=1;fontSize=22;spacingTop=3;fontColor=#ffffff;" vertex="1" parent="lIgfKyH6TXQouxF_7BQu-108">
          <mxGeometry width="50" height="50" as="geometry" />
        </mxCell>
        <mxCell id="lIgfKyH6TXQouxF_7BQu-107" value="Big `O(n^2)`" style="rounded=1;whiteSpace=wrap;html=1;strokeWidth=2;fillColor=#ffcccc;strokeColor=#36393d;arcSize=0;fontFamily=Mina;fontStyle=1;fontSize=22;align=center;spacingLeft=0;" vertex="1" parent="lIgfKyH6TXQouxF_7BQu-108">
          <mxGeometry x="170" width="132.5" height="50" as="geometry" />
        </mxCell>
        <mxCell id="lIgfKyH6TXQouxF_7BQu-111" value="" style="group" vertex="1" connectable="0" parent="1">
          <mxGeometry x="92" y="5950" width="153" height="40" as="geometry" />
        </mxCell>
        <mxCell id="lIgfKyH6TXQouxF_7BQu-112" value="Algorithm" style="rounded=1;whiteSpace=wrap;html=1;fontSize=20;fillColor=#cdeb8b;strokeColor=#36393d;strokeWidth=2;fontFamily=Mina;arcSize=50;hachureGap=4;align=right;spacingRight=5;fontStyle=1" vertex="1" parent="lIgfKyH6TXQouxF_7BQu-111">
          <mxGeometry x="10" width="133" height="40" as="geometry" />
        </mxCell>
        <mxCell id="lIgfKyH6TXQouxF_7BQu-113" value="4.1" style="ellipse;whiteSpace=wrap;html=1;aspect=fixed;strokeWidth=2;fillColor=#008a00;strokeColor=#005700;fontFamily=Mina;fontStyle=1;fontSize=20;spacingTop=3;fontColor=#ffffff;" vertex="1" parent="lIgfKyH6TXQouxF_7BQu-111">
          <mxGeometry width="40" height="40" as="geometry" />
        </mxCell>
        <mxCell id="lIgfKyH6TXQouxF_7BQu-114" value="" style="group" vertex="1" connectable="0" parent="1">
          <mxGeometry x="92" y="6390" width="170" height="40" as="geometry" />
        </mxCell>
        <mxCell id="lIgfKyH6TXQouxF_7BQu-115" value="Pseudocode" style="rounded=1;whiteSpace=wrap;html=1;fontSize=20;fillColor=#ffcccc;strokeColor=#36393d;strokeWidth=2;fontFamily=Mina;arcSize=50;hachureGap=4;align=right;spacingRight=5;fontStyle=1" vertex="1" parent="lIgfKyH6TXQouxF_7BQu-114">
          <mxGeometry x="10" width="150" height="40" as="geometry" />
        </mxCell>
        <mxCell id="lIgfKyH6TXQouxF_7BQu-116" value="4.2" style="ellipse;whiteSpace=wrap;html=1;aspect=fixed;strokeWidth=2;fillColor=#e51400;strokeColor=#36393d;fontFamily=Mina;fontStyle=1;fontSize=20;spacingTop=3;fontColor=#ffffff;" vertex="1" parent="lIgfKyH6TXQouxF_7BQu-114">
          <mxGeometry width="40" height="40" as="geometry" />
        </mxCell>
        <mxCell id="lIgfKyH6TXQouxF_7BQu-123" value="" style="group" vertex="1" connectable="0" parent="1">
          <mxGeometry x="69" y="6450" width="690" height="560" as="geometry" />
        </mxCell>
        <mxCell id="lIgfKyH6TXQouxF_7BQu-124" value="&lt;div style=&quot;&quot;&gt;&lt;div style=&quot;line-height: 19px;&quot;&gt;&lt;div style=&quot;&quot;&gt;&lt;div style=&quot;line-height: 19px;&quot;&gt;&lt;div style=&quot;&quot;&gt;&lt;div style=&quot;line-height: 120%;&quot;&gt;&lt;div style=&quot;line-height: 120%;&quot;&gt;&lt;div style=&quot;line-height: 120%;&quot;&gt;&lt;div style=&quot;line-height: 120%;&quot;&gt;&lt;div style=&quot;line-height: 120%;&quot;&gt;&lt;div style=&quot;line-height: 120%;&quot;&gt;&lt;div style=&quot;line-height: 120%;&quot;&gt;&lt;div style=&quot;line-height: 120%;&quot;&gt;&lt;div style=&quot;line-height: 120%;&quot;&gt;&lt;div style=&quot;color: rgb(255, 255, 255); font-size: 19px; white-space: pre; line-height: 120%;&quot;&gt;function &lt;span style=&quot;color: rgb(250, 208, 0); font-size: 19px;&quot;&gt;Partition&lt;/span&gt;&lt;span style=&quot;color: rgb(225, 239, 255); font-size: 19px;&quot;&gt;(&lt;/span&gt;&lt;span style=&quot;color: rgb(158, 255, 255); font-size: 19px;&quot;&gt;left&lt;/span&gt;&lt;span style=&quot;color: rgb(225, 239, 255); font-size: 19px;&quot;&gt;,&lt;/span&gt;&lt;span style=&quot;color: rgb(158, 255, 255); font-size: 19px;&quot;&gt; right&lt;/span&gt;&lt;span style=&quot;color: rgb(225, 239, 255); font-size: 19px;&quot;&gt;,&lt;/span&gt;&lt;span style=&quot;color: rgb(158, 255, 255); font-size: 19px;&quot;&gt; pivot&lt;/span&gt;&lt;span style=&quot;color: rgb(225, 239, 255); font-size: 19px;&quot;&gt;){&lt;/span&gt;&lt;/div&gt;&lt;div style=&quot;color: rgb(255, 255, 255); font-size: 19px; white-space: pre; line-height: 120%;&quot;&gt;&amp;nbsp; &amp;nbsp; &lt;span style=&quot;color: rgb(158, 255, 255);&quot;&gt;l&lt;/span&gt; = left&lt;/div&gt;&lt;div style=&quot;color: rgb(255, 255, 255); font-size: 19px; white-space: pre; line-height: 120%;&quot;&gt;&amp;nbsp; &amp;nbsp; &lt;span style=&quot;color: rgb(158, 255, 255);&quot;&gt;r&lt;/span&gt; = right &lt;span style=&quot;color: rgb(255, 157, 0); font-size: 19px;&quot;&gt;-&lt;/span&gt; &lt;span style=&quot;color: rgb(255, 98, 140); font-size: 19px;&quot;&gt;1&lt;/span&gt;&lt;/div&gt;&lt;div style=&quot;color: rgb(255, 255, 255); font-size: 19px; white-space: pre; line-height: 120%;&quot;&gt;&amp;nbsp; &amp;nbsp; &lt;span style=&quot;color: rgb(255, 157, 0); font-size: 19px;&quot;&gt;while&lt;/span&gt; true&lt;/div&gt;&lt;div style=&quot;color: rgb(255, 255, 255); font-size: 19px; white-space: pre; line-height: 120%;&quot;&gt;&amp;nbsp; &amp;nbsp; &amp;nbsp; &amp;nbsp; &lt;span style=&quot;color: rgb(255, 157, 0); font-size: 19px;&quot;&gt;while&lt;/span&gt; &lt;span style=&quot;color: rgb(158, 255, 255); font-size: 19px;&quot;&gt;A&lt;/span&gt;&lt;span style=&quot;color: rgb(225, 239, 255); font-size: 19px;&quot;&gt;[&lt;/span&gt;&lt;span style=&quot;color: rgb(158, 255, 255); font-size: 19px;&quot;&gt; l &lt;/span&gt;&lt;span style=&quot;color: rgb(225, 239, 255); font-size: 19px;&quot;&gt;]&lt;/span&gt; &lt;span style=&quot;color: rgb(255, 157, 0); font-size: 19px;&quot;&gt;&amp;lt;&lt;/span&gt; pivot do &lt;span style=&quot;color: rgb(158, 255, 255);&quot;&gt;l&lt;/span&gt; = &lt;span style=&quot;color: rgb(158, 255, 255);&quot;&gt;l&lt;/span&gt; &lt;span style=&quot;color: rgb(255, 157, 0); font-size: 19px;&quot;&gt;+&lt;/span&gt; &lt;span style=&quot;color: rgb(255, 98, 140); font-size: 19px;&quot;&gt;1&lt;/span&gt; end &lt;span style=&quot;color: rgb(255, 157, 0); font-size: 19px;&quot;&gt;while&lt;/span&gt;&lt;/div&gt;&lt;div style=&quot;color: rgb(255, 255, 255); font-size: 19px; white-space: pre; line-height: 120%;&quot;&gt;&amp;nbsp; &amp;nbsp; &amp;nbsp; &amp;nbsp; &lt;span style=&quot;color: rgb(255, 157, 0); font-size: 19px;&quot;&gt;while&lt;/span&gt; &lt;span style=&quot;color: rgb(158, 255, 255); font-size: 19px;&quot;&gt;A&lt;/span&gt;&lt;span style=&quot;color: rgb(225, 239, 255); font-size: 19px;&quot;&gt;[&lt;/span&gt;&lt;span style=&quot;color: rgb(158, 255, 255); font-size: 19px;&quot;&gt; r &lt;/span&gt;&lt;span style=&quot;color: rgb(225, 239, 255); font-size: 19px;&quot;&gt;]&lt;/span&gt; &lt;span style=&quot;color: rgb(255, 157, 0); font-size: 19px;&quot;&gt;&amp;gt;&lt;/span&gt; pivot &lt;span style=&quot;color: rgb(255, 157, 0); font-size: 19px;&quot;&gt;and&lt;/span&gt; &lt;span style=&quot;color: rgb(158, 255, 255);&quot;&gt;r&lt;/span&gt; &lt;span style=&quot;color: rgb(255, 157, 0); font-size: 19px;&quot;&gt;&amp;gt;&lt;/span&gt; &lt;span style=&quot;color: rgb(255, 98, 140); font-size: 19px;&quot;&gt;0&lt;/span&gt; do &lt;span style=&quot;color: rgb(158, 255, 255);&quot;&gt;r&lt;/span&gt; = &lt;span style=&quot;color: rgb(158, 255, 255);&quot;&gt;r&lt;/span&gt; &lt;span style=&quot;color: rgb(255, 157, 0); font-size: 19px;&quot;&gt;-&lt;/span&gt; &lt;span style=&quot;color: rgb(255, 98, 140); font-size: 19px;&quot;&gt;1&lt;/span&gt; end &lt;span style=&quot;color: rgb(255, 157, 0); font-size: 19px;&quot;&gt;while&lt;/span&gt;&lt;/div&gt;&lt;div style=&quot;line-height: 120%;&quot;&gt;&lt;font color=&quot;#ffffff&quot;&gt;&amp;nbsp; &amp;nbsp; &amp;nbsp; &amp;nbsp; &lt;/font&gt;&lt;span style=&quot;color: rgb(255, 157, 0); font-size: 19px; white-space: pre;&quot;&gt;if&lt;/span&gt;&lt;font color=&quot;#ffffff&quot;&gt; &lt;/font&gt;&lt;span style=&quot;color: rgb(158, 255, 255);&quot;&gt;l&lt;/span&gt;&lt;font color=&quot;#ffffff&quot;&gt; &lt;/font&gt;&lt;span style=&quot;background-color: initial;&quot;&gt;&lt;font color=&quot;#ff9d00&quot;&gt;≥&lt;/font&gt;&lt;/span&gt;&lt;span style=&quot;color: rgb(255, 255, 255); font-size: 19px; white-space: pre; background-color: initial;&quot;&gt; &lt;/span&gt;&lt;span style=&quot;color: rgb(158, 255, 255);&quot;&gt;r&lt;/span&gt;&lt;span style=&quot;color: rgb(255, 255, 255); font-size: 19px; white-space: pre; background-color: initial;&quot;&gt; &lt;/span&gt;&lt;span style=&quot;color: rgb(255, 157, 0); font-size: 19px; white-space: pre; background-color: initial;&quot;&gt;break&lt;/span&gt;&lt;/div&gt;&lt;div style=&quot;color: rgb(255, 255, 255); font-size: 19px; white-space: pre; line-height: 120%;&quot;&gt;&amp;nbsp; &amp;nbsp; &amp;nbsp; &amp;nbsp; &amp;nbsp; &amp;nbsp; &lt;span style=&quot;color: rgb(255, 157, 0); font-size: 19px;&quot;&gt;else&lt;/span&gt; &lt;span style=&quot;color: rgb(250, 208, 0); font-size: 19px;&quot;&gt;swap&lt;/span&gt;&lt;span style=&quot;color: rgb(225, 239, 255); font-size: 19px;&quot;&gt;( &lt;/span&gt;&lt;span style=&quot;color: rgb(158, 255, 255); font-size: 19px;&quot;&gt;l &lt;/span&gt;&lt;span style=&quot;color: rgb(225, 239, 255); font-size: 19px;&quot;&gt;, &lt;/span&gt;&lt;span style=&quot;color: rgb(158, 255, 255); font-size: 19px;&quot;&gt;r &lt;/span&gt;&lt;span style=&quot;color: rgb(225, 239, 255); font-size: 19px;&quot;&gt;)&lt;/span&gt;&lt;/div&gt;&lt;div style=&quot;color: rgb(255, 255, 255); font-size: 19px; white-space: pre; line-height: 120%;&quot;&gt;&amp;nbsp; &amp;nbsp; &amp;nbsp; &amp;nbsp; end &lt;span style=&quot;color: rgb(255, 157, 0); font-size: 19px;&quot;&gt;if&lt;/span&gt;&lt;/div&gt;&lt;div style=&quot;color: rgb(255, 255, 255); font-size: 19px; white-space: pre; line-height: 120%;&quot;&gt;&amp;nbsp; &amp;nbsp; end &lt;span style=&quot;color: rgb(255, 157, 0); font-size: 19px;&quot;&gt;while&lt;/span&gt;&lt;/div&gt;&lt;div style=&quot;color: rgb(255, 255, 255); font-size: 19px; white-space: pre; line-height: 120%;&quot;&gt;&amp;nbsp; &amp;nbsp; &lt;span style=&quot;color: rgb(250, 208, 0); font-size: 19px;&quot;&gt;Swap&lt;/span&gt;&lt;span style=&quot;color: rgb(225, 239, 255); font-size: 19px;&quot;&gt;(&lt;/span&gt;&lt;span style=&quot;color: rgb(158, 255, 255); font-size: 19px;&quot;&gt;l&lt;/span&gt;&lt;span style=&quot;color: rgb(225, 239, 255); font-size: 19px;&quot;&gt;,&lt;/span&gt;&lt;span style=&quot;color: rgb(158, 255, 255); font-size: 19px;&quot;&gt; right&lt;/span&gt;&lt;span style=&quot;color: rgb(225, 239, 255); font-size: 19px;&quot;&gt;)&lt;/span&gt;&lt;/div&gt;&lt;div style=&quot;color: rgb(255, 255, 255); font-size: 19px; white-space: pre; line-height: 120%;&quot;&gt;&amp;nbsp; &amp;nbsp; &lt;span style=&quot;color: rgb(255, 157, 0); font-size: 19px;&quot;&gt;return&lt;/span&gt; &lt;span style=&quot;color: rgb(158, 255, 255); background-color: initial; font-size: 19px;&quot;&gt;l&lt;/span&gt;&lt;/div&gt;&lt;div style=&quot;color: rgb(255, 255, 255); font-size: 19px; white-space: pre; line-height: 120%;&quot;&gt;end function&lt;/div&gt;&lt;div style=&quot;color: rgb(255, 255, 255); font-size: 19px; white-space: pre; line-height: 120%;&quot;&gt;&lt;div style=&quot;line-height: 120%;&quot;&gt;function &lt;span style=&quot;color: rgb(250, 208, 0);&quot;&gt;quicksort&lt;/span&gt;&lt;span style=&quot;color: rgb(225, 239, 255);&quot;&gt;(&lt;/span&gt;&lt;span style=&quot;color: rgb(158, 255, 255);&quot;&gt;left&lt;/span&gt;&lt;span style=&quot;color: rgb(225, 239, 255);&quot;&gt;,&lt;/span&gt;&lt;span style=&quot;color: rgb(158, 255, 255);&quot;&gt; right&lt;/span&gt;&lt;span style=&quot;color: rgb(225, 239, 255);&quot;&gt;){&lt;/span&gt;&lt;/div&gt;&lt;div style=&quot;line-height: 120%;&quot;&gt;&amp;nbsp; &amp;nbsp; &lt;span style=&quot;color: rgb(255, 157, 0);&quot;&gt;if&lt;/span&gt; right&lt;span style=&quot;color: rgb(255, 157, 0);&quot;&gt;-&lt;/span&gt;left &lt;span style=&quot;color: rgb(255, 157, 0);&quot;&gt;&amp;lt;&lt;/span&gt; ≤ &lt;span style=&quot;color: rgb(255, 157, 0);&quot;&gt;return&lt;/span&gt; end &lt;span style=&quot;color: rgb(255, 157, 0);&quot;&gt;if&lt;/span&gt;&lt;/div&gt;&lt;div style=&quot;line-height: 120%;&quot;&gt;&amp;nbsp; &amp;nbsp; pivot = &lt;span style=&quot;color: rgb(158, 255, 255);&quot;&gt;A&lt;/span&gt;&lt;span style=&quot;color: rgb(225, 239, 255);&quot;&gt;[&lt;/span&gt;&lt;span style=&quot;color: rgb(158, 255, 255);&quot;&gt;right&lt;/span&gt;&lt;span style=&quot;color: rgb(225, 239, 255);&quot;&gt;]&lt;/span&gt;&lt;/div&gt;&lt;div style=&quot;line-height: 120%;&quot;&gt;&amp;nbsp; &amp;nbsp; Partition = &lt;span style=&quot;color: rgb(250, 208, 0);&quot;&gt;PartitionFunc&lt;/span&gt;&lt;span style=&quot;color: rgb(225, 239, 255);&quot;&gt;(&lt;/span&gt;&lt;span style=&quot;color: rgb(158, 255, 255);&quot;&gt;left&lt;/span&gt;&lt;span style=&quot;color: rgb(225, 239, 255);&quot;&gt;,&lt;/span&gt;&lt;span style=&quot;color: rgb(158, 255, 255);&quot;&gt; right&lt;/span&gt;&lt;span style=&quot;color: rgb(225, 239, 255);&quot;&gt;,&lt;/span&gt;&lt;span style=&quot;color: rgb(158, 255, 255);&quot;&gt; Pivot&lt;/span&gt;&lt;span style=&quot;color: rgb(225, 239, 255);&quot;&gt;)&lt;/span&gt;&lt;/div&gt;&lt;div style=&quot;line-height: 120%;&quot;&gt;&amp;nbsp; &amp;nbsp; &lt;span style=&quot;color: rgb(250, 208, 0);&quot;&gt;quicksort&lt;/span&gt;&lt;span style=&quot;color: rgb(225, 239, 255);&quot;&gt;(&lt;/span&gt;&lt;span style=&quot;color: rgb(158, 255, 255);&quot;&gt;left&lt;/span&gt;&lt;span style=&quot;color: rgb(225, 239, 255);&quot;&gt;,&lt;/span&gt;&lt;span style=&quot;color: rgb(158, 255, 255);&quot;&gt; Partition &lt;/span&gt;&lt;span style=&quot;color: rgb(255, 157, 0);&quot;&gt;-&lt;/span&gt;&lt;span style=&quot;color: rgb(158, 255, 255);&quot;&gt; &lt;/span&gt;&lt;span style=&quot;color: rgb(255, 98, 140);&quot;&gt;1&lt;/span&gt;&lt;span style=&quot;color: rgb(225, 239, 255);&quot;&gt;)&lt;/span&gt;&lt;/div&gt;&lt;div style=&quot;line-height: 120%;&quot;&gt;&amp;nbsp; &amp;nbsp; &lt;span style=&quot;color: rgb(250, 208, 0);&quot;&gt;quicksort&lt;/span&gt;&lt;span style=&quot;color: rgb(225, 239, 255);&quot;&gt;(&lt;/span&gt;&lt;span style=&quot;color: rgb(158, 255, 255);&quot;&gt;Partition &lt;/span&gt;&lt;span style=&quot;color: rgb(255, 157, 0);&quot;&gt;+&lt;/span&gt;&lt;span style=&quot;color: rgb(158, 255, 255);&quot;&gt; &lt;/span&gt;&lt;span style=&quot;color: rgb(255, 98, 140);&quot;&gt;1&lt;/span&gt;&lt;span style=&quot;color: rgb(225, 239, 255);&quot;&gt;,&lt;/span&gt;&lt;span style=&quot;color: rgb(158, 255, 255);&quot;&gt; right&lt;/span&gt;&lt;span style=&quot;color: rgb(225, 239, 255);&quot;&gt;)&lt;/span&gt;&lt;/div&gt;&lt;div style=&quot;line-height: 120%;&quot;&gt;end function&lt;/div&gt;&lt;/div&gt;&lt;/div&gt;&lt;/div&gt;&lt;/div&gt;&lt;/div&gt;&lt;/div&gt;&lt;/div&gt;&lt;/div&gt;&lt;/div&gt;&lt;/div&gt;&lt;/div&gt;&lt;/div&gt;&lt;/div&gt;&lt;/div&gt;&lt;/div&gt;" style="rounded=1;whiteSpace=wrap;html=1;arcSize=5;strokeWidth=2;fillColor=#191830;strokeColor=none;align=left;verticalAlign=top;spacing=15;spacingTop=31;fontSize=19;fontFamily=Mina;fontStyle=0;labelBackgroundColor=none;" vertex="1" parent="lIgfKyH6TXQouxF_7BQu-123">
          <mxGeometry width="690" height="530" as="geometry" />
        </mxCell>
        <mxCell id="lIgfKyH6TXQouxF_7BQu-125" value="" style="group" vertex="1" connectable="0" parent="lIgfKyH6TXQouxF_7BQu-123">
          <mxGeometry x="12" y="20.800000000000182" width="72" height="22.88" as="geometry" />
        </mxCell>
        <mxCell id="lIgfKyH6TXQouxF_7BQu-126" value="&amp;nbsp; &amp;nbsp; &amp;nbsp; &amp;nbsp; &amp;nbsp; &amp;nbsp; &amp;nbsp; " style="strokeWidth=2;html=1;shape=mxgraph.flowchart.start_2;whiteSpace=wrap;fillColor=#ff5f56;strokeColor=none;" vertex="1" parent="lIgfKyH6TXQouxF_7BQu-125">
          <mxGeometry x="2" y="2.0799999999999996" width="16" height="16.639999999999997" as="geometry" />
        </mxCell>
        <mxCell id="lIgfKyH6TXQouxF_7BQu-127" value="&amp;nbsp; &amp;nbsp; &amp;nbsp; &amp;nbsp; &amp;nbsp; &amp;nbsp; &amp;nbsp; " style="strokeWidth=2;html=1;shape=mxgraph.flowchart.start_2;whiteSpace=wrap;fillColor=#ffbd2e;strokeColor=none;" vertex="1" parent="lIgfKyH6TXQouxF_7BQu-125">
          <mxGeometry x="27" y="2.0799999999999996" width="16" height="16.639999999999997" as="geometry" />
        </mxCell>
        <mxCell id="lIgfKyH6TXQouxF_7BQu-128" value="&amp;nbsp; &amp;nbsp; &amp;nbsp; &amp;nbsp; &amp;nbsp; &amp;nbsp; &amp;nbsp; " style="strokeWidth=2;html=1;shape=mxgraph.flowchart.start_2;whiteSpace=wrap;fillColor=#1fa831;strokeColor=none;" vertex="1" parent="lIgfKyH6TXQouxF_7BQu-125">
          <mxGeometry x="52" y="2.0799999999999996" width="16" height="16.639999999999997" as="geometry" />
        </mxCell>
        <mxCell id="lIgfKyH6TXQouxF_7BQu-129" value="" style="group" vertex="1" connectable="0" parent="1">
          <mxGeometry x="64" y="6000" width="699" height="360" as="geometry" />
        </mxCell>
        <mxCell id="lIgfKyH6TXQouxF_7BQu-118" value="&lt;div style=&quot;&quot;&gt;&lt;div style=&quot;line-height: 19px;&quot;&gt;&lt;div style=&quot;&quot;&gt;&lt;div style=&quot;line-height: 19px;&quot;&gt;&lt;div style=&quot;&quot;&gt;&lt;div style=&quot;line-height: 120%;&quot;&gt;&lt;div style=&quot;line-height: 120%;&quot;&gt;&lt;div style=&quot;line-height: 120%;&quot;&gt;&lt;div style=&quot;line-height: 120%;&quot;&gt;&lt;div style=&quot;line-height: 120%;&quot;&gt;&lt;div style=&quot;line-height: 120%;&quot;&gt;&lt;div style=&quot;line-height: 120%;&quot;&gt;&lt;div style=&quot;line-height: 120%;&quot;&gt;&lt;div style=&quot;line-height: 120%;&quot;&gt;&lt;div style=&quot;line-height: 120%;&quot;&gt;&lt;div style=&quot;line-height: 120%;&quot;&gt;&lt;div style=&quot;color: rgb(255, 255, 255); font-size: 20px; white-space: pre; line-height: 120%;&quot;&gt;&lt;span style=&quot;color: rgb(225, 239, 255); font-size: 20px;&quot;&gt;Step &lt;/span&gt;&lt;span style=&quot;color: rgb(255, 98, 140); font-size: 20px;&quot;&gt;1&lt;/span&gt;&lt;span style=&quot;color: rgb(225, 239, 255); font-size: 20px;&quot;&gt;: Choose the most right &lt;/span&gt;&lt;span style=&quot;color: rgb(250, 239, 165); font-size: 20px;&quot;&gt;index&lt;/span&gt;&lt;span style=&quot;color: rgb(225, 239, 255); font-size: 20px;&quot;&gt; &lt;/span&gt;&lt;span style=&quot;color: rgb(250, 239, 165); font-size: 20px;&quot;&gt;Value&lt;/span&gt;&lt;span style=&quot;color: rgb(225, 239, 255); font-size: 20px;&quot;&gt; &lt;/span&gt;&lt;span style=&quot;color: rgb(250, 239, 165); font-size: 20px;&quot;&gt;as&lt;/span&gt;&lt;span style=&quot;color: rgb(225, 239, 255); font-size: 20px;&quot;&gt; pivot&lt;/span&gt;&lt;/div&gt;&lt;div style=&quot;color: rgb(255, 255, 255); font-size: 20px; white-space: pre; line-height: 120%;&quot;&gt;&lt;span style=&quot;color: rgb(225, 239, 255); font-size: 20px;&quot;&gt;Step &lt;/span&gt;&lt;span style=&quot;color: rgb(255, 98, 140); font-size: 20px;&quot;&gt;3&lt;/span&gt;&lt;span style=&quot;color: rgb(225, 239, 255); font-size: 20px;&quot;&gt;: &lt;/span&gt;&lt;span style=&quot;color: rgb(250, 239, 165); font-size: 20px;&quot;&gt;Take&lt;/span&gt;&lt;span style=&quot;color: rgb(225, 239, 255); font-size: 20px;&quot;&gt; &lt;/span&gt;&lt;span style=&quot;color: rgb(255, 98, 140); font-size: 20px;&quot;&gt;2&lt;/span&gt;&lt;span style=&quot;color: rgb(225, 239, 255); font-size: 20px;&quot;&gt; variables &lt;/span&gt;&lt;span style=&quot;color: rgb(250, 239, 165); font-size: 20px;&quot;&gt;to&lt;/span&gt;&lt;span style=&quot;color: rgb(225, 239, 255); font-size: 20px;&quot;&gt; &lt;/span&gt;&lt;span style=&quot;color: rgb(255, 157, 0); font-size: 20px;&quot;&gt;point&lt;/span&gt;&lt;span style=&quot;color: rgb(225, 239, 255); font-size: 20px;&quot;&gt; left &lt;/span&gt;&lt;span style=&quot;color: rgb(255, 157, 0); font-size: 20px;&quot;&gt;and&lt;/span&gt;&lt;span style=&quot;color: rgb(225, 239, 255); font-size: 20px;&quot;&gt; right of the list&lt;/span&gt;&lt;/div&gt;&lt;div style=&quot;color: rgb(255, 255, 255); font-size: 20px; white-space: pre; line-height: 120%;&quot;&gt;&lt;span style=&quot;color: rgb(225, 239, 255); font-size: 20px;&quot;&gt;Step &lt;/span&gt;&lt;span style=&quot;color: rgb(255, 98, 140); font-size: 20px;&quot;&gt;3&lt;/span&gt;&lt;span style=&quot;color: rgb(225, 239, 255); font-size: 20px;&quot;&gt;: left Points &lt;/span&gt;&lt;span style=&quot;color: rgb(250, 239, 165); font-size: 20px;&quot;&gt;to&lt;/span&gt;&lt;span style=&quot;color: rgb(225, 239, 255); font-size: 20px;&quot;&gt; the low &lt;/span&gt;&lt;span style=&quot;color: rgb(250, 239, 165); font-size: 20px;&quot;&gt;index&lt;/span&gt;&lt;span style=&quot;color: rgb(225, 239, 255); font-size: 20px;&quot;&gt;.&lt;/span&gt;&lt;/div&gt;&lt;div style=&quot;color: rgb(255, 255, 255); font-size: 20px; white-space: pre; line-height: 120%;&quot;&gt;&lt;span style=&quot;color: rgb(225, 239, 255); font-size: 20px;&quot;&gt;Step &lt;/span&gt;&lt;span style=&quot;color: rgb(255, 98, 140); font-size: 20px;&quot;&gt;4&lt;/span&gt;&lt;span style=&quot;color: rgb(225, 239, 255); font-size: 20px;&quot;&gt;: right Points &lt;/span&gt;&lt;span style=&quot;color: rgb(250, 239, 165); font-size: 20px;&quot;&gt;to&lt;/span&gt;&lt;span style=&quot;color: rgb(225, 239, 255); font-size: 20px;&quot;&gt; the high &lt;/span&gt;&lt;span style=&quot;color: rgb(250, 239, 165); font-size: 20px;&quot;&gt;index&lt;/span&gt;&lt;/div&gt;&lt;div style=&quot;color: rgb(255, 255, 255); font-size: 20px; white-space: pre; line-height: 120%;&quot;&gt;&lt;span style=&quot;color: rgb(225, 239, 255); font-size: 20px;&quot;&gt;Step &lt;/span&gt;&lt;span style=&quot;color: rgb(255, 98, 140); font-size: 20px;&quot;&gt;5&lt;/span&gt;&lt;span style=&quot;color: rgb(225, 239, 255); font-size: 20px;&quot;&gt;: &lt;/span&gt;&lt;span style=&quot;color: rgb(250, 239, 165); font-size: 20px;&quot;&gt;while&lt;/span&gt;&lt;span style=&quot;color: rgb(225, 239, 255); font-size: 20px;&quot;&gt; &lt;/span&gt;&lt;span style=&quot;color: rgb(250, 239, 165); font-size: 20px;&quot;&gt;value&lt;/span&gt;&lt;span style=&quot;color: rgb(225, 239, 255); font-size: 20px;&quot;&gt; &lt;/span&gt;&lt;span style=&quot;color: rgb(250, 239, 165); font-size: 20px;&quot;&gt;at&lt;/span&gt;&lt;span style=&quot;color: rgb(225, 239, 255); font-size: 20px;&quot;&gt; left &lt;/span&gt;&lt;span style=&quot;color: rgb(255, 157, 0); font-size: 20px;&quot;&gt;&amp;lt;&lt;/span&gt;&lt;span style=&quot;color: rgb(225, 239, 255); font-size: 20px;&quot;&gt; pivot &lt;/span&gt;&lt;span style=&quot;color: rgb(250, 239, 165); font-size: 20px;&quot;&gt;move&lt;/span&gt;&lt;span style=&quot;color: rgb(225, 239, 255); font-size: 20px;&quot;&gt; &lt;/span&gt;&lt;span style=&quot;color: rgb(250, 239, 165); font-size: 20px;&quot;&gt;to&lt;/span&gt;&lt;span style=&quot;color: rgb(225, 239, 255); font-size: 20px;&quot;&gt; right&lt;/span&gt;&lt;/div&gt;&lt;div style=&quot;color: rgb(255, 255, 255); font-size: 20px; white-space: pre; line-height: 120%;&quot;&gt;&lt;span style=&quot;color: rgb(225, 239, 255); font-size: 20px;&quot;&gt;Step &lt;/span&gt;&lt;span style=&quot;color: rgb(255, 98, 140); font-size: 20px;&quot;&gt;6&lt;/span&gt;&lt;span style=&quot;color: rgb(225, 239, 255); font-size: 20px;&quot;&gt;: &lt;/span&gt;&lt;span style=&quot;color: rgb(250, 239, 165); font-size: 20px;&quot;&gt;while&lt;/span&gt;&lt;span style=&quot;color: rgb(225, 239, 255); font-size: 20px;&quot;&gt; &lt;/span&gt;&lt;span style=&quot;color: rgb(250, 239, 165); font-size: 20px;&quot;&gt;value&lt;/span&gt;&lt;span style=&quot;color: rgb(225, 239, 255); font-size: 20px;&quot;&gt; &lt;/span&gt;&lt;span style=&quot;color: rgb(250, 239, 165); font-size: 20px;&quot;&gt;at&lt;/span&gt;&lt;span style=&quot;color: rgb(225, 239, 255); font-size: 20px;&quot;&gt; right &lt;/span&gt;&lt;span style=&quot;color: rgb(255, 157, 0); font-size: 20px;&quot;&gt;&amp;gt;&lt;/span&gt;&lt;span style=&quot;color: rgb(225, 239, 255); font-size: 20px;&quot;&gt; pivot &lt;/span&gt;&lt;span style=&quot;color: rgb(250, 239, 165); font-size: 20px;&quot;&gt;move&lt;/span&gt;&lt;span style=&quot;color: rgb(225, 239, 255); font-size: 20px;&quot;&gt; &lt;/span&gt;&lt;span style=&quot;color: rgb(250, 239, 165); font-size: 20px;&quot;&gt;to&lt;/span&gt;&lt;span style=&quot;color: rgb(225, 239, 255); font-size: 20px;&quot;&gt; left&lt;/span&gt;&lt;/div&gt;&lt;div style=&quot;line-height: 120%;&quot;&gt;&lt;span style=&quot;color: rgb(225, 239, 255); font-size: 20px; white-space: pre;&quot;&gt;Step &lt;/span&gt;&lt;span style=&quot;color: rgb(255, 98, 140); font-size: 20px; white-space: pre;&quot;&gt;7&lt;/span&gt;&lt;span style=&quot;color: rgb(225, 239, 255); font-size: 20px; white-space: pre;&quot;&gt;: &lt;/span&gt;&lt;span style=&quot;color: rgb(250, 239, 165); font-size: 20px; white-space: pre;&quot;&gt;If&lt;/span&gt;&lt;span style=&quot;color: rgb(225, 239, 255); font-size: 20px; white-space: pre;&quot;&gt; left &lt;/span&gt;&lt;span style=&quot;color: rgb(255, 157, 0); font-size: 20px; white-space: pre;&quot;&gt;&amp;lt;&lt;/span&gt;&lt;span style=&quot;color: rgb(225, 239, 255); font-size: 20px; white-space: pre; background-color: initial;&quot;&gt; right Swap left &lt;/span&gt;&lt;span style=&quot;color: rgb(255, 157, 0); font-size: 20px; white-space: pre; background-color: initial;&quot;&gt;and&lt;/span&gt;&lt;span style=&quot;color: rgb(225, 239, 255); font-size: 20px; white-space: pre; background-color: initial;&quot;&gt; right&lt;/span&gt;&lt;/div&gt;&lt;div style=&quot;color: rgb(255, 255, 255); font-size: 20px; white-space: pre; line-height: 120%;&quot;&gt;&lt;span style=&quot;color: rgb(225, 239, 255); font-size: 20px;&quot;&gt;Step &lt;/span&gt;&lt;span style=&quot;color: rgb(255, 98, 140); font-size: 20px;&quot;&gt;8&lt;/span&gt;&lt;span style=&quot;color: rgb(225, 239, 255); font-size: 20px;&quot;&gt;: &lt;/span&gt;&lt;span style=&quot;color: rgb(250, 239, 165); font-size: 20px;&quot;&gt;If&lt;/span&gt;&lt;span style=&quot;color: rgb(225, 239, 255); font-size: 20px;&quot;&gt; left &lt;/span&gt;&lt;span style=&quot;color: rgb(255, 157, 0);&quot;&gt;≥&lt;/span&gt;&lt;span style=&quot;color: rgb(225, 239, 255); font-size: 20px;&quot;&gt; right, the &lt;/span&gt;&lt;span style=&quot;color: rgb(255, 157, 0); font-size: 20px;&quot;&gt;Point&lt;/span&gt;&lt;span style=&quot;color: rgb(225, 239, 255); font-size: 20px;&quot;&gt; &lt;/span&gt;&lt;span style=&quot;color: rgb(255, 157, 0); font-size: 20px;&quot;&gt;where&lt;/span&gt;&lt;span style=&quot;color: rgb(225, 239, 255); font-size: 20px;&quot;&gt; they met &lt;/span&gt;&lt;span style=&quot;color: rgb(250, 239, 165); font-size: 20px;&quot;&gt;is&lt;/span&gt;&lt;span style=&quot;color: rgb(225, 239, 255); font-size: 20px;&quot;&gt; new pivot&lt;/span&gt;&lt;/div&gt;&lt;/div&gt;&lt;/div&gt;&lt;div style=&quot;font-size: 20px; white-space: pre; line-height: 120%;&quot;&gt;&lt;span style=&quot;color: rgb(225, 239, 255); font-size: 20px;&quot;&gt;Step &lt;/span&gt;&lt;span style=&quot;font-size: 20px;&quot;&gt;&lt;font color=&quot;#ff628c&quot;&gt;9&lt;/font&gt;&lt;/span&gt;&lt;span style=&quot;color: rgb(225, 239, 255); font-size: 20px;&quot;&gt;: make the right most &lt;/span&gt;&lt;span style=&quot;color: rgb(250, 239, 165); font-size: 20px;&quot;&gt;value&lt;/span&gt;&lt;span style=&quot;color: rgb(225, 239, 255); font-size: 20px;&quot;&gt; Pivot&lt;/span&gt;&lt;/div&gt;&lt;div style=&quot;font-size: 20px; white-space: pre; line-height: 120%;&quot;&gt;&lt;span style=&quot;color: rgb(225, 239, 255); font-size: 20px;&quot;&gt;Step &lt;/span&gt;&lt;span style=&quot;font-size: 20px;&quot;&gt;&lt;font color=&quot;#ff628c&quot;&gt;10&lt;/font&gt;&lt;/span&gt;&lt;span style=&quot;color: rgb(225, 239, 255); font-size: 20px;&quot;&gt;: &lt;/span&gt;&lt;span style=&quot;color: rgb(250, 239, 165); font-size: 20px;&quot;&gt;Partition&lt;/span&gt;&lt;span style=&quot;color: rgb(225, 239, 255); font-size: 20px;&quot;&gt; the &lt;/span&gt;&lt;span style=&quot;color: rgb(250, 239, 165); font-size: 20px;&quot;&gt;array&lt;/span&gt;&lt;span style=&quot;color: rgb(225, 239, 255); font-size: 20px;&quot;&gt; &lt;/span&gt;&lt;span style=&quot;color: rgb(250, 239, 165); font-size: 20px;&quot;&gt;using&lt;/span&gt;&lt;span style=&quot;color: rgb(225, 239, 255); font-size: 20px;&quot;&gt; Pivot &lt;/span&gt;&lt;span style=&quot;color: rgb(250, 239, 165); font-size: 20px;&quot;&gt;value&lt;/span&gt;&lt;/div&gt;&lt;div style=&quot;font-size: 20px; line-height: 120%;&quot;&gt;&lt;span style=&quot;color: rgb(225, 239, 255); font-size: 20px; white-space: pre;&quot;&gt;Step &lt;/span&gt;&lt;span style=&quot;font-size: 20px; white-space: pre;&quot;&gt;&lt;font color=&quot;#ff628c&quot;&gt;11&lt;/font&gt;&lt;/span&gt;&lt;span style=&quot;color: rgb(225, 239, 255); font-size: 20px; white-space: pre;&quot;&gt;: quick_Sort left &lt;/span&gt;&lt;span style=&quot;color: rgb(250, 239, 165); font-size: 20px; white-space: pre;&quot;&gt;Partition&lt;/span&gt;&lt;span style=&quot;color: rgb(225, 239, 255); font-size: 20px; white-space: pre;&quot;&gt; &lt;/span&gt;&lt;font style=&quot;font-size: 20px;&quot; color=&quot;#e1efff&quot;&gt;&lt;span style=&quot;font-size: 20px; white-space: pre;&quot;&gt;recursively&lt;/span&gt;&lt;/font&gt;&lt;/div&gt;&lt;div style=&quot;font-size: 20px; line-height: 120%;&quot;&gt;&lt;span style=&quot;color: rgb(225, 239, 255); font-size: 20px; white-space: pre;&quot;&gt;Step &lt;/span&gt;&lt;span style=&quot;font-size: 20px; white-space: pre;&quot;&gt;&lt;font color=&quot;#ff628c&quot;&gt;12&lt;/font&gt;&lt;/span&gt;&lt;span style=&quot;color: rgb(225, 239, 255); font-size: 20px; white-space: pre;&quot;&gt;: quick_Sort right &lt;/span&gt;&lt;span style=&quot;color: rgb(250, 239, 165); font-size: 20px; white-space: pre;&quot;&gt;Partition&lt;/span&gt;&lt;span style=&quot;color: rgb(225, 239, 255); font-size: 20px; white-space: pre;&quot;&gt; &lt;/span&gt;&lt;font style=&quot;font-size: 20px;&quot; color=&quot;#e1efff&quot;&gt;&lt;span style=&quot;font-size: 20px; white-space: pre;&quot;&gt;recursively&lt;/span&gt;&lt;/font&gt;&lt;/div&gt;&lt;/div&gt;&lt;/div&gt;&lt;/div&gt;&lt;/div&gt;&lt;/div&gt;&lt;/div&gt;&lt;/div&gt;&lt;/div&gt;&lt;/div&gt;&lt;/div&gt;&lt;/div&gt;&lt;/div&gt;&lt;/div&gt;&lt;/div&gt;" style="rounded=1;whiteSpace=wrap;html=1;arcSize=9;strokeWidth=2;fillColor=#333333;strokeColor=none;align=left;verticalAlign=top;spacing=15;spacingTop=31;fontSize=20;fontFamily=Mina;fontStyle=0;labelBackgroundColor=none;" vertex="1" parent="lIgfKyH6TXQouxF_7BQu-129">
          <mxGeometry width="699" height="360" as="geometry" />
        </mxCell>
        <mxCell id="lIgfKyH6TXQouxF_7BQu-119" value="" style="group" vertex="1" connectable="0" parent="lIgfKyH6TXQouxF_7BQu-129">
          <mxGeometry x="12" y="20.800000000000182" width="72" height="22.88" as="geometry" />
        </mxCell>
        <mxCell id="lIgfKyH6TXQouxF_7BQu-120" value="&amp;nbsp; &amp;nbsp; &amp;nbsp; &amp;nbsp; &amp;nbsp; &amp;nbsp; &amp;nbsp; " style="strokeWidth=2;html=1;shape=mxgraph.flowchart.start_2;whiteSpace=wrap;fillColor=#ff5f56;strokeColor=none;" vertex="1" parent="lIgfKyH6TXQouxF_7BQu-119">
          <mxGeometry x="2" y="2.0799999999999996" width="16" height="16.639999999999997" as="geometry" />
        </mxCell>
        <mxCell id="lIgfKyH6TXQouxF_7BQu-121" value="&amp;nbsp; &amp;nbsp; &amp;nbsp; &amp;nbsp; &amp;nbsp; &amp;nbsp; &amp;nbsp; " style="strokeWidth=2;html=1;shape=mxgraph.flowchart.start_2;whiteSpace=wrap;fillColor=#ffbd2e;strokeColor=none;" vertex="1" parent="lIgfKyH6TXQouxF_7BQu-119">
          <mxGeometry x="27" y="2.0799999999999996" width="16" height="16.639999999999997" as="geometry" />
        </mxCell>
        <mxCell id="lIgfKyH6TXQouxF_7BQu-122" value="&amp;nbsp; &amp;nbsp; &amp;nbsp; &amp;nbsp; &amp;nbsp; &amp;nbsp; &amp;nbsp; " style="strokeWidth=2;html=1;shape=mxgraph.flowchart.start_2;whiteSpace=wrap;fillColor=#1fa831;strokeColor=none;" vertex="1" parent="lIgfKyH6TXQouxF_7BQu-119">
          <mxGeometry x="52" y="2.0799999999999996" width="16" height="16.639999999999997" as="geometry" />
        </mxCell>
        <mxCell id="lIgfKyH6TXQouxF_7BQu-130" value="" style="group" vertex="1" connectable="0" parent="1">
          <mxGeometry x="40" y="7070" width="380" height="50" as="geometry" />
        </mxCell>
        <mxCell id="lIgfKyH6TXQouxF_7BQu-131" value="Merge Sort" style="rounded=1;whiteSpace=wrap;html=1;fontSize=22;fillColor=#cce5ff;strokeColor=#36393d;strokeWidth=2;fontFamily=Mina;arcSize=0;hachureGap=4;align=right;spacingRight=7;fontStyle=1" vertex="1" parent="lIgfKyH6TXQouxF_7BQu-130">
          <mxGeometry x="20" width="160" height="50" as="geometry" />
        </mxCell>
        <mxCell id="lIgfKyH6TXQouxF_7BQu-132" value="5" style="ellipse;whiteSpace=wrap;html=1;aspect=fixed;strokeWidth=2;fillColor=#0050ef;strokeColor=#001DBC;fontFamily=Mina;fontStyle=1;fontSize=22;spacingTop=3;fontColor=#ffffff;" vertex="1" parent="lIgfKyH6TXQouxF_7BQu-130">
          <mxGeometry width="50" height="50" as="geometry" />
        </mxCell>
        <mxCell id="lIgfKyH6TXQouxF_7BQu-133" value="Big `O(n*log(n))`" style="rounded=1;whiteSpace=wrap;html=1;strokeWidth=2;fillColor=#ffcccc;strokeColor=#36393d;arcSize=0;fontFamily=Mina;fontStyle=1;fontSize=22;align=center;spacingLeft=0;" vertex="1" parent="lIgfKyH6TXQouxF_7BQu-130">
          <mxGeometry x="180" width="200" height="50" as="geometry" />
        </mxCell>
        <mxCell id="lIgfKyH6TXQouxF_7BQu-134" value="" style="group" vertex="1" connectable="0" parent="1">
          <mxGeometry x="64" y="7150" width="699" height="780" as="geometry" />
        </mxCell>
        <mxCell id="lIgfKyH6TXQouxF_7BQu-135" value="&lt;div style=&quot;font-size: 20px;&quot;&gt;&lt;div style=&quot;line-height: 19px; font-size: 20px;&quot;&gt;&lt;div style=&quot;font-size: 20px;&quot;&gt;&lt;div style=&quot;line-height: 19px; font-size: 20px;&quot;&gt;&lt;div style=&quot;font-size: 20px;&quot;&gt;&lt;div style=&quot;line-height: 120%; font-size: 20px;&quot;&gt;&lt;div style=&quot;line-height: 120%; font-size: 20px;&quot;&gt;&lt;div style=&quot;line-height: 120%; font-size: 20px;&quot;&gt;&lt;div style=&quot;line-height: 120%; font-size: 20px;&quot;&gt;&lt;div style=&quot;line-height: 120%; font-size: 20px;&quot;&gt;&lt;div style=&quot;line-height: 120%; font-size: 20px;&quot;&gt;&lt;div style=&quot;line-height: 120%; font-size: 20px;&quot;&gt;&lt;div style=&quot;line-height: 120%; font-size: 20px;&quot;&gt;&lt;div style=&quot;line-height: 120%; font-size: 20px;&quot;&gt;&lt;div style=&quot;line-height: 120%; font-size: 20px;&quot;&gt;&lt;div style=&quot;line-height: 120%; font-size: 20px;&quot;&gt;&lt;div style=&quot;color: rgb(255, 255, 255); font-size: 20px; white-space: pre; line-height: 120%;&quot;&gt;&lt;div style=&quot;font-size: 20px; line-height: 120%;&quot;&gt;&lt;div style=&quot;font-size: 20px; line-height: 120%;&quot;&gt;procedure &lt;span style=&quot;color: rgb(250, 208, 0); font-size: 20px;&quot;&gt;mergesort&lt;/span&gt;&lt;span style=&quot;color: rgb(225, 239, 255); font-size: 20px;&quot;&gt;(&lt;/span&gt;&lt;span style=&quot;color: rgb(158, 255, 255); font-size: 20px;&quot;&gt; var a &lt;/span&gt;&lt;span style=&quot;color: rgb(255, 157, 0); font-size: 20px;&quot;&gt;as&lt;/span&gt;&lt;span style=&quot;color: rgb(158, 255, 255); font-size: 20px;&quot;&gt; array &lt;/span&gt;&lt;span style=&quot;color: rgb(225, 239, 255); font-size: 20px;&quot;&gt;){&lt;/span&gt;&lt;/div&gt;&lt;div style=&quot;font-size: 20px; line-height: 120%;&quot;&gt;&amp;nbsp; &amp;nbsp; &lt;span style=&quot;color: rgb(255, 157, 0); font-size: 20px;&quot;&gt;if&lt;/span&gt; &lt;span style=&quot;color: rgb(225, 239, 255); font-size: 20px;&quot;&gt;(&lt;/span&gt; n &lt;span style=&quot;color: rgb(255, 157, 0); font-size: 20px;&quot;&gt;==&lt;/span&gt; &lt;span style=&quot;color: rgb(255, 98, 140); font-size: 20px;&quot;&gt;1&lt;/span&gt; &lt;span style=&quot;color: rgb(225, 239, 255); font-size: 20px;&quot;&gt;)&lt;/span&gt; &lt;span style=&quot;color: rgb(255, 157, 0); font-size: 20px;&quot;&gt;return&lt;/span&gt; a&lt;/div&gt;&lt;div style=&quot;font-size: 20px; line-height: 120%;&quot;&gt;&amp;nbsp; &amp;nbsp; var l1 &lt;span style=&quot;color: rgb(255, 157, 0); font-size: 20px;&quot;&gt;as&lt;/span&gt; array = &lt;span style=&quot;color: rgb(158, 255, 255); font-size: 20px;&quot;&gt;a&lt;/span&gt;&lt;span style=&quot;color: rgb(225, 239, 255); font-size: 20px;&quot;&gt;[&lt;/span&gt;&lt;span style=&quot;color: rgb(255, 98, 140); font-size: 20px;&quot;&gt;0&lt;/span&gt;&lt;span style=&quot;color: rgb(225, 239, 255); font-size: 20px;&quot;&gt;]&lt;/span&gt; &lt;span style=&quot;color: rgb(255, 98, 140); font-size: 20px;&quot;&gt;...&lt;/span&gt; &lt;span style=&quot;color: rgb(158, 255, 255); font-size: 20px;&quot;&gt;a&lt;/span&gt;&lt;span style=&quot;color: rgb(225, 239, 255); font-size: 20px;&quot;&gt;[&lt;/span&gt;&lt;span style=&quot;color: rgb(158, 255, 255); font-size: 20px;&quot;&gt;n&lt;/span&gt;&lt;span style=&quot;color: rgb(255, 157, 0); font-size: 20px;&quot;&gt;/&lt;/span&gt;&lt;span style=&quot;color: rgb(255, 98, 140); font-size: 20px;&quot;&gt;2&lt;/span&gt;&lt;span style=&quot;color: rgb(225, 239, 255); font-size: 20px;&quot;&gt;]&lt;/span&gt;&lt;/div&gt;&lt;div style=&quot;font-size: 20px; line-height: 120%;&quot;&gt;&amp;nbsp; &amp;nbsp; var l2 &lt;span style=&quot;color: rgb(255, 157, 0); font-size: 20px;&quot;&gt;as&lt;/span&gt; array = &lt;span style=&quot;color: rgb(158, 255, 255); font-size: 20px;&quot;&gt;a&lt;/span&gt;&lt;span style=&quot;color: rgb(225, 239, 255); font-size: 20px;&quot;&gt;[&lt;/span&gt;&lt;span style=&quot;color: rgb(158, 255, 255); font-size: 20px;&quot;&gt;n&lt;/span&gt;&lt;span style=&quot;color: rgb(255, 157, 0); font-size: 20px;&quot;&gt;/&lt;/span&gt;&lt;span style=&quot;color: rgb(255, 98, 140); font-size: 20px;&quot;&gt;2&lt;/span&gt;&lt;span style=&quot;color: rgb(255, 157, 0); font-size: 20px;&quot;&gt;+&lt;/span&gt;&lt;span style=&quot;color: rgb(255, 98, 140); font-size: 20px;&quot;&gt;1&lt;/span&gt;&lt;span style=&quot;color: rgb(225, 239, 255); font-size: 20px;&quot;&gt;]&lt;/span&gt; &lt;span style=&quot;color: rgb(255, 98, 140); font-size: 20px;&quot;&gt;...&lt;/span&gt; &lt;span style=&quot;color: rgb(158, 255, 255); font-size: 20px;&quot;&gt;a&lt;/span&gt;&lt;span style=&quot;color: rgb(225, 239, 255); font-size: 20px;&quot;&gt;[&lt;/span&gt;&lt;span style=&quot;color: rgb(158, 255, 255); font-size: 20px;&quot;&gt;n&lt;/span&gt;&lt;span style=&quot;color: rgb(225, 239, 255); font-size: 20px;&quot;&gt;]&lt;/span&gt;&lt;/div&gt;&lt;div style=&quot;font-size: 20px; line-height: 120%;&quot;&gt;&amp;nbsp; &amp;nbsp; l1 = &lt;span style=&quot;color: rgb(250, 208, 0); font-size: 20px;&quot;&gt;mergesort&lt;/span&gt;&lt;span style=&quot;color: rgb(225, 239, 255); font-size: 20px;&quot;&gt;(&lt;/span&gt;&lt;span style=&quot;color: rgb(158, 255, 255); font-size: 20px;&quot;&gt; l1 &lt;/span&gt;&lt;span style=&quot;color: rgb(225, 239, 255); font-size: 20px;&quot;&gt;)&lt;/span&gt;&lt;/div&gt;&lt;div style=&quot;font-size: 20px; line-height: 120%;&quot;&gt;&amp;nbsp; &amp;nbsp; l2 = &lt;span style=&quot;color: rgb(250, 208, 0); font-size: 20px;&quot;&gt;mergesort&lt;/span&gt;&lt;span style=&quot;color: rgb(225, 239, 255); font-size: 20px;&quot;&gt;(&lt;/span&gt;&lt;span style=&quot;color: rgb(158, 255, 255); font-size: 20px;&quot;&gt; l2 &lt;/span&gt;&lt;span style=&quot;color: rgb(225, 239, 255); font-size: 20px;&quot;&gt;)&lt;/span&gt;&lt;/div&gt;&lt;div style=&quot;font-size: 20px; line-height: 120%;&quot;&gt;&amp;nbsp; &amp;nbsp; &lt;span style=&quot;color: rgb(255, 157, 0); font-size: 20px;&quot;&gt;return&lt;/span&gt; &lt;span style=&quot;color: rgb(250, 208, 0); font-size: 20px;&quot;&gt;merge&lt;/span&gt;&lt;span style=&quot;color: rgb(225, 239, 255); font-size: 20px;&quot;&gt;(&lt;/span&gt;&lt;span style=&quot;color: rgb(158, 255, 255); font-size: 20px;&quot;&gt; l1&lt;/span&gt;&lt;span style=&quot;color: rgb(225, 239, 255); font-size: 20px;&quot;&gt;,&lt;/span&gt;&lt;span style=&quot;color: rgb(158, 255, 255); font-size: 20px;&quot;&gt; l2 &lt;/span&gt;&lt;span style=&quot;color: rgb(225, 239, 255); font-size: 20px;&quot;&gt;)&lt;/span&gt;&lt;/div&gt;&lt;div style=&quot;font-size: 20px; line-height: 120%;&quot;&gt;end procedure&lt;/div&gt;&lt;div style=&quot;font-size: 20px; line-height: 120%;&quot;&gt;procedure &lt;span style=&quot;color: rgb(250, 208, 0); font-size: 20px;&quot;&gt;merge&lt;/span&gt;&lt;span style=&quot;color: rgb(225, 239, 255); font-size: 20px;&quot;&gt;(&lt;/span&gt;&lt;span style=&quot;color: rgb(158, 255, 255); font-size: 20px;&quot;&gt; var a &lt;/span&gt;&lt;span style=&quot;color: rgb(255, 157, 0); font-size: 20px;&quot;&gt;as&lt;/span&gt;&lt;span style=&quot;color: rgb(158, 255, 255); font-size: 20px;&quot;&gt; array&lt;/span&gt;&lt;span style=&quot;color: rgb(225, 239, 255); font-size: 20px;&quot;&gt;,&lt;/span&gt;&lt;span style=&quot;color: rgb(158, 255, 255); font-size: 20px;&quot;&gt; var b &lt;/span&gt;&lt;span style=&quot;color: rgb(255, 157, 0); font-size: 20px;&quot;&gt;as&lt;/span&gt;&lt;span style=&quot;color: rgb(158, 255, 255); font-size: 20px;&quot;&gt; array &lt;/span&gt;&lt;span style=&quot;color: rgb(225, 239, 255); font-size: 20px;&quot;&gt;)&lt;/span&gt;&lt;/div&gt;&lt;div style=&quot;font-size: 20px; line-height: 120%;&quot;&gt;&amp;nbsp; &amp;nbsp; var c &lt;span style=&quot;color: rgb(255, 157, 0); font-size: 20px;&quot;&gt;as&lt;/span&gt; array&lt;/div&gt;&lt;div style=&quot;font-size: 20px; line-height: 120%;&quot;&gt;&amp;nbsp; &amp;nbsp; &lt;span style=&quot;color: rgb(255, 157, 0); font-size: 20px;&quot;&gt;while&lt;/span&gt;&lt;span style=&quot;color: rgb(250, 208, 0); font-size: 20px;&quot;&gt; &lt;/span&gt;&lt;span style=&quot;color: rgb(225, 239, 255); font-size: 20px;&quot;&gt;(&lt;/span&gt;&lt;span style=&quot;color: rgb(158, 255, 255); font-size: 20px;&quot;&gt; a &lt;/span&gt;&lt;span style=&quot;color: rgb(255, 157, 0); font-size: 20px;&quot;&gt;and&lt;/span&gt;&lt;span style=&quot;color: rgb(158, 255, 255); font-size: 20px;&quot;&gt; b have elements &lt;/span&gt;&lt;span style=&quot;color: rgb(225, 239, 255); font-size: 20px;&quot;&gt;)&lt;/span&gt;&lt;/div&gt;&lt;div style=&quot;font-size: 20px; line-height: 120%;&quot;&gt;&amp;nbsp; &amp;nbsp; &amp;nbsp; &amp;nbsp; &lt;span style=&quot;color: rgb(255, 157, 0); font-size: 20px;&quot;&gt;if&lt;/span&gt; &lt;span style=&quot;color: rgb(225, 239, 255); font-size: 20px;&quot;&gt;(&lt;/span&gt; &lt;span style=&quot;color: rgb(158, 255, 255); font-size: 20px;&quot;&gt;a&lt;/span&gt;&lt;span style=&quot;color: rgb(225, 239, 255); font-size: 20px;&quot;&gt;[&lt;/span&gt;&lt;span style=&quot;color: rgb(255, 98, 140); font-size: 20px;&quot;&gt;0&lt;/span&gt;&lt;span style=&quot;color: rgb(225, 239, 255); font-size: 20px;&quot;&gt;]&lt;/span&gt; &lt;span style=&quot;color: rgb(255, 157, 0); font-size: 20px;&quot;&gt;&amp;gt;&lt;/span&gt; &lt;span style=&quot;color: rgb(158, 255, 255); font-size: 20px;&quot;&gt;b&lt;/span&gt;&lt;span style=&quot;color: rgb(225, 239, 255); font-size: 20px;&quot;&gt;[&lt;/span&gt;&lt;span style=&quot;color: rgb(255, 98, 140); font-size: 20px;&quot;&gt;0&lt;/span&gt;&lt;span style=&quot;color: rgb(225, 239, 255); font-size: 20px;&quot;&gt;]&lt;/span&gt; &lt;span style=&quot;color: rgb(225, 239, 255); font-size: 20px;&quot;&gt;)&lt;/span&gt;&lt;/div&gt;&lt;div style=&quot;font-size: 20px; line-height: 120%;&quot;&gt;&amp;nbsp; &amp;nbsp; &amp;nbsp; &amp;nbsp; &amp;nbsp; &amp;nbsp; add &lt;span style=&quot;color: rgb(158, 255, 255); font-size: 20px;&quot;&gt;b&lt;/span&gt;&lt;span style=&quot;color: rgb(225, 239, 255); font-size: 20px;&quot;&gt;[&lt;/span&gt;&lt;span style=&quot;color: rgb(255, 98, 140); font-size: 20px;&quot;&gt;0&lt;/span&gt;&lt;span style=&quot;color: rgb(225, 239, 255); font-size: 20px;&quot;&gt;]&lt;/span&gt; to the end of c&lt;/div&gt;&lt;div style=&quot;font-size: 20px; line-height: 120%;&quot;&gt;&amp;nbsp; &amp;nbsp; &amp;nbsp; &amp;nbsp; &amp;nbsp; &amp;nbsp; remove &lt;span style=&quot;color: rgb(158, 255, 255); font-size: 20px;&quot;&gt;b&lt;/span&gt;&lt;span style=&quot;color: rgb(225, 239, 255); font-size: 20px;&quot;&gt;[&lt;/span&gt;&lt;span style=&quot;color: rgb(255, 98, 140); font-size: 20px;&quot;&gt;0&lt;/span&gt;&lt;span style=&quot;color: rgb(225, 239, 255); font-size: 20px;&quot;&gt;]&lt;/span&gt; &lt;span style=&quot;color: rgb(255, 157, 0); font-size: 20px;&quot;&gt;from&lt;/span&gt; b&lt;/div&gt;&lt;div style=&quot;font-size: 20px; line-height: 120%;&quot;&gt;&amp;nbsp; &amp;nbsp; &amp;nbsp; &amp;nbsp; &lt;span style=&quot;color: rgb(255, 157, 0); font-size: 20px;&quot;&gt;else&lt;/span&gt;&lt;/div&gt;&lt;div style=&quot;font-size: 20px; line-height: 120%;&quot;&gt;&amp;nbsp; &amp;nbsp; &amp;nbsp; &amp;nbsp; &amp;nbsp; &amp;nbsp; add &lt;span style=&quot;color: rgb(158, 255, 255); font-size: 20px;&quot;&gt;a&lt;/span&gt;&lt;span style=&quot;color: rgb(225, 239, 255); font-size: 20px;&quot;&gt;[&lt;/span&gt;&lt;span style=&quot;color: rgb(255, 98, 140); font-size: 20px;&quot;&gt;0&lt;/span&gt;&lt;span style=&quot;color: rgb(225, 239, 255); font-size: 20px;&quot;&gt;]&lt;/span&gt; to the end of c&lt;/div&gt;&lt;div style=&quot;font-size: 20px; line-height: 120%;&quot;&gt;&amp;nbsp; &amp;nbsp; &amp;nbsp; &amp;nbsp; &amp;nbsp; &amp;nbsp; remove &lt;span style=&quot;color: rgb(158, 255, 255); font-size: 20px;&quot;&gt;a&lt;/span&gt;&lt;span style=&quot;color: rgb(225, 239, 255); font-size: 20px;&quot;&gt;[&lt;/span&gt;&lt;span style=&quot;color: rgb(255, 98, 140); font-size: 20px;&quot;&gt;0&lt;/span&gt;&lt;span style=&quot;color: rgb(225, 239, 255); font-size: 20px;&quot;&gt;]&lt;/span&gt; &lt;span style=&quot;color: rgb(255, 157, 0); font-size: 20px;&quot;&gt;from&lt;/span&gt; a&lt;/div&gt;&lt;div style=&quot;font-size: 20px; line-height: 120%;&quot;&gt;&amp;nbsp; &amp;nbsp; &amp;nbsp; &amp;nbsp; end &lt;span style=&quot;color: rgb(255, 157, 0); font-size: 20px;&quot;&gt;if&lt;/span&gt;&lt;/div&gt;&lt;div style=&quot;font-size: 20px; line-height: 120%;&quot;&gt;&amp;nbsp; &amp;nbsp; end &lt;span style=&quot;color: rgb(255, 157, 0); font-size: 20px;&quot;&gt;while&lt;/span&gt;&lt;/div&gt;&lt;div style=&quot;font-size: 20px; line-height: 120%;&quot;&gt;&amp;nbsp; &amp;nbsp; &lt;span style=&quot;color: rgb(255, 157, 0); font-size: 20px;&quot;&gt;while&lt;/span&gt;&lt;span style=&quot;color: rgb(250, 208, 0); font-size: 20px;&quot;&gt; &lt;/span&gt;&lt;span style=&quot;color: rgb(225, 239, 255); font-size: 20px;&quot;&gt;(&lt;/span&gt;&lt;span style=&quot;color: rgb(158, 255, 255); font-size: 20px;&quot;&gt; a has elements &lt;/span&gt;&lt;span style=&quot;color: rgb(225, 239, 255); font-size: 20px;&quot;&gt;)&lt;/span&gt;&lt;/div&gt;&lt;div style=&quot;font-size: 20px; line-height: 120%;&quot;&gt;&amp;nbsp; &amp;nbsp; &amp;nbsp; &amp;nbsp; add &lt;span style=&quot;color: rgb(158, 255, 255); font-size: 20px;&quot;&gt;a&lt;/span&gt;&lt;span style=&quot;color: rgb(225, 239, 255); font-size: 20px;&quot;&gt;[&lt;/span&gt;&lt;span style=&quot;color: rgb(255, 98, 140); font-size: 20px;&quot;&gt;0&lt;/span&gt;&lt;span style=&quot;color: rgb(225, 239, 255); font-size: 20px;&quot;&gt;]&lt;/span&gt; to the end of c&lt;/div&gt;&lt;div style=&quot;font-size: 20px; line-height: 120%;&quot;&gt;&amp;nbsp; &amp;nbsp; &amp;nbsp; &amp;nbsp; remove &lt;span style=&quot;color: rgb(158, 255, 255); font-size: 20px;&quot;&gt;a&lt;/span&gt;&lt;span style=&quot;color: rgb(225, 239, 255); font-size: 20px;&quot;&gt;[&lt;/span&gt;&lt;span style=&quot;color: rgb(255, 98, 140); font-size: 20px;&quot;&gt;0&lt;/span&gt;&lt;span style=&quot;color: rgb(225, 239, 255); font-size: 20px;&quot;&gt;]&lt;/span&gt; &lt;span style=&quot;color: rgb(255, 157, 0); font-size: 20px;&quot;&gt;from&lt;/span&gt; a&lt;/div&gt;&lt;div style=&quot;font-size: 20px; line-height: 120%;&quot;&gt;&amp;nbsp; &amp;nbsp; end &lt;span style=&quot;color: rgb(255, 157, 0); font-size: 20px;&quot;&gt;while&lt;/span&gt;&lt;/div&gt;&lt;div style=&quot;font-size: 20px; line-height: 120%;&quot;&gt;&amp;nbsp; &amp;nbsp; &lt;span style=&quot;color: rgb(255, 157, 0); font-size: 20px;&quot;&gt;while&lt;/span&gt;&lt;span style=&quot;color: rgb(250, 208, 0); font-size: 20px;&quot;&gt; &lt;/span&gt;&lt;span style=&quot;color: rgb(225, 239, 255); font-size: 20px;&quot;&gt;(&lt;/span&gt;&lt;span style=&quot;color: rgb(158, 255, 255); font-size: 20px;&quot;&gt; b has elements &lt;/span&gt;&lt;span style=&quot;color: rgb(225, 239, 255); font-size: 20px;&quot;&gt;)&lt;/span&gt;&lt;/div&gt;&lt;div style=&quot;font-size: 20px; line-height: 120%;&quot;&gt;&amp;nbsp; &amp;nbsp; &amp;nbsp; &amp;nbsp; add &lt;span style=&quot;color: rgb(158, 255, 255); font-size: 20px;&quot;&gt;b&lt;/span&gt;&lt;span style=&quot;color: rgb(225, 239, 255); font-size: 20px;&quot;&gt;[&lt;/span&gt;&lt;span style=&quot;color: rgb(255, 98, 140); font-size: 20px;&quot;&gt;0&lt;/span&gt;&lt;span style=&quot;color: rgb(225, 239, 255); font-size: 20px;&quot;&gt;]&lt;/span&gt; to the end of c&lt;/div&gt;&lt;div style=&quot;font-size: 20px; line-height: 120%;&quot;&gt;&amp;nbsp; &amp;nbsp; &amp;nbsp; &amp;nbsp; remove &lt;span style=&quot;color: rgb(158, 255, 255); font-size: 20px;&quot;&gt;b&lt;/span&gt;&lt;span style=&quot;color: rgb(225, 239, 255); font-size: 20px;&quot;&gt;[&lt;/span&gt;&lt;span style=&quot;color: rgb(255, 98, 140); font-size: 20px;&quot;&gt;0&lt;/span&gt;&lt;span style=&quot;color: rgb(225, 239, 255); font-size: 20px;&quot;&gt;]&lt;/span&gt; &lt;span style=&quot;color: rgb(255, 157, 0); font-size: 20px;&quot;&gt;from&lt;/span&gt; b&lt;/div&gt;&lt;div style=&quot;font-size: 20px; line-height: 120%;&quot;&gt;&amp;nbsp; &amp;nbsp; end &lt;span style=&quot;color: rgb(255, 157, 0); font-size: 20px;&quot;&gt;while&lt;/span&gt;&lt;/div&gt;&lt;div style=&quot;font-size: 20px; line-height: 120%;&quot;&gt;&amp;nbsp; &amp;nbsp; &lt;span style=&quot;color: rgb(255, 157, 0); font-size: 20px;&quot;&gt;return&lt;/span&gt; c&lt;/div&gt;&lt;div style=&quot;font-size: 20px; line-height: 120%;&quot;&gt;end procedure&lt;/div&gt;&lt;/div&gt;&lt;/div&gt;&lt;/div&gt;&lt;/div&gt;&lt;/div&gt;&lt;/div&gt;&lt;/div&gt;&lt;/div&gt;&lt;/div&gt;&lt;/div&gt;&lt;/div&gt;&lt;/div&gt;&lt;/div&gt;&lt;/div&gt;&lt;/div&gt;&lt;/div&gt;&lt;/div&gt;&lt;/div&gt;" style="rounded=1;whiteSpace=wrap;html=1;arcSize=5;strokeWidth=2;fillColor=#333333;strokeColor=none;align=left;verticalAlign=top;spacing=15;spacingTop=31;fontSize=20;fontFamily=Mina;fontStyle=0;labelBackgroundColor=none;" vertex="1" parent="lIgfKyH6TXQouxF_7BQu-134">
          <mxGeometry width="699" height="780" as="geometry" />
        </mxCell>
        <mxCell id="lIgfKyH6TXQouxF_7BQu-136" value="" style="group" vertex="1" connectable="0" parent="lIgfKyH6TXQouxF_7BQu-134">
          <mxGeometry x="12" y="20.800000000000182" width="72" height="22.88" as="geometry" />
        </mxCell>
        <mxCell id="lIgfKyH6TXQouxF_7BQu-137" value="&amp;nbsp; &amp;nbsp; &amp;nbsp; &amp;nbsp; &amp;nbsp; &amp;nbsp; &amp;nbsp; " style="strokeWidth=2;html=1;shape=mxgraph.flowchart.start_2;whiteSpace=wrap;fillColor=#ff5f56;strokeColor=none;" vertex="1" parent="lIgfKyH6TXQouxF_7BQu-136">
          <mxGeometry x="2" y="2.0799999999999996" width="16" height="16.639999999999997" as="geometry" />
        </mxCell>
        <mxCell id="lIgfKyH6TXQouxF_7BQu-138" value="&amp;nbsp; &amp;nbsp; &amp;nbsp; &amp;nbsp; &amp;nbsp; &amp;nbsp; &amp;nbsp; " style="strokeWidth=2;html=1;shape=mxgraph.flowchart.start_2;whiteSpace=wrap;fillColor=#ffbd2e;strokeColor=none;" vertex="1" parent="lIgfKyH6TXQouxF_7BQu-136">
          <mxGeometry x="27" y="2.0799999999999996" width="16" height="16.639999999999997" as="geometry" />
        </mxCell>
        <mxCell id="lIgfKyH6TXQouxF_7BQu-139" value="&amp;nbsp; &amp;nbsp; &amp;nbsp; &amp;nbsp; &amp;nbsp; &amp;nbsp; &amp;nbsp; " style="strokeWidth=2;html=1;shape=mxgraph.flowchart.start_2;whiteSpace=wrap;fillColor=#1fa831;strokeColor=none;" vertex="1" parent="lIgfKyH6TXQouxF_7BQu-136">
          <mxGeometry x="52" y="2.0799999999999996" width="16" height="16.639999999999997" as="geometry" />
        </mxCell>
      </root>
    </mxGraphModel>
  </diagram>
</mxfile>
